<?xml version="1.0" encoding="UTF-8" standalone="no"?>
<svg
   version="1.0"
   width="290.000000pt"
   height="477.000000pt"
   viewBox="0 0 290.000000 477.000000"
   preserveAspectRatio="xMidYMid meet"
   id="svg3"
   sodipodi:docname="cap1_1.svg"
   inkscape:version="1.4 (86a8ad7, 2024-10-11)"
   xmlns:inkscape="http://www.inkscape.org/namespaces/inkscape"
   xmlns:sodipodi="http://sodipodi.sourceforge.net/DTD/sodipodi-0.dtd"
   xmlns="http://www.w3.org/2000/svg"
   xmlns:svg="http://www.w3.org/2000/svg">
  <defs
     id="defs3">
    <filter
       inkscape:label="Eroded Metal"
       inkscape:menu="Materials"
       inkscape:menu-tooltip="Eroded metal texture with ridges, grooves, holes and bumps"
       style="color-interpolation-filters:sRGB;"
       id="filter7"
       x="-0.21110616"
       y="-0.1484012"
       width="1.4222123"
       height="1.2968024">
      <feGaussianBlur
         result="result0"
         in="SourceGraphic"
         stdDeviation="1"
         id="feGaussianBlur4" />
      <feTurbulence
         type="turbulence"
         baseFrequency="0.057"
         seed="4"
         numOctaves="4"
         result="result1"
         id="feTurbulence4" />
      <feDisplacementMap
         xChannelSelector="R"
         in2="result1"
         result="result91"
         id="feDisplacementMap4" />
      <feComposite
         result="result2"
         operator="out"
         in="result0"
         in2="result91"
         id="feComposite4" />
      <feComposite
         k1="0.1"
         k3="1.2"
         in2="result2"
         in="SourceAlpha"
         operator="arithmetic"
         result="result5"
         id="feComposite5" />
      <feBlend
         result="fbSourceGraphic"
         mode="multiply"
         in2="result5"
         id="feBlend5" />
      <feGaussianBlur
         stdDeviation="3"
         in="fbSourceGraphic"
         result="result0"
         id="feGaussianBlur5" />
      <feSpecularLighting
         in="result0"
         result="result1"
         lighting-color="rgb(254,230,93)"
         surfaceScale="3"
         specularConstant="0.4"
         specularExponent="15"
         id="feSpecularLighting5">
        <fePointLight
           x="-5000"
           y="-10000"
           z="20000"
           id="fePointLight5" />
      </feSpecularLighting>
      <feComposite
         in2="fbSourceGraphic"
         in="result1"
         result="result2"
         operator="in"
         id="feComposite6" />
      <feComposite
         k1="-1"
         in="fbSourceGraphic"
         result="result4"
         operator="arithmetic"
         k2="2.5"
         k3="3.5"
         in2="result2"
         id="feComposite7" />
      <feBlend
         mode="multiply"
         in2="result4"
         id="feBlend7" />
    </filter>
    <filter
       inkscape:label="Eroded Metal"
       inkscape:menu="Materials"
       inkscape:menu-tooltip="Eroded metal texture with ridges, grooves, holes and bumps"
       style="color-interpolation-filters:sRGB;"
       id="filter11"
       x="-0.21404221"
       y="-0.14746544"
       width="1.4280844"
       height="1.2949309">
      <feGaussianBlur
         result="result0"
         in="SourceGraphic"
         stdDeviation="1"
         id="feGaussianBlur7" />
      <feTurbulence
         type="turbulence"
         baseFrequency="0.057"
         seed="4"
         numOctaves="4"
         result="result1"
         id="feTurbulence7" />
      <feDisplacementMap
         xChannelSelector="R"
         in2="result1"
         result="result91"
         id="feDisplacementMap7" />
      <feComposite
         result="result2"
         operator="out"
         in="result0"
         in2="result91"
         id="feComposite8" />
      <feComposite
         k1="0.1"
         k3="1.2"
         in2="result2"
         in="SourceAlpha"
         operator="arithmetic"
         result="result5"
         id="feComposite9" />
      <feBlend
         result="fbSourceGraphic"
         mode="multiply"
         in2="result5"
         id="feBlend9" />
      <feGaussianBlur
         stdDeviation="3"
         in="fbSourceGraphic"
         result="result0"
         id="feGaussianBlur9" />
      <feSpecularLighting
         in="result0"
         result="result1"
         lighting-color="rgb(254,230,93)"
         surfaceScale="3"
         specularConstant="0.4"
         specularExponent="15"
         id="feSpecularLighting9">
        <fePointLight
           x="-5000"
           y="-10000"
           z="20000"
           id="fePointLight9" />
      </feSpecularLighting>
      <feComposite
         in2="fbSourceGraphic"
         in="result1"
         result="result2"
         operator="in"
         id="feComposite10" />
      <feComposite
         k1="-1"
         in="fbSourceGraphic"
         result="result4"
         operator="arithmetic"
         k2="2.5"
         k3="3.5"
         in2="result2"
         id="feComposite11" />
      <feBlend
         mode="multiply"
         in2="result4"
         id="feBlend11" />
    </filter>
    <filter
       inkscape:label="Eroded Metal"
       inkscape:menu="Materials"
       inkscape:menu-tooltip="Eroded metal texture with ridges, grooves, holes and bumps"
       style="color-interpolation-filters:sRGB;"
       id="filter15"
       x="-0.033449477"
       y="-0.020338808"
       width="1.066899"
       height="1.0406776">
      <feGaussianBlur
         result="result0"
         in="SourceGraphic"
         stdDeviation="1"
         id="feGaussianBlur11" />
      <feTurbulence
         type="turbulence"
         baseFrequency="0.057"
         seed="4"
         numOctaves="4"
         result="result1"
         id="feTurbulence11" />
      <feDisplacementMap
         xChannelSelector="R"
         in2="result1"
         result="result91"
         id="feDisplacementMap11" />
      <feComposite
         result="result2"
         operator="out"
         in="result0"
         in2="result91"
         id="feComposite12" />
      <feComposite
         k1="0.1"
         k3="1.2"
         in2="result2"
         in="SourceAlpha"
         operator="arithmetic"
         result="result5"
         id="feComposite13" />
      <feBlend
         result="fbSourceGraphic"
         mode="multiply"
         in2="result5"
         id="feBlend13" />
      <feGaussianBlur
         stdDeviation="3"
         in="fbSourceGraphic"
         result="result0"
         id="feGaussianBlur13" />
      <feSpecularLighting
         in="result0"
         result="result1"
         lighting-color="rgb(254,230,93)"
         surfaceScale="3"
         specularConstant="0.4"
         specularExponent="15"
         id="feSpecularLighting13">
        <fePointLight
           x="-5000"
           y="-10000"
           z="20000"
           id="fePointLight13" />
      </feSpecularLighting>
      <feComposite
         in2="fbSourceGraphic"
         in="result1"
         result="result2"
         operator="in"
         id="feComposite14" />
      <feComposite
         k1="-1"
         in="fbSourceGraphic"
         result="result4"
         operator="arithmetic"
         k2="2.5"
         k3="3.5"
         in2="result2"
         id="feComposite15" />
      <feBlend
         mode="multiply"
         in2="result4"
         id="feBlend15" />
    </filter>
  </defs>
  <sodipodi:namedview
     id="namedview3"
     pagecolor="#ffffff"
     bordercolor="#000000"
     borderopacity="0.25"
     inkscape:showpageshadow="2"
     inkscape:pageopacity="0.0"
     inkscape:pagecheckerboard="0"
     inkscape:deskcolor="#d1d1d1"
     inkscape:document-units="pt"
     inkscape:zoom="1.2154088"
     inkscape:cx="193.35058"
     inkscape:cy="383.82147"
     inkscape:window-width="1920"
     inkscape:window-height="991"
     inkscape:window-x="-9"
     inkscape:window-y="-9"
     inkscape:window-maximized="1"
     inkscape:current-layer="svg3" />
  <path
     d="M 71,0.7 C 67.8,1.8 67,4.4 67,13.2 V 22 H 60.1 C 51.7,22 50,23.2 50,29.5 c 0,3.6 0.5,4.8 2.5,6.1 3.5,2.3 3.2,5 -0.5,5.7 -5.3,1.1 -5.3,8.5 0.1,9.7 1.5,0.4 2.5,1.4 2.7,2.8 0.3,1.8 -0.1,2.2 -2.3,2.2 -5.4,0 -5.7,9.4 -0.3,10.2 3.2,0.4 3.2,4.2 0,4.6 -5.1,0.8 -5.1,9.6 0,10.4 2.9,0.4 3.2,4.1 0.3,4.6 -6.7,1.3 -5.7,10.2 1.1,10.2 2,0 2.5,0.4 2.2,2.2 -0.2,1.7 -1.7,2.6 -7.3,4.4 -3.8,1.2 -15.7,5 -26.2,8.4 L 3,117.2 V 294.6 C 3,392.2 3.3,472 3.8,472 c 96.5,0.3 224.5,-0.2 226.8,-0.9 1.6,-0.6 15.6,-5.1 31.2,-10.1 L 290,451.9 V 274.5 97 l -31.7,-0.1 c -26,0 -31.2,-0.2 -28.3,-1.2 3.2,-1.1 3.5,-1.5 3.5,-5.2 0,-3.6 -0.3,-4 -2.7,-4.3 -2.2,-0.3 -2.8,-0.9 -2.8,-2.8 0,-1.7 0.6,-2.4 1.9,-2.4 2.7,0 4.3,-2.4 3.9,-6.2 -0.2,-2.8 -0.7,-3.4 -3,-3.6 -2.2,-0.3 -2.8,-0.9 -2.8,-2.6 0,-1.8 0.7,-2.5 3,-3 2.6,-0.5 3,-1 3,-3.9 0,-3.7 -1.5,-5.7 -4.2,-5.7 -1.2,0 -1.8,-0.8 -1.8,-2.4 0,-1.9 0.6,-2.5 2.8,-2.8 2.3,-0.2 2.8,-0.8 3,-3.6 0.4,-3.8 -1.2,-6.2 -3.9,-6.2 -2.7,0 -2.4,-3.4 0.6,-6.4 3,-3 3.3,-7.4 0.8,-10.5 -1.5,-1.7 -3.1,-2.1 -8.8,-2.3 l -7,-0.3 -0.3,-9.3 c -0.3,-8.5 -0.5,-9.3 -2.7,-10.8 -3.1,-2 -9,-1.1 -10.5,1.6 -0.5,1 -1,5.7 -1,10.4 V 22 h -6.9 c -8.4,0 -10.1,1.2 -10.1,7.5 0,3.6 0.5,4.8 2.5,6.1 3.5,2.3 3.2,5 -0.5,5.7 -5.3,1.1 -5.3,8.5 0.1,9.7 3.3,0.8 3.2,4.2 -0.1,5 -3,0.7 -5,5.2 -3.4,7.8 0.6,0.9 2.2,1.9 3.5,2.2 3.2,0.8 3.2,4.2 0,5 -1.3,0.3 -2.9,1.3 -3.5,2.2 -1.6,2.6 0.4,7.1 3.4,7.8 3.1,0.7 3.4,4.3 0.5,4.8 -2.9,0.6 -4.5,2.2 -4.5,4.6 0,3.2 1.4,4.7 5.1,5.6 2.2,0.5 -2.3,0.8 -12.1,0.7 -8.5,0 -14.3,-0.2 -12.8,-0.4 3.6,-0.6 5,-2.5 4.6,-6.5 -0.2,-2.8 -0.7,-3.4 -3,-3.6 -2.2,-0.3 -2.8,-0.9 -2.8,-2.8 0,-1.7 0.6,-2.4 1.9,-2.4 2.7,0 4.3,-2.4 3.9,-6.2 -0.2,-2.8 -0.7,-3.4 -3,-3.6 -2.2,-0.3 -2.8,-0.9 -2.8,-2.7 0,-1.8 0.6,-2.4 2.8,-2.7 2.3,-0.2 2.8,-0.8 3,-3.6 0.4,-3.8 -1.2,-6.2 -3.9,-6.2 -1.3,0 -1.9,-0.7 -1.9,-2.4 0,-1.9 0.6,-2.5 2.8,-2.8 2.3,-0.2 2.8,-0.8 3,-3.6 0.4,-3.8 -1.2,-6.2 -3.9,-6.2 -2.7,0 -2.4,-3.4 0.6,-6.4 3,-3 3.3,-7.4 0.8,-10.5 -1.5,-1.7 -3.1,-2.1 -8.8,-2.3 l -7,-0.3 L 148,12 C 147.5,2.8 147.4,2.5 144.7,1.2 141.3,-0.5 136.4,0.5 135,3 c -0.6,1 -1,5.7 -1,10.4 V 22 h -6.9 c -8.4,0 -10.1,1.2 -10.1,7.5 0,3.6 0.5,4.8 2.5,6.1 3.5,2.3 3.2,5 -0.5,5.7 -5.3,1.1 -5.3,8.5 0.1,9.7 1.5,0.4 2.5,1.4 2.7,2.7 0.3,1.7 -0.3,2.2 -2.5,2.5 -2,0.2 -3,1.1 -3.7,3.1 -1.2,3.4 0.1,5.9 3.5,6.7 3.2,0.8 3.2,4.2 0,5 -1.3,0.3 -2.9,1.3 -3.5,2.2 -1.6,2.6 0.4,7.1 3.4,7.8 3.1,0.7 3.4,4.3 0.5,4.8 -2.9,0.6 -4.5,2.2 -4.5,4.6 0,3.2 1.4,4.7 5.1,5.6 2.2,0.5 -2.1,0.8 -12.1,0.8 -13.3,0.1 -15,-0.1 -12,-1.1 3.2,-1.1 3.5,-1.5 3.5,-5.2 0,-3.6 -0.3,-4 -2.7,-4.3 C 94.6,85.9 94,85.3 94,83.4 94,81.7 94.6,81 95.9,81 c 2.7,0 4.3,-2.4 3.9,-6.2 -0.2,-2.8 -0.7,-3.4 -3,-3.6 -2.2,-0.3 -2.8,-0.9 -2.8,-2.6 0,-1.8 0.7,-2.5 3,-3 2.6,-0.5 3,-1 3,-3.9 C 100,58 98.5,56 95.8,56 94.6,56 94,55.2 94,53.6 c 0,-1.9 0.6,-2.5 2.8,-2.8 2.3,-0.2 2.8,-0.8 3,-3.6 0.4,-3.8 -1.2,-6.2 -3.9,-6.2 -2.8,0 -2.4,-3.8 0.6,-6.2 3,-2.4 3.4,-7.5 0.8,-10.7 -1.5,-1.7 -3.1,-2.1 -8.8,-2.3 l -7,-0.3 -0.3,-9 C 81,4.8 80.7,3.3 78.9,1.7 76.8,0 73.9,-0.4 71,0.7 Z m 6.9,3.7 c 0.8,0.9 1.1,4.3 0.9,9.3 l -0.3,7.8 -4.2,0.3 -4.3,0.3 v -9 C 70,6.9 70.4,4 71.3,3.7 73.7,2.7 76.8,3 77.9,4.4 Z m 67,0 c 0.8,0.9 1.1,4.3 0.9,9.3 l -0.3,7.8 -4.2,0.3 -4.3,0.3 v -9 c 0,-6.2 0.4,-9.1 1.3,-9.4 2.4,-1 5.5,-0.7 6.6,0.7 z m 66.9,8.3 0.3,9.3 h -4.1 -4 v -8.9 c 0,-9.5 0.3,-10.2 5,-9.8 2.4,0.2 2.5,0.4 2.8,9.4 z M 94.1,25 c 2.2,1.2 2.6,5.9 0.7,7.8 C 93.9,33.7 87.9,34 73.8,34 55,34 54,33.9 53,32 51.8,29.8 52.6,26 54.4,24.8 56.1,23.6 91.9,23.9 94.1,25 Z m 67.7,0.2 c 1.5,1.5 1.5,6.1 0,7.6 -0.9,0.9 -6.9,1.2 -21,1.2 C 122,34 121,33.9 120,32 c -1.2,-2.2 -0.4,-6 1.4,-7.2 2,-1.3 39.1,-0.9 40.4,0.4 z m 67,0 c 1.5,1.5 1.5,6.1 0,7.6 -0.9,0.9 -6.9,1.2 -21,1.2 C 189,34 188,33.9 187,32 c -1.2,-2.2 -0.4,-6 1.4,-7.2 2,-1.3 39.1,-0.9 40.4,0.4 z M 91,39 c 0,2 -0.5,2 -16.7,1.8 C 59.2,40.5 57.5,40.3 57.2,38.7 56.9,37.1 58.2,37 73.9,37 90.4,37 91,37.1 91,39 Z m 67,0 c 0,2 -0.5,2 -16.7,1.8 -15.1,-0.3 -16.8,-0.5 -17.1,-2.1 -0.3,-1.6 1,-1.7 16.7,-1.7 16.5,0 17.1,0.1 17.1,2 z m 67,0 c 0,2 -0.5,2 -16.7,1.8 -15.1,-0.3 -16.8,-0.5 -17.1,-2.1 -0.3,-1.6 1,-1.7 16.7,-1.7 16.5,0 17.1,0.1 17.1,2 z M 97.5,46.5 c 0,1.9 -0.7,2 -23,2 h -23 L 51.2,46.2 50.9,44 74.2,44.2 c 22.5,0.3 23.3,0.4 23.3,2.3 z m 67,0 c 0,1.9 -0.7,2 -23,2 h -23 l -0.3,-2.3 -0.3,-2.2 23.3,0.2 c 22.5,0.3 23.3,0.4 23.3,2.3 z m 67,0 c 0,1.9 -0.7,2 -23,2 h -23 l -0.3,-2.3 -0.3,-2.2 23.3,0.2 c 22.5,0.3 23.3,0.4 23.3,2.3 z M 85.8,52 c 4.5,0 5.2,0.3 5.2,2 0,1.9 -0.7,2 -16.4,2 -16.7,0 -18.4,-0.4 -17.2,-3.7 0.6,-1.4 2.1,-1.5 11.9,-1 6.1,0.4 13.6,0.7 16.5,0.7 z m 67.9,0 c 3.6,0 4.3,0.3 4.3,2 0,1.9 -0.7,2 -16.4,2 -16.7,0 -18.4,-0.4 -17.2,-3.7 0.6,-1.4 2.2,-1.5 12.8,-1 6.7,0.4 14.1,0.7 16.5,0.7 z m 67,0 c 3.6,0 4.3,0.3 4.3,2 0,1.9 -0.7,2 -16.4,2 -16.7,0 -18.4,-0.4 -17.2,-3.7 0.6,-1.4 2.2,-1.5 12.8,-1 6.7,0.4 14.1,0.7 16.5,0.7 z M 97.5,61 c 0,1.3 -3.4,1.5 -23.2,1.8 C 51.4,63 51,63 51,61 c 0,-2 0.4,-2 23.3,-1.8 19.8,0.3 23.2,0.5 23.2,1.8 z m 67,0 c 0,1.3 -3.4,1.5 -23.2,1.8 C 118.4,63 118,63 118,61 c 0,-2 0.4,-2 23.3,-1.8 19.8,0.3 23.2,0.5 23.2,1.8 z m 67,0 c 0,1.3 -3.4,1.5 -23.2,1.8 C 185.4,63 185,63 185,61 c 0,-2 0.4,-2 23.3,-1.8 19.8,0.3 23.2,0.5 23.2,1.8 z m -141,7.5 c 0,1.9 -0.8,2 -15.9,2.3 -16,0.3 -18.4,-0.2 -17.3,-3.3 0.6,-1.3 2.8,-1.5 16.9,-1.3 15.5,0.3 16.3,0.4 16.3,2.3 z m 67,0 c 0,1.9 -0.8,2 -15.9,2.3 -16,0.3 -18.4,-0.2 -17.3,-3.3 0.6,-1.3 2.8,-1.5 16.9,-1.3 15.5,0.3 16.3,0.4 16.3,2.3 z m 67.5,0 V 71 h -16.4 c -16.5,0 -18.4,-0.4 -17.2,-3.5 0.4,-1.2 3.5,-1.5 17.1,-1.5 H 225 Z m -60.7,6.4 c 2.6,2.6 -1,3.1 -23.4,3.1 -21.5,0 -22.9,-0.1 -22.9,-1.8 0,-1 0.2,-2.1 0.4,-2.3 0.9,-0.8 45,0.1 45.9,1 z M 97.5,76 c 0,1.3 -3.4,1.5 -23.2,1.8 C 51.4,78 51,78 51,76 c 0,-2 0.4,-2 23.3,-1.8 19.8,0.3 23.2,0.5 23.2,1.8 z m 134,0 c 0,1.3 -3.4,1.5 -23.2,1.8 C 185.4,78 185,78 185,76 c 0,-2 0.4,-2 23.3,-1.8 19.8,0.3 23.2,0.5 23.2,1.8 z M 91,82.9 c 0,1.7 -1.3,1.9 -16.1,2.6 C 58.4,86.2 56.1,85.8 57.3,82.6 57.8,81.2 60.4,81 74.5,81 90,81 91,81.1 91,82.9 Z m 67,0 c 0,1.7 -1.3,1.9 -16.1,2.6 -16.5,0.7 -18.8,0.3 -17.6,-2.9 0.5,-1.4 3.1,-1.6 17.2,-1.6 15.5,0 16.5,0.1 16.5,1.9 z m 67,0.1 c 0,1.7 -0.7,2 -4.7,2 -2.7,0 -9.7,0.3 -15.8,0.6 -11.3,0.5 -14.3,-0.1 -13.2,-3 0.6,-1.4 2.9,-1.6 17.2,-1.6 15.8,0 16.5,0.1 16.5,2 z M 97.5,90.5 c 0,1.9 -0.8,2 -23.2,2.3 C 52.2,93 51,92.9 51,91.2 c 0,-1 0.3,-2.2 0.7,-2.6 0.4,-0.3 10.8,-0.5 23.2,-0.4 21.8,0.3 22.6,0.4 22.6,2.3 z m 67,0 c 0,1.9 -0.8,2 -23.2,2.3 -22.1,0.2 -23.3,0.1 -23.3,-1.6 0,-1 0.3,-2.2 0.7,-2.6 0.4,-0.3 10.8,-0.5 23.2,-0.4 21.8,0.3 22.6,0.4 22.6,2.3 z m 66.9,-0.9 c 0.3,0.9 0.4,2 0,2.5 -0.3,0.5 -10.8,0.9 -23.5,0.9 -21.5,0 -22.9,-0.1 -22.9,-1.8 0,-1 0.3,-2.2 0.7,-2.5 0.3,-0.4 10.6,-0.7 22.9,-0.7 19.4,0 22.3,0.2 22.8,1.6 z M 90,102 v 6 H 74.2 58.4 l 0.2,-5.3 c 0,-2.8 0.2,-5.5 0.2,-6 C 58.9,96.3 66,96 74.5,96 H 90 Z m 67,0 v 6 h -15.7 -15.8 l 0.1,-5.3 c 0,-2.8 0.1,-5.5 0.2,-6 0.1,-0.4 7.2,-0.7 15.7,-0.7 H 157 Z m 67,0 v 6 h -16 -16 v -5.3 c 0,-3 0.3,-5.7 0.7,-6 0.3,-0.4 7.5,-0.7 16,-0.7 H 224 Z m -101.4,3.3 c 0.1,2.7 0.6,5.3 1.1,5.8 0.6,0.6 7.5,0.7 18.6,0.3 l 17.7,-0.7 v -5.4 -5.4 l 14.8,0.3 14.7,0.3 v 4.7 c 0,2.6 0.5,5.1 1,5.5 0.6,0.4 9,0.7 18.8,0.5 l 17.7,-0.3 v -5.5 -5.4 h 24.2 c 13.3,0 23.9,0.2 23.7,0.4 -0.2,0.3 -11.7,4.1 -25.6,8.5 l -25.1,8.1 -104.3,-0.2 -104.4,-0.3 19.2,-6.3 c 10.5,-3.4 19.6,-6.2 20.2,-6.2 0.6,0 1.1,1.6 1.1,3.5 v 3.4 l 17.5,0.3 c 9.6,0.2 18,0.1 18.5,0 0.6,-0.2 1,-2.8 1,-5.8 v -5.5 l 14.8,0.3 14.7,0.3 z m 162.2,170.3 -0.3,174.6 -4,1.3 C 254.4,460.1 229.6,468 228.9,468 228.4,468 228,393 228,293.7 V 119.4 l 18.3,-5.8 c 10,-3.2 22.5,-7.3 27.7,-9.1 5.2,-1.9 9.8,-3.4 10.3,-3.4 0.4,-0.1 0.6,78.5 0.5,174.5 z M 224,294.5 V 469 H 115 6 V 294.5 120 h 109 109 z"
     id="path1"
     style="fill:#000000;stroke:none;stroke-width:0.1;filter:url(#filter15)" />
  <path
     d="m 104.5,263.2 c -0.3,0.7 -0.6,7.4 -0.7,14.8 l -0.3,13.5 H 85 c -10.2,0 -19.1,0.1 -19.8,0.3 -0.8,0.1 -1.2,1.2 -1,2.4 0.4,3.1 3.1,3.5 23,3.7 l 16.7,0.1 0.3,14.2 c 0.3,14 0.4,14.3 2.6,14.6 l 2.2,0.3 v -32.5 c 0,-32.1 0,-32.6 -2,-32.6 -1.1,0 -2.3,0.6 -2.5,1.2 z"
     id="path2"
     style="fill:#000000;stroke:none;stroke-width:0.1;filter:url(#filter11)"
     transform="matrix(1.1878375,0,0,1.6661203,-20.736649,-203.30212)" />
  <path
     d="m 121.6,263.5 c -0.9,2.5 -0.7,60.8 0.3,62.3 0.5,0.8 1.7,1.2 2.7,1 1.7,-0.3 1.9,-1.6 2.2,-15 l 0.3,-14.8 19.7,-0.2 c 18.9,-0.3 19.7,-0.4 19.7,-2.3 0,-1.9 -0.8,-2 -19.5,-2.5 L 127.5,291.5 127,277 c -0.5,-13.8 -0.6,-14.5 -2.6,-14.8 -1.3,-0.2 -2.4,0.4 -2.8,1.3 z"
     id="path3"
     style="fill:#000000;stroke:none;stroke-width:0.1;filter:url(#filter7)"
     transform="matrix(1.1878375,0,0,1.6661203,-20.736649,-203.30212)" />
  <path
     style="fill:#a0892c;fill-opacity:1;stroke-width:0.822768"
     d="m 308.34883,593.83312 c -0.1301,-13.68881 -0.33359,-116.41516 -0.45219,-228.28078 L 307.681,162.1603 l 11.74165,-3.76327 c 6.4579,-2.06979 12.8982,-4.30331 14.31177,-4.96338 1.41356,-0.66006 3.26479,-1.33345 4.11384,-1.49642 0.84905,-0.16298 2.586,-0.72315 3.85989,-1.24485 1.2739,-0.52169 2.76645,-0.94852 3.31678,-0.94852 0.55033,0 7.51029,-2.17746 15.46658,-4.83879 l 14.46598,-4.83879 0.52384,6.19708 c 0.6793,8.03609 0.49629,439.09226 -0.1894,446.12309 l -0.52091,5.34118 -32.08797,10.44414 c -17.64838,5.74429 -32.54015,10.468 -33.09282,10.49712 -0.76539,0.0403 -1.06123,-5.8782 -1.2414,-24.83577 z"
     id="path21"
     transform="scale(0.75)" />
  <path
     style="fill:#a0892c;fill-opacity:1;stroke-width:0.822768"
     d="m 213.50841,151.26208 c 2.95324,-1.61529 3.70246,-3.36953 3.70246,-8.66901 v -5.19074 h 16.04398 16.04399 v 4.9999 c 0,4.42918 0.27452,5.27442 2.40501,7.40491 l 2.40502,2.40502 -21.123,-0.025 c -15.75692,-0.0187 -20.70497,-0.25366 -19.47746,-0.92506 z"
     id="path22"
     transform="scale(0.75)" />
  <path
     style="fill:#a0892c;fill-opacity:1;stroke-width:0.822768"
     d="m 327.66753,136.0124 c 0.79191,-0.20694 2.08777,-0.20694 2.87969,0 0.79191,0.20695 0.14398,0.37628 -1.43985,0.37628 -1.58383,0 -2.23176,-0.16933 -1.43984,-0.37628 z"
     id="path23"
     transform="scale(0.75)" />
  <path
     style="fill:#a0892c;fill-opacity:1;stroke-width:0.822768"
     d="m 306.06986,143.56882 v -6.02608 l 5.47167,-0.2759 c 3.00942,-0.15174 11.24739,-0.0908 18.3066,0.13549 l 12.83492,0.41138 -9.87322,3.2137 c -5.43027,1.76753 -13.66824,4.4183 -18.3066,5.89059 l -8.43337,2.6769 z"
     id="path24"
     transform="scale(0.75)" />
  <path
     style="fill:#a0892c;fill-opacity:1;stroke-width:0.822768"
     d="m 125.08996,151.59508 c 0.016,-0.33939 0.55828,-1.54269 1.20499,-2.67399 0.64672,-1.13131 1.18897,-4.18584 1.205,-6.78784 l 0.0292,-4.73092 h 15.92677 15.92678 l 0.53154,5.08553 c 0.29235,2.79704 1.08559,5.93111 1.76275,6.96458 0.67716,1.03348 1.2312,2.07721 1.2312,2.31939 0,0.24218 -8.51565,0.44033 -18.92367,0.44033 -10.40802,0 -18.91056,-0.27768 -18.89452,-0.61708 z"
     id="path25"
     transform="scale(0.75)" />
  <path
     style="fill:#a0892c;fill-opacity:1;stroke-width:0.822768"
     d="m 48.543338,151.46969 -2.87969,-0.61393 2.468305,-0.64595 c 1.357568,-0.35527 6.911255,-2.04268 12.341527,-3.7498 l 9.873221,-3.10386 0.48055,2.73935 c 0.264302,1.50664 0.957566,3.31412 1.540587,4.01662 0.935537,1.12725 0.540873,1.27951 -3.360238,1.29635 -2.431153,0.0105 -7.382244,0.16669 -11.002425,0.34711 -3.620181,0.18042 -7.878008,0.0518 -9.461837,-0.28589 z"
     id="path26"
     transform="scale(0.75)" />
  <path
     style="fill:#a0892c;fill-opacity:1;stroke-width:0.822768"
     d="m 16.249677,621.3548 -4.730919,-0.24675 V 392.41949 163.73092 H 153.03493 294.5511 l 0.0617,11.72445 c 0.0339,6.44845 0.12647,109.46934 0.20569,228.93532 l 0.14403,217.21086 H 157.97154 c -75.34502,0 -139.119858,-0.11104 -141.721863,-0.24675 z m 131.088153,-161.90615 1.99464,-2.12444 -0.0256,-70.48487 c -0.024,-66.08906 -0.11959,-70.76709 -1.53257,-75.0101 -1.75304,-5.26415 -3.10538,-6.58215 -6.75362,-6.58215 -2.88588,0 -6.59357,3.49403 -7.27023,6.85125 -0.19819,0.9833 -0.57426,10.67372 -0.8357,21.53426 -0.26146,10.86054 -0.70794,23.52362 -0.9922,28.14017 l -0.51682,8.39374 -28.33535,0.24533 -28.335334,0.24534 -2.399859,2.68698 c -2.10869,2.36097 -2.39986,3.31086 -2.39986,7.82914 0,6.00016 1.844689,10.15971 5.441046,12.2689 3.848205,2.2569 11.755513,3.06881 34.858897,3.57926 11.9832,0.26477 21.83822,0.55017 21.90003,0.63423 0.0618,0.0841 0.46728,12.55608 0.90102,27.71559 0.68112,23.80588 0.99109,27.98743 2.27411,30.67853 2.62876,5.51376 8.48727,7.16933 12.02741,3.39884 z m 26.07272,-0.54956 c 2.98932,-3.1826 3.55231,-8.25055 4.0532,-36.48578 l 0.48306,-27.22963 24.77433,-0.56406 c 18.57902,-0.423 25.66244,-0.87006 28.32575,-1.78773 1.95328,-0.67302 3.84325,-1.04331 4.19994,-0.82287 0.35668,0.22044 1.48571,-0.49034 2.50894,-1.57953 2.45125,-2.60923 3.07452,-8.14788 1.37468,-12.21613 -2.31446,-5.5393 -1.74661,-5.45139 -49.18652,-7.6147 l -11.22295,-0.51179 -0.50502,-20.28406 c -0.64689,-25.98272 -1.66007,-37.40516 -3.61475,-40.75203 -1.80482,-3.09028 -5.05975,-4.4326 -8.11225,-3.34544 -3.69267,1.31515 -5.3115,4.45164 -6.18311,11.97976 -1.05864,9.14358 -0.23924,132.56003 0.90567,136.40913 1.89976,6.38688 8.3331,8.92079 12.19903,4.80486 z"
     id="path27"
     transform="scale(0.75)" />
</svg>
