<svg xmlns="http://www.w3.org/2000/svg" xmlns:xlink="http://www.w3.org/1999/xlink" version="1.1" width="256" height="256" viewBox="0 0 256 256" xml:space="preserve">

<defs>
</defs>
<g style="stroke: none; stroke-width: 0; stroke-dasharray: none; stroke-linecap: butt; stroke-linejoin: miter; stroke-miterlimit: 10; fill: none; fill-rule: nonzero; opacity: 1;" transform="translate(1.4065934065934016 1.4065934065934016) scale(2.81 2.81)" >
	<polygon points="53.64,33.35 53.64,19.02 20.29,33.35 20.29,2.69 1,2.69 1,87.31 20.29,87.31 55.77,87.31 89,87.31 89,19.07 " style="stroke: none; stroke-width: 1; stroke-dasharray: none; stroke-linecap: butt; stroke-linejoin: miter; stroke-miterlimit: 10; fill: rgb(135,123,202); fill-rule: nonzero; opacity: 1;" transform="  matrix(1 0 0 1 0 0) "/>
	<rect x="1" y="2.69" rx="0" ry="0" width="19.29" height="11.95" style="stroke: none; stroke-width: 1; stroke-dasharray: none; stroke-linecap: butt; stroke-linejoin: miter; stroke-miterlimit: 10; fill: rgb(119,113,181); fill-rule: nonzero; opacity: 1;" transform=" matrix(1 0 0 1 0 0) "/>
	<path d="M 89 88.314 H 1 c -0.552 0 -1 -0.447 -1 -1 V 2.686 c 0 -0.552 0.448 -1 1 -1 h 19.292 c 0.552 0 1 0.448 1 1 v 29.145 l 31.949 -13.732 c 0.308 -0.132 0.665 -0.101 0.944 0.084 c 0.281 0.185 0.45 0.499 0.45 0.835 v 12.849 l 33.99 -13.724 c 0.306 -0.125 0.657 -0.088 0.934 0.098 c 0.275 0.186 0.44 0.497 0.44 0.829 v 68.245 C 90 87.867 89.553 88.314 89 88.314 z M 2 86.314 h 86 V 20.552 L 54.01 34.276 c -0.306 0.125 -0.656 0.087 -0.934 -0.098 c -0.275 -0.186 -0.44 -0.497 -0.44 -0.829 V 20.535 L 20.687 34.268 c -0.31 0.132 -0.665 0.102 -0.945 -0.084 c -0.281 -0.185 -0.45 -0.499 -0.45 -0.835 V 3.686 H 2 V 86.314 z" style="stroke: none; stroke-width: 1; stroke-dasharray: none; stroke-linecap: butt; stroke-linejoin: miter; stroke-miterlimit: 10; fill: rgb(0,0,0); fill-rule: nonzero; opacity: 1;" transform=" matrix(1 0 0 1 0 0) " stroke-linecap="round" />
	<path d="M 20.292 15.638 H 1 c -0.552 0 -1 -0.448 -1 -1 V 2.686 c 0 -0.552 0.448 -1 1 -1 h 19.292 c 0.552 0 1 0.448 1 1 v 11.952 C 21.292 15.19 20.844 15.638 20.292 15.638 z M 2 13.638 h 17.292 V 3.686 H 2 V 13.638 z" style="stroke: none; stroke-width: 1; stroke-dasharray: none; stroke-linecap: butt; stroke-linejoin: miter; stroke-miterlimit: 10; fill: rgb(0,0,0); fill-rule: nonzero; opacity: 1;" transform=" matrix(1 0 0 1 0 0) " stroke-linecap="round" />
	<rect x="15.68" y="51.99" rx="0" ry="0" width="58.65" height="8.83" style="stroke: none; stroke-width: 1; stroke-dasharray: none; stroke-linecap: butt; stroke-linejoin: miter; stroke-miterlimit: 10; fill: rgb(247,189,98); fill-rule: nonzero; opacity: 1;" transform=" matrix(1 0 0 1 0 0) "/>
	<rect x="15.68" y="60.82" rx="0" ry="0" width="58.65" height="8.83" style="stroke: none; stroke-width: 1; stroke-dasharray: none; stroke-linecap: butt; stroke-linejoin: miter; stroke-miterlimit: 10; fill: rgb(247,164,15); fill-rule: nonzero; opacity: 1;" transform=" matrix(1 0 0 1 0 0) "/>
	<rect x="15.68" y="69.65" rx="0" ry="0" width="58.65" height="8.83" style="stroke: none; stroke-width: 1; stroke-dasharray: none; stroke-linecap: butt; stroke-linejoin: miter; stroke-miterlimit: 10; fill: rgb(247,189,98); fill-rule: nonzero; opacity: 1;" transform=" matrix(1 0 0 1 0 0) "/>
	<rect x="15.68" y="78.48" rx="0" ry="0" width="58.65" height="8.83" style="stroke: none; stroke-width: 1; stroke-dasharray: none; stroke-linecap: butt; stroke-linejoin: miter; stroke-miterlimit: 10; fill: rgb(247,164,15); fill-rule: nonzero; opacity: 1;" transform=" matrix(1 0 0 1 0 0) "/>
	<path d="M 74.324 61.821 H 15.676 c -0.552 0 -1 -0.447 -1 -1 V 51.99 c 0 -0.553 0.448 -1 1 -1 h 58.648 c 0.553 0 1 0.447 1 1 v 8.831 C 75.324 61.374 74.877 61.821 74.324 61.821 z M 16.676 59.821 h 56.648 V 52.99 H 16.676 V 59.821 z" style="stroke: none; stroke-width: 1; stroke-dasharray: none; stroke-linecap: butt; stroke-linejoin: miter; stroke-miterlimit: 10; fill: rgb(0,0,0); fill-rule: nonzero; opacity: 1;" transform=" matrix(1 0 0 1 0 0) " stroke-linecap="round" />
	<path d="M 74.324 70.652 H 15.676 c -0.552 0 -1 -0.447 -1 -1 v -8.831 c 0 -0.553 0.448 -1 1 -1 h 58.648 c 0.553 0 1 0.447 1 1 v 8.831 C 75.324 70.205 74.877 70.652 74.324 70.652 z M 16.676 68.652 h 56.648 v -6.831 H 16.676 V 68.652 z" style="stroke: none; stroke-width: 1; stroke-dasharray: none; stroke-linecap: butt; stroke-linejoin: miter; stroke-miterlimit: 10; fill: rgb(0,0,0); fill-rule: nonzero; opacity: 1;" transform=" matrix(1 0 0 1 0 0) " stroke-linecap="round" />
	<path d="M 74.324 79.483 H 15.676 c -0.552 0 -1 -0.447 -1 -1 v -8.831 c 0 -0.553 0.448 -1 1 -1 h 58.648 c 0.553 0 1 0.447 1 1 v 8.831 C 75.324 79.036 74.877 79.483 74.324 79.483 z M 16.676 77.483 h 56.648 v -6.831 H 16.676 V 77.483 z" style="stroke: none; stroke-width: 1; stroke-dasharray: none; stroke-linecap: butt; stroke-linejoin: miter; stroke-miterlimit: 10; fill: rgb(0,0,0); fill-rule: nonzero; opacity: 1;" transform=" matrix(1 0 0 1 0 0) " stroke-linecap="round" />
	<path d="M 74.324 88.314 H 15.676 c -0.552 0 -1 -0.447 -1 -1 v -8.831 c 0 -0.553 0.448 -1 1 -1 h 58.648 c 0.553 0 1 0.447 1 1 v 8.831 C 75.324 87.867 74.877 88.314 74.324 88.314 z M 16.676 86.314 h 56.648 v -6.831 H 16.676 V 86.314 z" style="stroke: none; stroke-width: 1; stroke-dasharray: none; stroke-linecap: butt; stroke-linejoin: miter; stroke-miterlimit: 10; fill: rgb(0,0,0); fill-rule: nonzero; opacity: 1;" transform=" matrix(1 0 0 1 0 0) " stroke-linecap="round" />
</g>
</svg>