<svg xmlns="http://www.w3.org/2000/svg" xmlns:xlink="http://www.w3.org/1999/xlink" version="1.1" width="256" height="256" viewBox="0 0 256 256" xml:space="preserve">

<defs>
</defs>
<g style="stroke: none; stroke-width: 0; stroke-dasharray: none; stroke-linecap: butt; stroke-linejoin: miter; stroke-miterlimit: 10; fill: none; fill-rule: nonzero; opacity: 1;" transform="translate(1.4065934065934016 1.4065934065934016) scale(2.81 2.81)" >
	<path d="M 59.095 27.918 c 0 -7.784 -6.311 -14.095 -14.095 -14.095 s -14.095 6.311 -14.095 14.095 H 59.095" style="stroke: none; stroke-width: 1; stroke-dasharray: none; stroke-linecap: butt; stroke-linejoin: miter; stroke-miterlimit: 10; fill: rgb(253,182,47); fill-rule: nonzero; opacity: 1;" transform=" matrix(1 0 0 1 0 0) " stroke-linecap="round" />
	<polygon points="85.45,68.17 4.55,68.17 17.33,36.06 72.67,36.06 " style="stroke: none; stroke-width: 1; stroke-dasharray: none; stroke-linecap: butt; stroke-linejoin: miter; stroke-miterlimit: 10; fill: rgb(67,152,209); fill-rule: nonzero; opacity: 1;" transform="  matrix(1 0 0 1 0 0) "/>
	<rect x="38.55" y="75.11" rx="0" ry="0" width="12.89" height="6.95" style="stroke: none; stroke-width: 1; stroke-dasharray: none; stroke-linecap: butt; stroke-linejoin: miter; stroke-miterlimit: 10; fill: rgb(178,178,178); fill-rule: nonzero; opacity: 1;" transform=" matrix(1 0 0 1 0 0) "/>
	<path d="M 57.838 89 H 32.162 v -4.129 c 0 -1.555 1.261 -2.816 2.816 -2.816 h 20.045 c 1.555 0 2.816 1.261 2.816 2.816 V 89 z" style="stroke: none; stroke-width: 1; stroke-dasharray: none; stroke-linecap: butt; stroke-linejoin: miter; stroke-miterlimit: 10; fill: rgb(209,209,209); fill-rule: nonzero; opacity: 1;" transform=" matrix(1 0 0 1 0 0) " stroke-linecap="round" />
	<rect x="4.55" y="68.17" rx="0" ry="0" width="80.91" height="6.95" style="stroke: none; stroke-width: 1; stroke-dasharray: none; stroke-linecap: butt; stroke-linejoin: miter; stroke-miterlimit: 10; fill: rgb(209,209,209); fill-rule: nonzero; opacity: 1;" transform=" matrix(1 0 0 1 0 0) "/>
	<path d="M 85.454 69.166 H 4.545 c -0.332 0 -0.642 -0.164 -0.828 -0.438 s -0.224 -0.623 -0.102 -0.932 l 12.783 -32.105 c 0.151 -0.38 0.52 -0.63 0.929 -0.63 h 55.343 c 0.409 0 0.777 0.25 0.929 0.63 l 12.782 32.105 c 0.123 0.309 0.085 0.657 -0.102 0.932 C 86.096 69.002 85.785 69.166 85.454 69.166 z M 6.02 67.166 h 77.959 L 71.994 37.061 H 18.007 L 6.02 67.166 z" style="stroke: none; stroke-width: 1; stroke-dasharray: none; stroke-linecap: butt; stroke-linejoin: miter; stroke-miterlimit: 10; fill: rgb(0,0,0); fill-rule: nonzero; opacity: 1;" transform=" matrix(1 0 0 1 0 0) " stroke-linecap="round" />
	<path d="M 45 69.166 c -0.552 0 -1 -0.447 -1 -1 V 36.061 c 0 -0.552 0.448 -1 1 -1 s 1 0.448 1 1 v 32.105 C 46 68.719 45.552 69.166 45 69.166 z" style="stroke: none; stroke-width: 1; stroke-dasharray: none; stroke-linecap: butt; stroke-linejoin: miter; stroke-miterlimit: 10; fill: rgb(0,0,0); fill-rule: nonzero; opacity: 1;" transform=" matrix(1 0 0 1 0 0) " stroke-linecap="round" />
	<path d="M 24.548 69.166 c -0.064 0 -0.13 -0.006 -0.196 -0.02 c -0.542 -0.107 -0.893 -0.634 -0.786 -1.176 l 6.392 -32.105 c 0.107 -0.541 0.633 -0.892 1.176 -0.786 c 0.542 0.108 0.893 0.635 0.786 1.176 l -6.392 32.105 C 25.434 68.837 25.016 69.166 24.548 69.166 z" style="stroke: none; stroke-width: 1; stroke-dasharray: none; stroke-linecap: butt; stroke-linejoin: miter; stroke-miterlimit: 10; fill: rgb(0,0,0); fill-rule: nonzero; opacity: 1;" transform=" matrix(1 0 0 1 0 0) " stroke-linecap="round" />
	<path d="M 65.451 69.166 c -0.468 0 -0.885 -0.329 -0.979 -0.805 l -6.391 -32.105 c -0.108 -0.542 0.243 -1.068 0.785 -1.176 c 0.547 -0.104 1.067 0.244 1.176 0.786 l 6.391 32.105 c 0.108 0.542 -0.243 1.068 -0.785 1.176 C 65.581 69.16 65.516 69.166 65.451 69.166 z" style="stroke: none; stroke-width: 1; stroke-dasharray: none; stroke-linecap: butt; stroke-linejoin: miter; stroke-miterlimit: 10; fill: rgb(0,0,0); fill-rule: nonzero; opacity: 1;" transform=" matrix(1 0 0 1 0 0) " stroke-linecap="round" />
	<path d="M 79.063 53.113 H 10.937 c -0.552 0 -1 -0.447 -1 -1 s 0.448 -1 1 -1 h 68.125 c 0.553 0 1 0.447 1 1 S 79.615 53.113 79.063 53.113 z" style="stroke: none; stroke-width: 1; stroke-dasharray: none; stroke-linecap: butt; stroke-linejoin: miter; stroke-miterlimit: 10; fill: rgb(0,0,0); fill-rule: nonzero; opacity: 1;" transform=" matrix(1 0 0 1 0 0) " stroke-linecap="round" />
	<path d="M 59.095 28.918 h -28.19 c -0.552 0 -1 -0.448 -1 -1 c 0 -8.324 6.771 -15.095 15.095 -15.095 c 8.323 0 15.095 6.771 15.095 15.095 C 60.095 28.471 59.647 28.918 59.095 28.918 z M 31.942 26.918 h 26.114 C 57.545 20.163 51.884 14.823 45 14.823 C 38.116 14.823 32.455 20.163 31.942 26.918 z" style="stroke: none; stroke-width: 1; stroke-dasharray: none; stroke-linecap: butt; stroke-linejoin: miter; stroke-miterlimit: 10; fill: rgb(0,0,0); fill-rule: nonzero; opacity: 1;" transform=" matrix(1 0 0 1 0 0) " stroke-linecap="round" />
	<path d="M 71.918 28.918 h -6.639 c -0.553 0 -1 -0.448 -1 -1 s 0.447 -1 1 -1 h 6.639 c 0.553 0 1 0.448 1 1 S 72.471 28.918 71.918 28.918 z" style="stroke: none; stroke-width: 1; stroke-dasharray: none; stroke-linecap: butt; stroke-linejoin: miter; stroke-miterlimit: 10; fill: rgb(0,0,0); fill-rule: nonzero; opacity: 1;" transform=" matrix(1 0 0 1 0 0) " stroke-linecap="round" />
	<path d="M 24.721 28.918 h -6.639 c -0.552 0 -1 -0.448 -1 -1 s 0.448 -1 1 -1 h 6.639 c 0.552 0 1 0.448 1 1 S 25.273 28.918 24.721 28.918 z" style="stroke: none; stroke-width: 1; stroke-dasharray: none; stroke-linecap: butt; stroke-linejoin: miter; stroke-miterlimit: 10; fill: rgb(0,0,0); fill-rule: nonzero; opacity: 1;" transform=" matrix(1 0 0 1 0 0) " stroke-linecap="round" />
	<path d="M 45 8.639 c -0.552 0 -1 -0.448 -1 -1 V 1 c 0 -0.552 0.448 -1 1 -1 s 1 0.448 1 1 v 6.639 C 46 8.191 45.552 8.639 45 8.639 z" style="stroke: none; stroke-width: 1; stroke-dasharray: none; stroke-linecap: butt; stroke-linejoin: miter; stroke-miterlimit: 10; fill: rgb(0,0,0); fill-rule: nonzero; opacity: 1;" transform=" matrix(1 0 0 1 0 0) " stroke-linecap="round" />
	<path d="M 59.34 14.579 c -0.256 0 -0.512 -0.098 -0.707 -0.293 c -0.391 -0.391 -0.391 -1.023 0 -1.414 l 4.694 -4.694 c 0.391 -0.391 1.023 -0.391 1.414 0 s 0.391 1.023 0 1.414 l -4.694 4.694 C 59.852 14.481 59.596 14.579 59.34 14.579 z" style="stroke: none; stroke-width: 1; stroke-dasharray: none; stroke-linecap: butt; stroke-linejoin: miter; stroke-miterlimit: 10; fill: rgb(0,0,0); fill-rule: nonzero; opacity: 1;" transform=" matrix(1 0 0 1 0 0) " stroke-linecap="round" />
	<path d="M 30.661 14.579 c -0.256 0 -0.512 -0.098 -0.707 -0.293 l -4.695 -4.694 c -0.391 -0.391 -0.391 -1.023 0 -1.414 s 1.023 -0.391 1.414 0 l 4.695 4.694 c 0.391 0.391 0.391 1.023 0 1.414 C 31.172 14.481 30.917 14.579 30.661 14.579 z" style="stroke: none; stroke-width: 1; stroke-dasharray: none; stroke-linecap: butt; stroke-linejoin: miter; stroke-miterlimit: 10; fill: rgb(0,0,0); fill-rule: nonzero; opacity: 1;" transform=" matrix(1 0 0 1 0 0) " stroke-linecap="round" />
	<path d="M 85.454 76.11 H 4.545 c -0.552 0 -1 -0.447 -1 -1 v -6.944 c 0 -0.553 0.448 -1 1 -1 h 80.909 c 0.553 0 1 0.447 1 1 v 6.944 C 86.454 75.663 86.007 76.11 85.454 76.11 z M 5.545 74.11 h 78.909 v -4.944 H 5.545 V 74.11 z" style="stroke: none; stroke-width: 1; stroke-dasharray: none; stroke-linecap: butt; stroke-linejoin: miter; stroke-miterlimit: 10; fill: rgb(0,0,0); fill-rule: nonzero; opacity: 1;" transform=" matrix(1 0 0 1 0 0) " stroke-linecap="round" />
	<path d="M 51.447 83.056 H 38.553 c -0.552 0 -1 -0.447 -1 -1 V 75.11 c 0 -0.553 0.448 -1 1 -1 h 12.894 c 0.553 0 1 0.447 1 1 v 6.945 C 52.447 82.608 52 83.056 51.447 83.056 z M 39.553 81.056 h 10.894 V 76.11 H 39.553 V 81.056 z" style="stroke: none; stroke-width: 1; stroke-dasharray: none; stroke-linecap: butt; stroke-linejoin: miter; stroke-miterlimit: 10; fill: rgb(0,0,0); fill-rule: nonzero; opacity: 1;" transform=" matrix(1 0 0 1 0 0) " stroke-linecap="round" />
	<path d="M 57.838 90 H 32.162 c -0.552 0 -1 -0.447 -1 -1 v -4.129 c 0 -2.104 1.712 -3.815 3.816 -3.815 h 20.045 c 2.104 0 3.815 1.712 3.815 3.815 V 89 C 58.838 89.553 58.391 90 57.838 90 z M 33.162 88 h 23.676 v -3.129 c 0 -1.001 -0.814 -1.815 -1.815 -1.815 H 34.978 c -1.001 0 -1.816 0.814 -1.816 1.815 V 88 z" style="stroke: none; stroke-width: 1; stroke-dasharray: none; stroke-linecap: butt; stroke-linejoin: miter; stroke-miterlimit: 10; fill: rgb(0,0,0); fill-rule: nonzero; opacity: 1;" transform=" matrix(1 0 0 1 0 0) " stroke-linecap="round" />
</g>
</svg>