<?xml version="1.0" standalone="no"?>
<!DOCTYPE svg PUBLIC "-//W3C//DTD SVG 20010904//EN"
 "http://www.w3.org/TR/2001/REC-SVG-20010904/DTD/svg10.dtd">
<svg version="1.0" xmlns="http://www.w3.org/2000/svg"
 width="1000.000000pt" height="1000.000000pt" viewBox="0 0 1000.000000 1000.000000"
 preserveAspectRatio="xMidYMid meet">

<g transform="translate(0.000000,1000.000000) scale(0.100000,-0.100000)"
fill="#000000" stroke="none">
<path d="M5635 9589 c-40 -6 -57 -16 -87 -47 -20 -22 -44 -62 -54 -91 -10 -28
-24 -51 -31 -51 -6 0 -14 -6 -17 -12 -4 -9 -5 -8 -5 2 3 37 -2 60 -11 60 -5 0
-10 -20 -10 -45 0 -25 3 -44 8 -44 33 6 39 -3 46 -63 9 -86 53 -152 111 -167
60 -15 198 -34 243 -33 21 0 22 -4 22 -84 0 -49 4 -84 10 -84 6 0 10 32 10 76
0 72 1 75 23 72 16 -2 22 -9 21 -26 0 -12 4 -21 10 -19 6 2 11 14 11 25 0 15
12 28 35 40 40 21 110 117 107 147 -2 15 5 21 26 23 19 2 27 9 27 23 0 10 -6
19 -14 19 -20 0 -24 9 -30 68 -10 104 -71 172 -154 172 -22 0 -44 5 -47 10 -4
6 -23 10 -43 10 -39 -1 -130 12 -147 21 -6 3 -32 2 -60 -2z m182 -191 c-3 -8
-6 -5 -6 6 -1 11 2 17 5 13 3 -3 4 -12 1 -19z m-130 -20 c-3 -8 -6 -5 -6 6 -1
11 2 17 5 13 3 -3 4 -12 1 -19z m-194 5 c-7 -2 -19 -2 -25 0 -7 3 -2 5 12 5
14 0 19 -2 13 -5z m70 -10 c-7 -2 -21 -2 -30 0 -10 3 -4 5 12 5 17 0 24 -2 18
-5z m170 -33 c-7 -28 -13 -25 -13 6 0 14 4 23 9 20 5 -3 7 -15 4 -26z m97 8
c0 -13 -10 -34 -21 -48 l-20 -25 16 33 c9 19 14 40 11 48 -3 8 -1 14 4 14 6 0
10 -10 10 -22z m76 -56 c-13 -13 -13 -10 -3 29 11 40 12 42 15 15 2 -16 -3
-35 -12 -44z m-212 26 c7 -5 4 -8 -6 -8 -12 0 -18 7 -17 23 0 15 2 17 6 7 3
-8 11 -18 17 -22z m306 -39 c-18 -43 -24 -28 -8 23 8 27 14 36 16 25 2 -10 -2
-32 -8 -48z"/>
<path d="M5335 9475 l-60 -13 63 -1 c34 -1 65 -1 70 -1 11 0 9 23 -3 25 -5 1
-37 -3 -70 -10z"/>
<path d="M4860 9260 c0 -140 4 -220 10 -220 6 0 10 80 10 220 0 140 -4 220
-10 220 -6 0 -10 -80 -10 -220z"/>
<path d="M5350 9438 c0 -4 -22 -8 -49 -8 -87 0 -79 -39 9 -48 46 -4 55 -2 76
21 13 14 24 28 24 30 0 3 -13 7 -30 9 -16 3 -30 1 -30 -4z m3 -35 c-7 -2 -19
-2 -25 0 -7 3 -2 5 12 5 14 0 19 -2 13 -5z"/>
<path d="M4930 9411 c5 -11 7 -28 4 -38 -5 -17 -5 -17 10 1 16 20 6 56 -15 56
-6 0 -6 -7 1 -19z"/>
<path d="M5080 9376 c0 -14 5 -26 10 -26 6 0 10 9 10 19 0 11 -4 23 -10 26 -6
4 -10 -5 -10 -19z"/>
<path d="M4010 9375 c-52 -7 -105 -14 -118 -14 l-22 -1 2 -207 c3 -190 5 -208
20 -208 10 0 18 -4 18 -8 0 -4 0 -11 0 -16 0 -5 -9 -11 -20 -14 -13 -3 -20
-14 -20 -31 0 -15 -8 -30 -21 -36 -31 -17 -20 -44 21 -50 27 -4 36 -10 38 -28
3 -18 -5 -26 -43 -42 -60 -26 -59 -51 3 -64 59 -12 56 -36 -8 -66 -27 -13 -50
-29 -50 -36 0 -17 32 -34 64 -34 56 0 43 -37 -24 -67 -75 -33 -68 -53 23 -69
48 -8 43 -23 -19 -54 -27 -14 -52 -29 -56 -35 -12 -17 12 -34 58 -41 58 -8 56
-31 -5 -61 -25 -13 -48 -26 -52 -30 -16 -16 10 -35 55 -40 67 -8 57 -48 -19
-73 -23 -8 -35 -18 -35 -30 0 -21 19 -30 66 -30 55 0 42 -41 -22 -69 -65 -29
-56 -61 17 -61 24 0 29 -4 29 -26 0 -20 -9 -29 -46 -45 -59 -27 -58 -53 4 -57
40 -3 43 -5 40 -30 -2 -21 -13 -32 -46 -47 -54 -25 -52 -48 3 -55 57 -7 58
-32 1 -72 l-46 -32 0 -93 c0 -77 -3 -93 -15 -93 -9 0 -20 10 -25 23 -8 21 -9
21 -9 -5 -1 -21 -6 -28 -20 -28 -18 0 -38 33 -33 53 2 5 -3 7 -10 5 -7 -3 -15
-15 -18 -28 -8 -32 -30 -38 -30 -8 0 21 -4 23 -47 23 -40 0 -49 -4 -60 -25 -6
-13 -21 -28 -32 -32 -27 -9 -27 -28 -1 -35 11 -3 20 -10 20 -15 0 -5 -9 -12
-20 -15 -27 -7 -27 -43 0 -43 13 0 22 -9 26 -27 4 -16 10 -32 15 -38 7 -10 9
-16 9 -32 0 -5 5 -1 10 7 6 10 10 11 10 3 0 -7 5 -13 10 -13 6 0 10 11 10 25
0 14 -4 25 -10 25 -5 0 -10 7 -10 15 0 8 5 15 10 15 6 0 10 7 10 15 0 8 7 15
15 15 22 0 18 -18 -7 -31 -20 -11 -20 -13 -5 -24 9 -7 17 -22 17 -34 0 -16 6
-21 25 -21 16 0 25 6 25 15 0 8 4 15 10 15 10 0 6 -12 -34 -102 l-26 -58 -89
0 c-62 0 -91 4 -94 13 -3 6 -6 2 -6 -9 -1 -21 3 -22 128 -25 131 -4 162 -12
126 -31 -19 -11 -19 -11 0 -18 21 -8 -197 -25 -231 -18 -10 2 -19 8 -20 13 0
6 -4 29 -8 53 -7 36 -11 42 -32 42 -31 0 -30 -14 1 -45 l24 -25 -59 0 -60 0 0
-45 0 -45 70 0 c57 0 70 3 70 16 0 13 14 15 103 11 56 -2 109 -6 117 -8 39
-11 40 -17 40 -179 l0 -159 -47 -3 c-27 -2 113 -5 311 -6 197 -1 363 -5 369
-9 6 -3 7 -1 3 5 -4 7 6 20 26 32 24 14 34 29 38 52 4 25 11 34 28 36 l22 3 1
232 c0 128 3 249 7 270 l7 38 22 -20 21 -20 7 26 6 26 23 -22 c17 -16 25 -18
34 -9 9 9 12 8 12 -5 0 -9 5 -17 10 -17 16 0 11 32 -7 46 -15 11 -16 16 -5 33
6 12 12 25 12 31 0 6 -52 10 -137 9 -118 0 -145 2 -185 20 -50 21 -62 45 -28
56 26 8 66 -13 51 -28 -6 -6 -11 -13 -11 -16 0 -7 288 -2 307 4 6 2 9 13 6 24
-5 20 -12 21 -154 21 -128 0 -148 2 -143 15 4 8 1 15 -5 15 -6 0 -11 -5 -11
-11 0 -6 -9 -9 -20 -7 -12 2 -21 6 -20 11 0 4 0 18 0 32 0 15 6 25 15 25 12 0
13 9 9 44 -6 42 -6 44 24 48 57 8 64 -1 66 -83 l1 -74 40 -1 c80 -1 75 -16 75
212 l0 204 -25 0 c-22 0 -25 4 -25 35 l0 34 158 4 157 3 -165 -1 -165 0 -6
-40 -6 -40 -2 43 c-1 43 -1 43 -33 37 -138 -23 -153 -23 -183 -6 -16 9 -31 27
-33 39 -3 19 1 22 31 22 80 0 89 29 20 62 -33 16 -49 30 -51 46 -3 19 1 22 30
22 37 0 78 23 65 36 -4 5 -29 20 -55 34 -57 30 -68 60 -23 60 41 0 84 17 79
32 -3 7 -27 24 -54 38 -63 32 -69 57 -17 65 82 13 85 30 14 70 -68 38 -74 52
-24 60 93 16 97 33 18 72 -63 31 -76 63 -26 63 75 0 82 34 14 70 -65 34 -68
56 -9 64 63 10 63 38 0 67 -35 17 -44 26 -42 43 2 16 11 22 36 24 41 4 53 29
24 51 -11 9 -22 27 -24 40 -4 34 -28 40 -28 7 0 -25 -2 -26 -65 -26 l-65 0 0
30 c0 20 5 30 15 30 9 0 15 9 15 25 0 21 5 25 31 25 28 0 31 -3 25 -24 -4 -18
-1 -25 15 -29 19 -5 21 -2 15 24 -5 26 -3 29 19 29 l25 0 -2 208 c-3 240 13
217 -138 197z m90 -59 c0 -14 -5 -28 -10 -31 -13 -8 -24 20 -16 40 9 24 26 17
26 -9z m-155 -6 c3 -5 1 -19 -6 -31 -10 -19 -13 -20 -20 -6 -16 27 10 64 26
37z m155 -199 c0 -23 -16 -36 -25 -21 -9 14 1 40 15 40 5 0 10 -9 10 -19z
m-150 -15 c0 -8 -7 -19 -15 -26 -13 -10 -15 -9 -15 12 0 14 3 28 6 31 9 9 24
-2 24 -17z m153 -252 c20 -4 37 -11 37 -15 0 -11 -103 -12 -151 -2 -33 7 -33
7 -9 14 33 9 76 10 123 3z m-28 -54 c8 -27 -1 -40 -30 -40 -36 0 -55 10 -55
29 0 25 9 31 46 31 24 0 34 -5 39 -20z m78 -89 c8 -8 -4 -11 -48 -11 -57 0
-58 0 -40 -20 24 -26 13 -50 -23 -50 -42 0 -60 24 -37 50 17 19 17 20 -3 20
-11 0 -29 3 -39 7 -16 6 -15 8 7 15 36 10 169 3 183 -11z m-10 -126 c35 -14 4
-25 -66 -24 -81 2 -141 12 -117 22 8 3 22 8 30 11 18 7 128 0 153 -9z m-63
-61 c0 -23 -3 -25 -37 -22 -31 2 -39 7 -41 26 -3 20 1 22 37 22 37 0 41 -2 41
-26z m59 -70 c17 -4 31 -10 31 -15 0 -11 -127 -12 -185 -2 -36 6 -38 7 -15 14
32 9 129 11 169 3z m-64 -59 c0 -29 -59 -34 -74 -6 -13 23 -1 31 44 28 23 -2
30 -7 30 -22z m97 -83 c9 -9 -12 -12 -89 -12 -112 0 -156 9 -113 22 37 11 189
3 202 -10z m-94 -34 c29 -29 0 -51 -52 -41 -27 6 -37 37 -13 46 22 10 53 7 65
-5z m85 -95 c33 -20 -94 -32 -172 -17 -38 8 -40 21 -3 27 30 5 163 -2 175 -10z
m-75 -60 c3 -21 -1 -23 -37 -23 -42 0 -57 11 -47 36 4 11 17 14 43 12 31 -2
39 -7 41 -25z m85 -82 c8 -8 -14 -11 -90 -11 -113 0 -161 10 -103 22 51 10
179 3 193 -11z m-83 -41 c8 -15 6 -21 -9 -30 -24 -12 -33 -13 -65 -1 -18 8
-23 15 -19 30 7 29 77 30 93 1z m70 -87 c27 -11 -38 -18 -121 -15 -84 4 -107
19 -36 24 49 4 135 -1 157 -9z m-79 -33 c10 -6 19 -20 19 -31 0 -18 -6 -20
-52 -17 -55 3 -68 16 -43 42 19 18 48 21 76 6z m73 -96 c34 -13 2 -24 -68 -24
-90 0 -143 9 -124 21 15 10 168 12 192 3z m-66 -43 c8 -5 12 -17 10 -27 -2
-14 -13 -20 -40 -22 -50 -4 -68 7 -57 36 6 17 16 22 41 22 18 0 39 -4 46 -9z
m41 -87 c58 -12 31 -24 -53 -24 -99 0 -143 12 -81 21 59 9 98 10 134 3z m-31
-61 c14 -23 14 -23 -36 -23 -41 0 -51 3 -55 20 -10 37 66 39 91 3z m156 -55
c11 -42 7 -55 -9 -34 -16 22 -20 56 -6 56 5 0 11 -10 15 -22z m-104 -28 c13
-9 13 -10 0 -11 -27 -2 -114 -2 -150 0 -29 2 -32 4 -15 11 28 12 147 12 165 0z
m-56 -46 c11 -29 6 -34 -37 -34 -50 0 -57 4 -50 31 7 25 78 28 87 3z m49 -81
c12 -11 -15 -33 -40 -33 -13 0 -22 -4 -19 -9 7 -10 -28 -21 -64 -20 -23 0 -23
1 -5 9 16 7 17 9 3 9 -21 1 -32 17 -24 36 4 11 23 15 74 15 38 0 72 -3 75 -7z
m-165 -33 c-2 -25 -7 -30 -28 -30 -24 0 -26 3 -22 30 3 24 9 30 28 30 21 0 24
-4 22 -30z m-363 -29 c7 -12 -12 -24 -25 -16 -11 7 -4 25 10 25 5 0 11 -4 15
-9z m355 -46 c0 -18 -5 -25 -20 -25 -15 0 -20 7 -20 25 0 18 5 25 20 25 15 0
20 -7 20 -25z m-232 -7 c-2 -13 -7 -23 -13 -23 -5 0 -11 10 -13 23 -2 15 2 22
13 22 11 0 15 -7 13 -22z m545 -44 c24 -9 -4 -114 -32 -114 -10 0 -12 9 -7 36
5 23 3 41 -5 51 -18 21 11 40 44 27z m-297 -34 c3 -36 -18 -80 -38 -80 -14 0
-18 8 -18 39 0 54 9 73 33 69 14 -2 21 -11 23 -28z m-237 -12 c-1 -18 -4 -44
-9 -58 -7 -24 -8 -24 -15 -5 -5 11 -13 23 -18 26 -5 4 -6 21 -2 38 5 22 12 31
26 31 15 0 19 -7 18 -32z m667 -11 c-2 -13 -8 -32 -14 -42 -10 -19 -11 -18
-22 7 -15 33 -7 58 19 58 14 0 19 -6 17 -23z"/>
<path d="M4934 9186 c0 -28 3 -33 13 -24 7 6 13 14 13 17 0 4 -6 15 -13 25
-12 16 -13 14 -13 -18z"/>
<path d="M5078 9170 c2 -16 9 -30 14 -30 13 0 6 53 -8 57 -7 2 -9 -8 -6 -27z"/>
<path d="M6043 9046 c1 -40 12 -47 22 -15 5 13 1 27 -8 36 -13 14 -15 11 -14
-21z"/>
<path d="M4900 9014 c0 -17 -6 -28 -20 -31 -13 -4 -20 -14 -20 -30 0 -14 -11
-34 -27 -47 -32 -28 -24 -44 28 -52 59 -10 52 -37 -19 -73 -55 -28 -53 -52 6
-64 33 -6 42 -13 42 -28 0 -15 -13 -26 -50 -42 -56 -23 -68 -53 -25 -62 14 -3
37 -7 51 -10 40 -9 25 -37 -34 -64 -71 -33 -71 -57 1 -68 69 -11 68 -30 -3
-65 -74 -36 -75 -60 -2 -72 73 -12 72 -37 -3 -71 -80 -35 -73 -59 20 -67 49
-5 40 -38 -20 -69 -63 -32 -64 -51 -5 -63 25 -5 48 -14 52 -20 11 -17 -10 -44
-46 -56 -74 -24 -69 -60 7 -60 36 0 38 -2 35 -27 -2 -22 -13 -33 -50 -51 -68
-32 -61 -62 12 -62 60 0 50 -46 -16 -78 -54 -27 -53 -46 4 -50 37 -3 42 -6 42
-27 0 -17 -13 -33 -45 -55 -52 -36 -51 -57 3 -62 32 -3 37 -6 37 -28 0 -19 -9
-30 -38 -45 -39 -21 -58 -58 -38 -78 9 -9 62 -11 206 -7 5 0 4 5 -3 12 -7 7
-12 20 -12 29 0 10 -6 20 -12 22 -27 11 170 13 199 2 17 -6 5 -33 -18 -40 -25
-8 -25 -25 0 -25 25 0 30 8 37 64 6 40 5 46 -10 40 -13 -5 -16 0 -16 25 0 37
29 45 31 9 1 -13 6 -2 11 23 9 44 8 47 -22 77 -36 37 -35 56 3 60 24 3 27 0
28 -30 1 -23 6 -12 15 37 8 39 13 77 10 85 -2 8 -4 2 -5 -14 -1 -26 -3 -28
-28 -21 -38 9 -53 23 -53 50 0 19 7 23 42 28 28 4 45 2 50 -6 5 -8 8 -4 8 9 0
24 16 40 45 46 11 2 20 10 20 18 0 21 -47 14 -64 -10 -13 -19 -14 -19 -55 2
-42 21 -56 34 -56 55 0 13 13 18 73 28 49 8 44 23 -19 55 -33 17 -50 32 -52
47 -3 19 3 22 49 30 29 4 54 14 57 21 2 7 -18 22 -51 36 -49 22 -67 40 -67 67
0 5 19 9 43 9 44 0 88 22 74 36 -4 5 -31 20 -60 34 -70 34 -74 56 -10 66 89
12 94 33 17 65 -46 20 -85 53 -72 63 2 2 28 7 58 12 82 13 76 33 -25 76 -38
17 -41 52 -5 56 55 6 70 13 70 31 0 14 -14 25 -45 37 -43 16 -74 48 -61 62 4
3 25 8 49 11 62 9 61 34 -2 66 -66 33 -69 58 -9 71 53 11 61 36 18 54 -23 10
-30 19 -30 40 0 16 -7 30 -15 34 -11 4 -15 -2 -15 -24 l0 -30 -69 0 -69 0 -5
38 c-2 20 -1 44 3 52 6 12 1 16 -26 17 -31 3 -34 0 -34 -23z m253 -113 c8 -8
-3 -11 -37 -11 -44 0 -47 -1 -41 -22 12 -38 11 -41 -16 -56 -24 -14 -30 -14
-63 2 -41 19 -46 38 -16 59 20 14 18 15 -22 22 -36 6 -40 8 -23 16 26 12 205
3 218 -10z m9 -133 c21 -12 19 -13 -30 -16 l-53 -3 3 -32 c2 -27 -1 -33 -19
-35 -13 -2 -23 -7 -23 -12 0 -4 -18 1 -40 11 -46 22 -49 32 -18 53 l22 16 -29
0 c-37 0 -67 16 -45 24 8 2 22 7 30 10 26 10 178 -2 202 -16z m8 -139 c24 -14
23 -14 -31 -17 l-57 -3 2 -32 1 -32 -52 0 c-29 1 -58 6 -63 11 -14 14 -2 44
19 45 18 1 10 4 -31 13 -32 7 -37 22 -10 30 36 10 197 0 222 -15z m-20 -130
c66 -14 55 -29 -23 -30 -34 0 -56 -3 -49 -6 18 -7 15 -43 -5 -50 -10 -4 -21
-10 -24 -15 -7 -10 -89 29 -89 43 0 5 10 14 23 19 18 7 19 9 4 9 -10 1 -28 6
-40 13 -21 11 -21 11 -2 19 30 11 147 10 205 -2z m40 -144 c24 -13 24 -13 -20
-20 -25 -4 -50 -6 -55 -5 -28 6 -34 0 -25 -24 12 -32 5 -36 -49 -35 -80 1
-106 29 -49 54 l33 13 -44 4 c-62 4 -65 26 -4 31 72 6 185 -4 213 -18z m-6
-137 c25 -11 26 -13 9 -19 -10 -4 -37 -8 -60 -8 -42 -1 -42 -2 -36 -31 5 -29
-2 -36 -31 -31 -5 1 -13 -4 -18 -11 -8 -10 -11 -10 -15 0 -2 6 -18 12 -34 12
-16 0 -29 2 -29 4 0 2 -3 11 -6 20 -4 11 2 19 17 25 22 8 22 9 -13 16 -43 8
-49 21 -15 35 29 13 196 4 231 -12z m4 -139 c35 -14 25 -18 -47 -21 -35 -1
-58 -4 -52 -6 6 -2 11 -16 11 -32 0 -23 -5 -29 -31 -34 -17 -3 -40 -1 -52 6
-12 6 -22 10 -22 8 0 -2 -10 0 -23 4 -22 7 -23 9 -6 27 9 10 24 20 33 20 9 1
-2 5 -23 8 -55 8 -58 29 -4 34 62 5 186 -3 216 -14z m5 -143 c32 -14 31 -14
-36 -15 -64 -1 -67 -2 -57 -20 22 -43 14 -51 -53 -51 -38 0 -71 6 -82 14 -17
12 -18 15 -3 30 9 9 25 17 35 17 10 1 0 5 -21 8 -55 8 -58 29 -4 34 73 6 188
-3 221 -17z m-12 -128 c58 -17 47 -28 -28 -28 -62 0 -65 -1 -51 -17 8 -10 14
-25 14 -33 -1 -20 -63 -30 -118 -19 -42 9 -46 12 -39 32 5 12 19 25 32 28 24
7 24 7 -3 8 -52 2 -78 24 -40 34 36 10 196 6 233 -5z m-18 -134 c58 -10 48
-34 -13 -34 -48 0 -50 -1 -39 -21 19 -37 -1 -42 -132 -36 -35 2 -36 2 -20 24
9 12 23 24 31 26 8 2 -2 7 -22 11 -43 9 -49 22 -15 29 36 7 169 7 210 1z m15
-149 c13 -12 -9 -20 -73 -25 l-20 -1 20 -9 c11 -5 16 -9 11 -9 -6 -1 -1 -7 9
-15 18 -13 17 -15 -21 -25 -41 -11 -130 -5 -139 9 -9 15 7 40 25 40 11 0 22 5
25 10 4 6 -10 10 -34 10 -51 0 -54 17 -3 23 44 6 193 0 200 -8z"/>
<path d="M5038 8333 c7 -3 16 -2 19 1 4 3 -2 6 -13 5 -11 0 -14 -3 -6 -6z"/>
<path d="M5880 8897 c0 -16 -7 -26 -20 -30 -13 -3 -20 -14 -20 -28 0 -13 -12
-33 -27 -44 -33 -27 -25 -40 27 -49 55 -9 50 -33 -13 -66 -58 -31 -58 -51 1
-63 57 -11 53 -34 -11 -67 -59 -31 -58 -51 3 -63 53 -11 52 -10 44 -31 -3 -9
-28 -26 -56 -38 -63 -27 -61 -49 5 -62 63 -11 61 -31 -8 -62 -79 -36 -74 -53
18 -70 51 -9 47 -29 -10 -57 -87 -40 -85 -56 8 -71 49 -9 42 -37 -14 -62 -23
-10 -45 -23 -49 -28 -13 -19 14 -36 54 -36 35 0 39 -2 36 -22 -2 -16 -17 -30
-45 -43 -38 -18 -60 -41 -49 -52 2 -3 23 -7 45 -10 23 -3 44 -9 46 -13 11 -18
-10 -43 -51 -61 -24 -10 -44 -23 -44 -28 0 -15 34 -31 64 -31 20 0 26 -5 26
-21 0 -26 -26 -48 -56 -49 -12 0 -32 -9 -45 -19 -22 -18 -24 -28 -29 -135 -3
-72 -1 -117 5 -119 5 -2 2 -11 -8 -21 -22 -22 -22 -25 3 -19 11 3 23 16 26 29
4 17 13 24 31 24 21 0 25 -4 21 -24 -7 -33 4 -36 124 -36 87 0 99 2 94 16 -19
50 -31 288 -13 277 7 -4 8 0 4 12 -7 16 -2 17 65 10 40 -3 76 -9 80 -12 18
-10 -6 -23 -43 -23 -36 0 -39 -2 -29 -19 16 -32 12 -41 -20 -41 -23 0 -30 -4
-30 -20 0 -17 7 -20 43 -20 90 0 118 -29 29 -31 -26 0 -40 -3 -32 -7 8 -4 16
-17 18 -28 2 -17 -4 -23 -28 -27 -31 -7 -42 -27 -15 -27 8 0 15 -8 15 -18 0
-20 18 -42 34 -42 6 0 6 4 -1 8 -7 4 -10 17 -7 28 4 16 11 20 32 16 55 -10 71
-42 20 -42 -51 0 -25 -11 34 -14 52 -3 55 -3 50 19 -3 17 -19 30 -53 44 -43
19 -49 25 -49 51 0 26 4 30 28 30 15 0 34 5 42 10 13 9 12 13 -9 28 -45 33
-72 63 -68 75 2 7 21 14 43 17 60 8 52 35 -19 60 -23 8 -28 15 -25 38 3 24 7
27 46 30 57 4 55 26 -5 55 -78 36 -68 76 20 77 43 0 33 27 -20 52 -32 15 -49
30 -51 44 -3 19 3 23 47 29 66 9 67 30 1 57 -40 17 -50 25 -50 44 0 19 5 24
28 24 83 1 95 32 23 62 -68 28 -81 68 -23 68 42 0 72 11 72 26 0 8 -25 25 -55
39 -41 18 -55 29 -55 44 0 18 6 21 44 21 56 0 78 22 44 44 -13 9 -38 21 -56
27 -24 8 -32 17 -32 34 0 21 5 24 42 27 63 4 63 31 1 60 -52 25 -67 60 -28 66
80 12 87 33 20 63 -35 16 -45 25 -45 44 0 20 5 24 37 27 47 4 57 32 19 49 -17
8 -26 20 -26 35 0 13 -4 26 -10 29 -6 4 -10 -5 -10 -19 0 -25 -2 -26 -68 -26
l-69 0 -9 48 c-7 38 -13 48 -31 50 -19 3 -23 -1 -23 -21z m231 -103 c10 -6 2
-10 -26 -14 -38 -5 -40 -7 -37 -36 3 -26 -1 -33 -21 -38 -29 -7 -85 2 -93 16
-3 5 2 20 10 33 15 23 15 25 -1 26 -10 1 -21 1 -25 0 -13 -2 -9 17 5 22 21 7
174 0 188 -9z m4 -128 c17 -12 14 -14 -27 -20 -43 -6 -44 -8 -40 -37 l4 -30
-55 2 c-57 2 -73 14 -56 40 14 23 11 29 -16 29 -26 0 -34 15 -12 23 28 12 184
7 202 -7z m-7 -122 c35 -10 20 -28 -26 -34 -33 -4 -40 -8 -32 -20 14 -23 -8
-40 -55 -40 -46 0 -69 17 -55 40 11 18 4 30 -21 30 -24 0 -25 17 -1 23 26 7
164 7 190 1z m31 -138 c12 -8 11 -11 -5 -17 -10 -4 -36 -8 -58 -8 -34 -1 -37
-3 -25 -17 21 -26 -14 -45 -65 -37 -44 7 -60 21 -46 39 13 14 2 24 -27 24 -27
0 -31 16 -5 24 28 8 216 1 231 -8z m-31 -122 c56 -7 53 -21 -6 -29 -43 -6 -48
-9 -47 -33 0 -31 -17 -37 -81 -27 -48 7 -58 27 -26 51 15 12 13 13 -20 14 -41
0 -51 17 -15 25 52 11 96 11 195 -1z m10 -129 c47 -9 35 -29 -19 -33 -44 -3
-45 -4 -41 -32 l4 -30 -66 0 c-59 0 -66 2 -66 20 0 10 8 23 17 29 14 8 11 11
-20 16 -21 4 -36 12 -34 19 6 20 135 26 225 11z m22 -140 c20 -12 -1 -25 -41
-25 -37 0 -39 -2 -33 -25 8 -33 -30 -49 -88 -36 -52 12 -64 24 -43 45 15 15
14 17 -14 22 -40 8 -40 22 2 27 42 7 204 0 217 -8z m1 -131 c17 -10 -10 -24
-47 -24 -28 0 -30 -2 -26 -30 4 -27 1 -30 -22 -30 -14 0 -26 -4 -26 -9 0 -11
-83 10 -92 24 -4 5 0 17 8 26 17 19 9 29 -23 29 -35 0 -28 18 10 23 43 7 204
0 218 -9z m-28 -120 c48 -9 43 -28 -9 -32 -38 -3 -40 -5 -36 -31 3 -24 -1 -30
-26 -39 -17 -6 -33 -7 -37 -4 -7 7 -12 8 -57 10 -33 2 -35 15 -8 42 19 19 19
19 -15 26 -40 7 -46 21 -12 27 36 7 159 7 200 1z m-283 -218 c0 -3 -4 -8 -10
-11 -5 -3 -10 -1 -10 4 0 6 5 11 10 11 6 0 10 -2 10 -4z m-19 -86 c14 0 19 -7
19 -30 0 -16 -4 -30 -10 -30 -10 0 -41 65 -39 84 1 6 3 3 6 -6 2 -10 13 -18
24 -18z"/>
<path d="M5998 8883 c12 -2 30 -2 40 0 9 3 -1 5 -23 4 -22 0 -30 -2 -17 -4z"/>
<path d="M5319 7797 c5 -5 21 -7 37 -5 27 3 26 4 -8 9 -22 3 -34 1 -29 -4z"/>
<path d="M5398 7803 c7 -3 16 -2 19 1 4 3 -2 6 -13 5 -11 0 -14 -3 -6 -6z"/>
<path d="M6703 7513 c-106 -108 -191 -198 -189 -200 2 -2 9 -1 17 2 23 9 392
395 377 395 -7 1 -100 -88 -205 -197z"/>
<path d="M5347 7362 c-7 -35 0 -40 18 -16 18 24 18 31 1 37 -9 4 -16 -4 -19
-21z"/>
<path d="M4558 7350 c-5 -35 20 -42 39 -11 10 17 9 18 -9 13 -17 -4 -20 -2
-15 11 4 10 3 17 -2 17 -5 0 -11 -13 -13 -30z"/>
<path d="M4628 7368 c-3 -7 2 -21 12 -30 16 -17 16 -16 12 12 -4 31 -16 39
-24 18z"/>
<path d="M5030 7355 c0 -14 5 -25 10 -25 6 0 10 11 10 25 0 14 -4 25 -10 25
-5 0 -10 -11 -10 -25z"/>
<path d="M5430 7345 c0 -11 11 -15 43 -15 44 1 37 11 -15 24 -21 5 -28 3 -28
-9z"/>
<path d="M6274 7335 c2 -24 7 -30 27 -30 17 0 25 6 27 23 2 15 -2 22 -12 22
-9 0 -16 -4 -16 -10 0 -17 -18 -11 -23 8 -3 9 -4 4 -3 -13z"/>
<path d="M6381 7315 c-1 -6 4 -16 11 -23 7 -7 8 -12 2 -12 -5 0 -15 5 -20 10
-7 7 -28 8 -52 4 -36 -6 -42 -10 -42 -30 0 -19 5 -24 25 -24 18 0 25 5 25 20
0 15 7 20 25 20 20 0 25 -5 25 -25 0 -18 -5 -25 -20 -25 -11 0 -20 -4 -20 -9
0 -5 9 -11 20 -14 25 -6 26 -24 3 -30 -15 -4 -16 -5 -2 -6 9 0 30 6 45 14 l29
15 -27 0 c-31 0 -47 17 -24 26 9 3 16 13 16 20 0 8 10 19 23 23 l22 9 -26 10
c-15 6 -29 17 -32 24 -3 7 -6 8 -6 3z"/>
<path d="M4650 7274 c0 -22 3 -25 23 -20 12 3 86 6 165 6 135 0 142 1 142 20
0 19 -7 20 -165 20 l-165 0 0 -26z m265 6 c-28 -12 -135 -12 -135 0 0 6 32 10
78 9 52 0 71 -3 57 -9z"/>
<path d="M5040 7293 c0 -5 59 -7 132 -5 73 2 129 0 125 -5 -5 -4 -65 -10 -135
-14 l-127 -6 165 -1 c159 -2 166 -1 167 18 2 19 -4 20 -163 20 -90 0 -164 -3
-164 -7z"/>
<path d="M5633 7293 c45 -12 7 -23 -90 -26 -98 -2 -94 -3 40 -5 141 -2 147 -1
147 18 0 18 -6 20 -57 19 -32 -1 -50 -3 -40 -6z"/>
<path d="M5780 7276 c0 -14 84 -26 183 -26 40 0 47 3 47 20 0 18 -7 20 -57 20
-41 0 -54 -3 -43 -10 11 -7 -3 -10 -47 -10 -36 0 -63 4 -63 10 0 6 -4 10 -10
10 -5 0 -10 -6 -10 -14z"/>
<path d="M6070 7283 c1 -21 19 -31 65 -37 53 -7 67 -2 78 27 6 15 -1 17 -68
17 -41 0 -75 -3 -75 -7z"/>
<path d="M4925 7210 c-7 -11 39 -25 54 -15 6 3 11 10 11 16 0 12 -57 12 -65
-1z"/>
<path d="M5363 7208 c4 -10 2 -18 -3 -18 -6 0 -10 -9 -10 -20 0 -11 5 -20 10
-20 6 0 10 -9 10 -21 0 -11 4 -18 9 -15 11 7 2 88 -12 101 -7 7 -8 4 -4 -7z"/>
<path d="M5623 7203 c9 -2 23 -2 30 0 6 3 -1 5 -18 5 -16 0 -22 -2 -12 -5z"/>
<path d="M5709 7200 c-7 -47 1 -63 28 -53 17 7 17 43 -1 43 -8 0 -17 6 -19 13
-4 8 -6 8 -8 -3z"/>
<path d="M6075 7201 c-10 -17 12 -22 80 -19 45 2 65 6 65 15 0 15 -135 19
-145 4z"/>
<path d="M6270 7195 c0 -18 8 -18 40 0 l25 14 -32 1 c-23 0 -33 -5 -33 -15z"/>
<path d="M4970 7131 c0 -6 5 -13 10 -16 6 -3 10 1 10 9 0 9 -4 16 -10 16 -5 0
-10 -4 -10 -9z"/>
<path d="M6011 7124 c0 -11 3 -14 6 -6 3 7 2 16 -1 19 -3 4 -6 -2 -5 -13z"/>
<path d="M4890 6960 c-17 -17 -18 -23 -8 -34 11 -12 15 -12 29 0 8 8 20 14 25
14 5 0 10 9 11 20 2 27 -30 27 -57 0z m30 -4 c0 -2 -8 -10 -17 -17 -16 -13
-17 -12 -4 4 13 16 21 21 21 13z"/>
<path d="M4963 6960 c1 -11 6 -20 11 -20 5 0 17 -6 25 -14 14 -12 18 -12 29 0
10 11 9 17 -8 34 -27 27 -59 27 -57 0z m48 -17 c13 -16 12 -17 -3 -4 -10 7
-18 15 -18 17 0 8 8 3 21 -13z"/>
<path d="M4850 6899 c-15 -27 2 -72 24 -63 18 7 18 60 0 75 -9 8 -16 5 -24
-12z m25 -23 c0 -15 -4 -21 -9 -16 -5 5 -6 16 -3 24 9 22 12 20 12 -8z"/>
<path d="M4920 6876 c0 -25 5 -46 10 -46 6 0 10 7 10 17 0 15 1 15 18 0 27
-25 30 -22 28 26 -1 40 -3 42 -33 45 -33 3 -33 3 -33 -42z m50 9 c0 -8 -7 -15
-15 -15 -8 0 -15 7 -15 15 0 8 7 15 15 15 8 0 15 -7 15 -15z"/>
<path d="M5033 6908 c-13 -18 -14 -60 -2 -52 6 3 9 15 6 25 -3 11 -1 16 5 13
5 -3 6 -20 3 -37 -6 -30 -5 -31 10 -13 18 24 19 36 1 59 -10 13 -15 14 -23 5z"/>
<path d="M6110 6830 c-6 -11 -17 -20 -25 -20 -21 0 -19 -43 3 -63 10 -10 25
-17 34 -17 23 0 48 34 48 66 0 51 -39 73 -60 34z m10 -52 c5 -14 9 -17 10 -8
0 13 1 13 10 0 13 -20 -5 -37 -23 -21 -18 14 -29 51 -16 51 5 0 14 -10 19 -22z"/>
<path d="M4883 6822 c-19 -12 13 -52 42 -52 18 0 23 5 22 20 -1 12 -8 20 -20
20 -12 0 -16 -4 -11 -12 5 -9 2 -9 -9 1 -18 15 -23 26 -7 16 6 -3 10 -1 10 4
0 13 -10 14 -27 3z"/>
<path d="M5000 6820 c0 -5 -8 -10 -18 -10 -11 0 -18 -8 -19 -20 -1 -15 4 -20
22 -20 29 0 61 40 42 52 -17 11 -27 10 -27 -2z m10 -15 c-7 -8 -17 -15 -23
-15 -6 0 -2 7 9 15 25 19 30 19 14 0z"/>
<path d="M4560 6675 c0 -33 4 -45 15 -45 8 0 15 7 15 17 0 15 1 15 18 0 26
-24 29 -22 30 28 l2 45 -40 0 -40 0 0 -45z m60 15 c0 -5 -7 -10 -15 -10 -8 0
-15 5 -15 10 0 6 7 10 15 10 8 0 15 -4 15 -10z"/>
<path d="M4654 6706 c-3 -8 -4 -27 -2 -43 3 -25 7 -28 38 -28 34 0 35 1 38 43
l3 42 -36 0 c-21 0 -38 -6 -41 -14z m56 -31 c0 -16 -6 -25 -15 -25 -9 0 -15 9
-15 25 0 16 6 25 15 25 9 0 15 -9 15 -25z"/>
<path d="M4740 6675 c0 -43 11 -58 26 -34 4 8 9 7 15 -2 7 -11 11 -10 23 6 14
18 15 18 16 3 0 -10 5 -18 10 -18 6 0 10 21 10 46 0 37 -3 45 -17 42 -9 -2
-20 -14 -24 -28 l-6 -25 -11 28 c-19 45 -42 35 -42 -18z"/>
<path d="M4865 6686 c-22 -53 -16 -73 13 -44 8 8 15 8 24 1 7 -6 33 -10 58 -9
39 1 45 4 48 24 3 17 -1 22 -20 21 -13 0 -17 -3 -10 -6 17 -7 15 -23 -3 -23
-9 0 -15 9 -15 25 0 20 5 25 25 25 14 0 25 5 25 10 0 6 -15 10 -34 10 -37 0
-53 -21 -40 -54 3 -9 2 -16 -3 -16 -5 0 -13 14 -18 32 -14 44 -33 46 -50 4z
m35 -10 c0 -3 -4 -8 -10 -11 -5 -3 -10 -1 -10 4 0 6 5 11 10 11 6 0 10 -2 10
-4z"/>
<path d="M5020 6674 c0 -32 4 -44 13 -41 6 2 11 11 9 21 -4 23 15 20 23 -5 11
-33 30 -16 33 30 2 32 0 42 -10 39 -7 -3 -12 -12 -10 -22 4 -23 -15 -20 -23 4
-3 11 -13 20 -21 20 -10 0 -14 -13 -14 -46z"/>
<path d="M5114 6706 c-3 -8 -4 -27 -2 -43 3 -25 7 -28 38 -28 34 0 35 1 35 40
0 38 -2 40 -33 43 -21 2 -34 -2 -38 -12z m56 -31 c0 -18 -5 -25 -20 -25 -15 0
-20 7 -20 25 0 18 5 25 20 25 15 0 20 -7 20 -25z"/>
<path d="M5200 6675 c0 -43 1 -45 29 -45 17 0 33 5 36 10 4 6 -5 10 -19 10
-23 0 -26 4 -26 35 0 19 -4 35 -10 35 -5 0 -10 -20 -10 -45z"/>
<path d="M5279 6716 c-3 -3 -3 -23 -1 -45 4 -38 7 -41 33 -41 16 0 29 5 29 10
0 6 -9 10 -20 10 -25 0 -26 17 -2 23 16 4 16 5 0 6 -25 1 -23 21 2 21 11 0 20
5 20 10 0 10 -52 14 -61 6z"/>
<path d="M6199 6653 c-8 -9 -9 -14 -2 -10 7 5 13 -1 16 -15 3 -17 5 -14 6 10
1 37 -1 39 -20 15z"/>
<path d="M6350 6504 c59 -8 140 -8 140 -1 0 4 -37 6 -82 6 -46 -1 -72 -3 -58
-5z"/>
<path d="M6518 6503 c6 -2 18 -2 25 0 6 3 1 5 -13 5 -14 0 -19 -2 -12 -5z"/>
<path d="M4400 6490 c-24 -8 -24 -8 7 -9 17 -1 35 4 38 9 7 11 -9 11 -45 0z"/>
<path d="M3488 6483 c6 -2 18 -2 25 0 6 3 1 5 -13 5 -14 0 -19 -2 -12 -5z"/>
<path d="M5009 6458 c-1 -7 0 -30 1 -52 1 -28 -2 -36 -10 -31 -10 6 -11 -13
-7 -81 4 -49 7 -1182 7 -2519 1 -1705 4 -2448 12 -2490 17 -97 39 -168 48
-159 23 25 41 218 21 226 -5 2 -12 627 -15 1503 -3 825 -9 1770 -13 2100 -4
330 -6 708 -6 840 1 132 2 319 2 415 0 108 -4 191 -11 218 -12 40 -27 56 -29
30z"/>
<path d="M5260 6464 c0 -11 25 -54 31 -54 12 0 -2 -33 -20 -46 -8 -6 -23 -9
-34 -6 -18 5 -20 1 -15 -41 4 -35 2 -47 -7 -47 -8 0 -16 6 -18 13 -4 7 -6 8
-6 1 -1 -6 6 -17 14 -24 13 -11 15 -290 15 -2402 0 -1404 -4 -2387 -9 -2384
-14 9 -21 -21 -21 -91 0 -58 5 -74 41 -139 22 -40 53 -83 69 -94 l29 -21 25
39 c22 35 60 185 50 195 -3 2 -5 651 -7 1443 -1 1242 -2 1330 -7 639 -4 -687
-6 -562 -10 890 -3 930 -2 1695 2 1700 8 12 -25 257 -43 325 -8 27 -26 57 -46
76 -18 17 -33 30 -33 28z m15 -2026 c1 -992 -1 -1657 -4 -1478 -9 447 -13
3295 -5 3287 4 -4 8 -818 9 -1809z m66 1455 c13 -227 8 -4408 -6 -4422 -7 -7
-10 11 -10 52 0 34 -4 1077 -8 2317 -6 1610 -5 2250 3 2238 6 -10 15 -93 21
-185z m-64 -3730 c-1 -87 -3 -16 -3 157 0 173 2 244 3 158 2 -87 2 -229 0
-315z m0 -626 c-1 -84 -3 -12 -3 158 0 171 2 239 3 152 2 -87 2 -227 0 -310z"/>
<path d="M3199 6367 c-89 -66 -102 -80 -162 -178 -52 -84 -69 -124 -88 -200
l-24 -94 4 -690 c2 -379 4 -697 6 -705 2 -8 6 -472 9 -1030 8 -1271 12 -1480
33 -1590 8 -47 21 -92 27 -100 7 -9 3 -8 -10 3 -14 12 -27 44 -39 104 -14 66
-20 82 -27 67 -5 -13 -7 -6 -3 21 3 26 2 33 -4 20 -13 -33 -20 163 -27 775 -4
316 -9 577 -12 580 -2 3 -1 -292 2 -655 7 -659 7 -660 33 -782 25 -119 28
-125 90 -210 35 -48 78 -96 96 -107 17 -12 42 -32 54 -47 12 -14 40 -34 62
-44 23 -10 41 -21 41 -25 0 -4 -28 -18 -62 -30 -35 -13 -71 -30 -80 -38 -25
-21 -29 -78 -21 -256 l8 -159 140 -39 c77 -21 547 -149 1045 -284 498 -135
926 -252 953 -259 l47 -14 0 207 0 207 -78 18 c-196 46 -595 156 -606 167 -5
5 -1 7 10 5 10 -3 138 -32 284 -65 146 -33 276 -63 290 -66 94 -22 -122 60
-294 111 -48 14 -85 29 -82 32 3 3 -3 21 -15 39 l-20 33 28 3 c21 3 16 6 -22
11 -158 23 -185 29 -185 43 0 8 13 23 30 32 18 10 30 25 30 37 0 11 7 32 16
45 8 14 -1 7 -20 -15 -20 -22 -36 -43 -36 -47 0 -4 -19 -17 -41 -29 l-42 -21
-30 30 c-24 25 -36 53 -59 144 l-29 113 -9 595 c-14 880 -32 3770 -25 3880 7
105 41 334 55 365 32 72 57 145 50 145 -5 0 -13 -6 -17 -12 -4 -7 -27 -13 -49
-14 -61 -1 -146 -46 -178 -94 -17 -26 -37 -87 -59 -177 l-32 -138 0 -825 c0
-454 3 -1393 7 -2088 6 -850 5 -1302 -2 -1382 -19 -219 22 -415 102 -482 17
-15 29 -30 25 -34 -3 -3 -23 10 -44 30 -21 20 -41 36 -45 36 -4 0 -16 26 -28
58 -12 31 -28 71 -35 87 -30 66 -35 290 -50 1985 -8 949 -16 1874 -19 2055 -5
401 5 558 45 718 23 90 41 136 76 193 25 41 43 77 41 80 -3 2 -11 -2 -18 -11
-7 -8 -21 -15 -31 -15 -27 0 -124 -38 -151 -60 -27 -21 -78 -91 -82 -112 -1
-7 -17 -57 -34 -111 -21 -62 -36 -134 -42 -200 -7 -66 -8 -487 -3 -1182 8
-1119 9 -1308 4 -2480 -1 -423 2 -722 8 -756 5 -30 24 -86 41 -123 22 -46 29
-71 22 -78 -7 -7 -25 19 -55 77 -74 142 -75 165 -87 1400 -5 578 -15 1491 -21
2030 -13 1127 -11 1164 53 1355 24 71 50 130 70 155 18 22 48 60 67 85 l35 45
-37 -34 c-20 -19 -37 -32 -37 -28 0 13 -80 -23 -107 -47 -15 -14 -30 -23 -34
-20 -9 5 -57 -56 -49 -61 3 -2 -5 -14 -18 -28 -12 -13 -39 -64 -59 -113 -65
-159 -66 -188 -55 -1254 5 -514 7 -1434 3 -2045 -7 -1265 -7 -1259 60 -1378
41 -72 44 -82 30 -91 -5 -3 -32 34 -61 82 -92 155 -85 9 -111 2344 -26 2329
-29 2205 52 2398 45 104 55 121 126 193 43 44 69 75 58 69 -11 -6 -33 -25 -50
-42 -16 -17 -44 -37 -60 -44 -17 -8 -59 -39 -94 -71 -48 -45 -73 -80 -107
-147 -76 -151 -77 -170 -68 -1023 4 -401 9 -1335 10 -2075 2 -740 3 -1360 3
-1377 0 -18 5 -33 11 -33 7 0 9 -8 5 -20 -4 -14 8 -43 39 -95 25 -42 46 -80
46 -85 0 -25 -22 -3 -74 75 -53 80 -58 94 -76 193 -22 120 -24 181 -56 2781
-16 1289 -16 1360 1 1480 16 113 23 137 67 226 42 85 61 112 132 180 90 88 80
81 -69 -47 -89 -77 -106 -97 -152 -180 -47 -87 -52 -102 -68 -218 -14 -98 -16
-160 -11 -295 4 -118 19 -1643 17 -1745 0 -3 0 -454 1 -1003 1 -773 4 -1020
15 -1094 7 -54 12 -102 11 -108 -4 -14 72 -165 83 -165 4 0 6 -7 3 -15 -4 -11
-26 13 -70 75 -62 88 -65 94 -88 213 -24 117 -25 143 -31 667 -3 300 -10 840
-15 1200 -32 2170 -32 2185 -11 2321 19 115 24 132 77 227 50 90 65 110 133
164 74 60 125 105 91 81 -8 -5 -51 -38 -95 -73 -83 -65 -103 -89 -184 -226
-88 -146 -85 -97 -78 -1414 16 -2681 17 -2757 34 -2885 9 -66 23 -131 31 -145
10 -18 5 -15 -17 10 -40 44 -40 26 0 -28 17 -23 28 -42 26 -42 -3 0 -21 21
-40 48 -29 39 -39 68 -60 172 l-26 125 -21 1505 c-11 828 -23 1703 -26 1945
-6 412 -5 447 14 556 19 108 24 121 82 218 57 94 70 108 156 173 81 61 103 79
92 78 -2 0 -46 -33 -99 -73z m1164 -2552 c5 -1519 5 -1540 -4 -465 -5 619 -13
1521 -17 2005 -4 484 -5 885 -2 890 9 18 17 -816 23 -2430z m-368 1483 c0
-469 3 -1420 6 -2113 3 -693 4 -1165 3 -1050 -4 248 -34 3513 -35 3792 0 146
3 196 13 207 7 8 13 15 13 16 0 0 0 -384 0 -852z m-235 695 l-5 -148 -5 135
c-4 110 0 160 14 160 0 0 -1 -66 -4 -147z m477 -356 c8 -1677 24 -4138 27
-4171 3 -25 1 -35 -6 -28 -12 12 -16 291 -33 2706 -13 1790 -13 1986 8 1986 1
0 3 -222 4 -493z m140 -3879 c-1 -73 -3 -14 -3 132 0 146 2 205 3 133 2 -73 2
-193 0 -265z m-1440 150 c-3 -8 -6 -5 -6 6 -1 11 2 17 5 13 3 -3 4 -12 1 -19z
m1080 -330 c-1 -62 -3 -12 -3 112 0 124 2 174 3 113 2 -62 2 -164 0 -225z
m-1070 280 c-3 -8 -6 -5 -6 6 -1 11 2 17 5 13 3 -3 4 -12 1 -19z m10 -50 c-3
-8 -6 -5 -6 6 -1 11 2 17 5 13 3 -3 4 -12 1 -19z m840 -270 c-2 -13 -4 -3 -4
22 0 25 2 35 4 23 2 -13 2 -33 0 -45z m580 -110 c-2 -13 -4 -3 -4 22 0 25 2
35 4 23 2 -13 2 -33 0 -45z m44 -189 c-12 -10 -39 -21 -59 -25 -20 -4 -44 -10
-53 -15 -11 -6 -22 -2 -34 11 -19 21 -8 29 12 9 14 -14 65 1 113 35 39 27 56
13 21 -15z"/>
<path d="M4752 6409 c-5 -13 -17 -78 -27 -144 -10 -66 -21 -124 -25 -130 -12
-16 -20 -139 -25 -414 -3 -140 -7 -257 -10 -259 -2 -3 -5 -311 -5 -685 0 -374
-2 -683 -5 -685 -3 -3 -5 190 -5 429 0 239 -3 723 -7 1076 -6 590 -5 643 10
658 10 9 17 25 17 34 0 10 3 32 6 48 6 28 4 31 -28 36 -57 8 -96 -15 -122 -75
-24 -53 -43 -168 -29 -168 5 0 10 -577 12 -1283 2 -705 7 -1763 10 -2352 3
-588 5 -1072 4 -1074 -13 -21 -18 48 -20 262 -4 417 -23 3565 -24 3957 0 250
-4 356 -10 335 -7 -19 -6 -788 1 -2160 7 -1172 9 -2198 5 -2281 -9 -183 2
-247 46 -290 26 -25 32 -27 42 -14 17 21 68 56 95 64 12 4 29 14 37 22 13 14
15 12 16 -18 l2 -33 6 35 7 35 8 -50 c7 -46 32 -139 43 -158 11 -18 22 6 12
25 -6 12 -20 87 -30 167 -17 133 -20 268 -29 1496 -13 1792 -13 3139 0 3301 6
71 17 169 25 218 15 90 13 120 -3 75z m-172 -816 c0 -362 5 -1380 10 -2263 12
-2011 12 -1940 1 -1940 -4 0 -12 672 -16 1493 -4 820 -11 1909 -14 2420 -3
510 -4 932 -3 937 17 50 21 -76 22 -647z m77 -1535 c-3 -8 -6 -5 -6 6 -1 11 2
17 5 13 3 -3 4 -12 1 -19z"/>
<path d="M6061 6416 c-8 -9 -20 -16 -28 -16 -8 0 -12 -4 -8 -9 3 -6 -5 -15
-17 -22 -13 -7 -26 -16 -29 -21 -4 -6 -22 -3 -44 6 -49 21 -50 21 -27 -11 26
-38 34 -53 29 -53 -3 0 -24 29 -48 65 -45 67 -55 72 -73 40 -21 -38 -50 -57
-76 -50 -72 18 -81 18 -73 0 4 -13 3 -16 -5 -11 -15 9 -16 14 13 -69 20 -58
24 -64 25 -38 0 31 2 33 32 29 48 -5 46 18 37 -396 l-3 -175 -6 225 c-3 124
-7 -391 -8 -1145 -3 -1680 -12 -3195 -21 -3294 -3 -41 -11 -76 -16 -78 -7 -2
-8 27 -3 84 3 49 6 842 5 1763 l-2 1675 -5 -1525 -5 -1525 -3 1975 c-1 1129
-7 2020 -12 2079 -8 88 -7 108 5 121 8 9 13 19 10 21 -2 3 -14 52 -26 109 -27
128 -83 257 -105 239 -8 -6 -14 -18 -14 -25 0 -7 -12 -21 -26 -31 -21 -13 -30
-14 -45 -5 -24 16 -39 15 -35 0 18 -58 17 -68 -9 -68 -27 0 -34 -17 -11 -26 8
-3 12 -13 10 -22 -10 -51 -14 -566 -18 -2602 -2 -1235 -5 -2255 -6 -2268 -1
-13 8 -35 21 -48 30 -32 38 -76 12 -67 -12 4 -9 -4 11 -25 16 -17 45 -37 65
-43 20 -6 40 -15 46 -20 11 -11 105 78 105 101 0 8 5 22 11 30 8 11 9 6 7 -23
-5 -45 1 -49 85 -67 57 -13 57 -13 96 18 38 31 39 31 109 21 68 -10 72 -9 119
20 36 21 56 28 80 24 18 -3 46 0 62 5 25 9 73 1 278 -44 136 -31 252 -56 258
-57 6 -1 11 62 12 178 1 99 3 185 3 192 0 6 9 15 21 18 14 5 18 10 11 17 -6 6
-39 -6 -93 -35 -74 -39 -94 -46 -168 -51 -74 -6 -83 -5 -72 8 11 13 10 18 -3
31 -18 18 -19 38 -6 110 10 54 26 2024 17 2015 -4 -3 -7 -224 -9 -490 -4 -639
-7 -821 -16 -816 -4 2 -8 -24 -10 -58 -2 -33 -6 -137 -11 -231 -9 -186 -9
-184 -17 1104 -2 288 -6 526 -9 529 -3 3 -5 -13 -5 -36 0 -23 -4 -42 -10 -42
-6 0 -11 95 -12 263 -1 207 -3 163 -9 -213 -4 -261 -9 -799 -12 -1195 -6 -786
-6 -792 -64 -878 -17 -24 -34 -63 -38 -86 -4 -23 -11 -41 -16 -41 -5 0 -9 1
-9 3 0 1 7 57 15 122 8 66 14 136 14 155 l-1 35 -8 -30 c-4 -16 -9 620 -10
1415 -2 795 -5 1429 -6 1410 -2 -19 -6 -264 -8 -545 -4 -474 -11 -758 -21
-830 -2 -16 -4 -160 -4 -319 -1 -159 -3 -287 -5 -285 -7 7 -15 597 -18 1229
-1 327 -5 539 -8 470 -3 -75 -7 -111 -11 -90 -5 33 -6 32 -7 -12 -1 -29 3 -48
11 -51 10 -4 10 -6 0 -6 -10 -1 -13 -89 -13 -408 0 -223 -3 -403 -6 -400 -4 4
-6 563 -6 1243 0 679 -2 1234 -4 1231 -14 -14 -22 -699 -30 -2682 l-7 -1560
-25 -40 c-55 -87 -52 -120 -54 582 l-2 648 -7 -605 c-4 -333 -10 -631 -14
-663 -10 -78 -29 -88 -21 -11 4 33 8 338 9 679 3 551 2 567 -3 145 -3 -280 -8
369 -11 1585 -4 1133 -10 2082 -14 2109 -5 35 -4 47 4 42 17 -11 14 7 -21 120
-17 57 -29 107 -25 110 8 9 40 -24 33 -34 -3 -5 9 -51 25 -103 16 -52 34 -132
39 -179 l9 -85 -4 85 c-3 47 -8 107 -11 134 -6 39 -4 47 6 41 10 -6 12 1 7 36
l-5 44 21 -37 c12 -21 27 -36 34 -33 7 2 10 -2 7 -8 -2 -7 8 -39 24 -71 l28
-58 1 36 c1 20 -3 34 -7 31 -4 -3 -10 2 -14 10 -7 19 24 20 46 3 22 -18 56
-85 68 -133 8 -33 9 -28 4 33 -3 40 -12 92 -20 114 -20 57 -11 59 11 3 9 -26
19 -44 21 -42 4 4 -69 199 -86 229 -18 31 -11 34 14 6 13 -16 31 -48 41 -74 9
-25 19 -43 21 -41 2 2 -3 20 -11 40 -9 21 -11 37 -5 37 5 0 13 -12 16 -27 4
-16 19 -46 33 -68 14 -22 37 -62 51 -88 l27 -48 1 33 c0 18 -4 36 -11 40 -6 4
-9 9 -6 13 3 3 18 -4 33 -16 l28 -22 -22 43 c-12 23 -16 39 -10 35 6 -4 18 -1
26 6 8 6 16 10 18 8 11 -12 50 -98 57 -124 5 -21 7 -24 8 -9 1 12 -20 65 -45
119 -39 84 -44 102 -35 122 6 13 7 22 2 19 -8 -6 -37 20 -43 39 -2 6 -6 9 -9
8 -13 -4 -89 69 -83 79 5 7 2 8 -5 3 -9 -5 4 -25 46 -68 l58 -61 -59 52 c-53
46 -98 69 -82 43 4 -5 -14 -17 -38 -26 -33 -13 -43 -21 -39 -34 4 -13 3 -14
-5 -1 -6 8 -9 17 -7 21 3 3 -6 11 -18 18 -13 7 -30 24 -38 37 -14 22 -17 24
-28 10z m-321 -152 c0 -2 -9 0 -20 6 -11 6 -20 13 -20 16 0 2 9 0 20 -6 11 -6
20 -13 20 -16z m-218 -2446 c-2 -2150 -4 -2427 -17 -2422 -13 5 -15 252 -16
2108 0 1155 -3 2246 -5 2423 l-5 323 23 -2 23 -2 -3 -2428z m475 2395 c-3 -10
-5 -4 -5 12 0 17 2 24 5 18 2 -7 2 -21 0 -30z m-131 -113 c3 -14 15 -43 25
-65 12 -26 21 -79 27 -145 10 -132 -2 -4265 -13 -4303 -4 -15 -10 -27 -14 -27
-3 0 -8 982 -10 2183 -2 1200 -5 2184 -7 2186 -2 2 -4 -790 -4 -1760 0 -1853
-7 -2688 -21 -2704 -5 -5 -10 24 -10 70 -2 66 -3 73 -9 40 -4 -22 -8 1004 -8
2280 -2 2314 -2 2320 18 2295 11 -14 23 -36 26 -50z m-257 -9 c16 -48 16
-4587 0 -4628 -6 -15 -13 -23 -15 -18 -7 23 -14 1041 -20 2820 -5 1652 -4
1888 9 1875 8 -8 19 -30 26 -49z m325 -58 c3 -10 17 -63 31 -118 l26 -100 -2
-510 c-1 -280 -6 -518 -11 -527 -5 -10 -4 -19 2 -23 6 -4 8 -11 4 -16 -6 -11
-11 -207 -15 -579 -1 -140 -5 -291 -9 -335 -4 -44 -8 199 -9 540 -2 778 -9
1448 -15 1466 -4 12 -10 74 -20 192 -3 30 10 37 18 10z m-167 -435 c-2 -18 -4
-6 -4 27 0 33 2 48 4 33 2 -15 2 -42 0 -60z m0 -120 c-3 -7 -5 -2 -5 12 0 14
2 19 5 13 2 -7 2 -19 0 -25z m430 -1390 c-3 -8 -6 -5 -6 6 -1 11 2 17 5 13 3
-3 4 -12 1 -19z m0 -140 c-3 -8 -6 -5 -6 6 -1 11 2 17 5 13 3 -3 4 -12 1 -19z
m-240 -265 c-3 -10 -5 -4 -5 12 0 17 2 24 5 18 2 -7 2 -21 0 -30z m470 -83 c1
-11 -2 -18 -8 -15 -11 7 -12 35 -1 35 4 0 8 -9 9 -20z m-200 -1062 c-2 -13 -4
-5 -4 17 -1 22 1 32 4 23 2 -10 2 -28 0 -40z m393 -1063 c0 -3 -35 -21 -77
-41 -43 -20 -91 -43 -108 -52 -28 -14 -29 -14 -16 2 18 21 123 76 166 87 17 4
31 7 33 8 1 1 2 -1 2 -4z"/>
<path d="M3139 6393 c-13 -16 -12 -17 4 -4 9 7 17 15 17 17 0 8 -8 3 -21 -13z"/>
<path d="M3055 6334 l-30 -26 33 22 c17 12 32 23 32 26 0 7 -4 5 -35 -22z"/>
<path d="M4824 6336 c-3 -14 -4 -35 -1 -46 3 -11 1 -20 -3 -20 -5 0 -15 -26
-22 -57 -11 -47 -12 -431 -10 -2073 4 -2763 7 -2924 48 -2889 7 6 21 34 30 62
14 44 15 62 6 127 -11 74 -14 402 -28 3645 -3 699 -7 1272 -9 1274 -2 2 -7 -8
-11 -23z"/>
<path d="M2998 6288 c-8 -13 -24 -41 -37 -63 -26 -47 3 -10 37 47 24 40 24 54
0 16z"/>
<path d="M5753 6195 c0 -27 2 -38 4 -22 2 15 2 37 0 50 -2 12 -4 0 -4 -28z"/>
<path d="M2924 6168 c-4 -7 -14 -24 -22 -38 -14 -24 -13 -24 3 -5 20 24 37 55
31 55 -3 0 -8 -6 -12 -12z"/>
<path d="M5422 6085 c0 -16 2 -22 5 -12 2 9 2 23 0 30 -3 6 -5 -1 -5 -18z"/>
<path d="M2881 6084 c0 -11 3 -14 6 -6 3 7 2 16 -1 19 -3 4 -6 -2 -5 -13z"/>
<path d="M4472 6040 c0 -19 2 -27 5 -17 2 9 2 25 0 35 -3 9 -5 1 -5 -18z"/>
<path d="M2865 6015 c-3 -26 -4 -49 -2 -51 3 -3 8 16 12 41 3 26 4 49 2 51 -3
3 -8 -16 -12 -41z"/>
<path d="M5703 5960 c0 -25 2 -35 4 -22 2 12 2 32 0 45 -2 12 -4 2 -4 -23z"/>
<path d="M2852 5925 c0 -16 2 -22 5 -12 2 9 2 23 0 30 -3 6 -5 -1 -5 -18z"/>
<path d="M5382 5890 c0 -19 2 -27 5 -17 2 9 2 25 0 35 -3 9 -5 1 -5 -18z"/>
<path d="M6263 5875 c0 -22 2 -30 4 -17 2 12 2 30 0 40 -3 9 -5 -1 -4 -23z"/>
<path d="M6153 5865 c0 -22 2 -30 4 -17 2 12 2 30 0 40 -3 9 -5 -1 -4 -23z"/>
<path d="M2844 5665 c0 -126 2 -177 3 -112 2 65 2 168 0 230 -1 62 -3 9 -3
-118z"/>
<path d="M6401 5854 c0 -11 3 -14 6 -6 3 7 2 16 -1 19 -3 4 -6 -2 -5 -13z"/>
<path d="M5712 5815 c0 -16 2 -22 5 -12 2 9 2 23 0 30 -3 6 -5 -1 -5 -18z"/>
<path d="M6273 5745 c0 -44 2 -61 4 -37 2 23 2 59 0 80 -2 20 -4 1 -4 -43z"/>
<path d="M6271 5644 c0 -11 3 -14 6 -6 3 7 2 16 -1 19 -3 4 -6 -2 -5 -13z"/>
<path d="M2854 5020 c0 -173 2 -244 3 -157 2 86 2 228 0 315 -1 86 -3 15 -3
-158z"/>
<path d="M6402 5220 c0 -19 2 -27 5 -17 2 9 2 25 0 35 -3 9 -5 1 -5 -18z"/>
<path d="M6405 4785 c0 -220 1 -309 2 -197 2 112 2 292 0 400 -1 108 -2 17 -2
-203z"/>
<path d="M5712 4940 c0 -14 2 -19 5 -12 2 6 2 18 0 25 -3 6 -5 1 -5 -13z"/>
<path d="M6262 4660 c0 -19 2 -27 5 -17 2 9 2 25 0 35 -3 9 -5 1 -5 -18z"/>
<path d="M2863 4350 c0 -162 3 -441 6 -620 l7 -325 1 280 c0 154 -3 433 -6
620 l-7 340 -1 -295z"/>
<path d="M6181 4394 c0 -11 3 -14 6 -6 3 7 2 16 -1 19 -3 4 -6 -2 -5 -13z"/>
<path d="M6404 4280 c0 -58 1 -81 3 -52 2 28 2 76 0 105 -2 28 -3 5 -3 -53z"/>
<path d="M6181 4274 c0 -11 3 -14 6 -6 3 7 2 16 -1 19 -3 4 -6 -2 -5 -13z"/>
<path d="M6427 3885 c-4 -8 -2 -17 3 -20 6 -4 10 3 10 14 0 25 -6 27 -13 6z"/>
<path d="M6425 3730 c4 -6 11 -8 16 -5 14 9 11 15 -7 15 -8 0 -12 -5 -9 -10z"/>
<path d="M6501 3694 c0 -11 3 -14 6 -6 3 7 2 16 -1 19 -3 4 -6 -2 -5 -13z"/>
<path d="M6012 2820 c0 -14 2 -19 5 -12 2 6 2 18 0 25 -3 6 -5 1 -5 -13z"/>
<path d="M3854 2175 c0 -71 1 -99 3 -62 2 37 2 96 0 130 -2 34 -3 4 -3 -68z"/>
<path d="M6811 2112 c-12 -22 -16 -190 -4 -179 6 7 23 189 17 195 -1 2 -7 -5
-13 -16z"/>
<path d="M6501 1664 c0 -11 3 -14 6 -6 3 7 2 16 -1 19 -3 4 -6 -2 -5 -13z"/>
<path d="M6492 1600 c0 -14 2 -19 5 -12 2 6 2 18 0 25 -3 6 -5 1 -5 -13z"/>
<path d="M5225 960 c-3 -5 3 -10 14 -10 12 0 21 5 21 10 0 6 -6 10 -14 10 -8
0 -18 -4 -21 -10z"/>
</g>
</svg>
