<?xml version="1.0" encoding="UTF-8" standalone="no"?>
<svg
   version="1.0"
   width="247.000000pt"
   height="204.000000pt"
   viewBox="0 0 247.000000 204.000000"
   preserveAspectRatio="xMidYMid meet"
   id="svg7"
   sodipodi:docname="regu.svg"
   inkscape:version="1.4 (86a8ad7, 2024-10-11)"
   xmlns:inkscape="http://www.inkscape.org/namespaces/inkscape"
   xmlns:sodipodi="http://sodipodi.sourceforge.net/DTD/sodipodi-0.dtd"
   xmlns="http://www.w3.org/2000/svg"
   xmlns:svg="http://www.w3.org/2000/svg">
  <defs
     id="defs7" />
  <sodipodi:namedview
     id="namedview7"
     pagecolor="#ffffff"
     bordercolor="#000000"
     borderopacity="0.25"
     inkscape:showpageshadow="2"
     inkscape:pageopacity="0.0"
     inkscape:pagecheckerboard="0"
     inkscape:deskcolor="#d1d1d1"
     inkscape:document-units="pt"
     inkscape:zoom="2.8419118"
     inkscape:cx="164.50194"
     inkscape:cy="136"
     inkscape:window-width="1920"
     inkscape:window-height="991"
     inkscape:window-x="-9"
     inkscape:window-y="-9"
     inkscape:window-maximized="1"
     inkscape:current-layer="svg7" />
  <g
     transform="translate(0.000000,204.000000) scale(0.100000,-0.100000)"
     fill="#000000"
     stroke="none"
     id="g7">
    <path
       d="M833 2033 c-7 -3 -13 -11 -13 -20 0 -17 41 -14 47 3 4 13 -16 23 -34 17z"
       id="path1" />
    <path
       d="M1595 2030 c-8 -13 3 -30 20 -30 23 0 27 18 6 30 -13 7 -22 7 -26 0z"
       id="path2" />
    <path
       d="M793 1974 c-8 -3 -13 -24 -13 -50 0 -39 -3 -44 -22 -44 -33 0 -51 -14 -46 -36 3 -15 12 -19 40 -17 34 2 36 0 40 -31 4 -33 2 -34 -35 -40 -33 -6 -38 -10 -35 -29 2 -18 9 -22 41 -22 20 0 37 -4 37 -10 0 -5 3 -20 6 -31 5 -18 0 -23 -33 -31 -28 -6 -38 -14 -38 -28 0 -16 8 -21 37 -23 31 -3 39 -8 44 -28 4 -14 4 -28 0 -31 -3 -3 -45 -12 -93 -19 -111 -16 -123 -29 -123 -123 1 -80 14 -101 64 -101 l36 0 0 -611 c0 -379 4 -617 10 -629 20 -37 59 -40 525 -40 466 0 505 3 525 40 6 12 10 250 10 629 l0 611 34 0 c48 0 66 28 66 105 0 86 -13 101 -102 115 -133 21 -128 19 -128 50 0 26 4 29 38 32 30 2 38 7 40 26 3 16 -2 22 -16 22 -39 0 -52 11 -52 46 0 32 1 33 30 28 34 -7 62 10 53 31 -3 8 -20 17 -39 21 -31 6 -34 9 -34 41 0 35 1 35 34 29 24 -5 37 -2 46 9 18 22 -4 45 -43 45 -29 0 -30 1 -24 40 6 50 -11 62 -86 58 l-52 -3 -3 -37 c-3 -35 -5 -37 -40 -40 -29 -2 -38 -8 -40 -24 -3 -18 4 -23 33 -28 34 -7 36 -9 33 -39 -3 -29 -6 -32 -34 -29 -32 3 -61 -19 -50 -37 4 -6 23 -13 42 -17 32 -6 35 -9 32 -38 -3 -28 -6 -31 -34 -29 -43 4 -67 -23 -39 -43 10 -8 30 -14 43 -14 20 0 23 -4 20 -27 l-3 -27 -267 -1 -268 0 0 27 c0 21 5 28 19 28 32 0 51 11 51 30 0 22 -24 32 -56 24 -19 -5 -24 -2 -24 14 0 11 -3 27 -6 36 -5 12 0 16 18 16 35 0 63 23 54 45 -5 14 -14 16 -41 12 -24 -4 -35 -2 -35 6 0 7 -3 22 -6 33 -5 18 0 23 33 31 28 6 38 14 38 28 0 16 -7 20 -38 20 -39 0 -41 2 -49 60 -3 17 -12 20 -58 22 -30 1 -61 -1 -67 -3z m598 -484 c130 -9 342 -34 402 -46 25 -5 27 -9 27 -60 l0 -54 -585 0 -585 0 0 50 c0 43 3 52 23 59 35 13 243 41 373 50 173 12 195 12 345 1z m318 -224 c8 -9 10 -178 9 -607 l-3 -594 -480 0 -480 0 -3 595 c-2 541 -1 596 14 607 26 19 927 18 943 -1z"
       id="path3" />
    <path
       d="M849 1181 c-28 -28 -34 -52 -29 -111 10 -112 129 -124 158 -16 14 48 -1 106 -33 134 -35 30 -61 28 -96 -7z m68 -60 c3 -13 11 -17 25 -13 16 4 19 1 16 -14 -2 -10 -10 -19 -18 -19 -8 0 -21 -7 -27 -15 -12 -13 -14 -13 -25 1 -7 9 -19 14 -25 12 -15 -5 -28 21 -18 37 5 8 10 8 20 0 9 -8 14 -5 18 10 6 25 27 26 34 1z"
       id="path4" />
    <path
       d="M1200 1203 c-30 -11 -70 -57 -76 -88 -13 -72 43 -135 122 -135 28 0 44 8 70 34 28 28 34 41 34 78 0 24 -7 54 -16 66 -28 41 -89 61 -134 45z m28 -112 c-2 -25 -8 -37 -20 -39 -15 -3 -18 4 -18 36 0 44 6 53 27 45 9 -4 13 -17 11 -42z m57 3 c0 -28 -4 -39 -15 -39 -16 0 -26 45 -16 72 11 28 31 7 31 -33z m55 1 c0 -19 -20 -29 -32 -17 -8 8 -7 16 2 26 14 17 30 12 30 -9z m-166 6 c3 -5 -1 -15 -10 -22 -13 -10 -17 -10 -24 1 -5 8 -6 18 -4 22 7 11 31 10 38 -1z"
       id="path5" />
    <path
       d="M1534 1195 c-75 -52 -46 -215 38 -215 87 0 116 150 41 210 -30 24 -51 25 -79 5z m56 -82 c0 -12 3 -13 14 -4 10 9 16 8 26 -3 15 -20 3 -39 -21 -33 -12 3 -19 0 -19 -9 0 -17 -26 -18 -37 -1 -4 6 -15 12 -23 12 -8 0 -16 8 -18 18 -2 10 3 17 13 17 9 0 23 7 32 15 17 17 33 11 33 -12z"
       id="path6" />
    <path
       d="M1099 598 c-52 -67 -95 -126 -97 -130 -2 -4 44 -8 102 -8 58 0 106 -2 106 -5 0 -3 -22 -40 -48 -83 -99 -159 -98 -158 -76 -142 11 8 103 76 204 150 l184 135 -102 3 c-56 1 -102 5 -102 8 0 4 30 43 67 88 36 44 71 87 76 94 7 9 -15 12 -105 12 l-115 0 -94 -122z"
       id="path7" />
  </g>
  <path
     style="fill:#a0892c;stroke-width:0.351876"
     d="m 100.69445,233.05954 c -0.35197,-45.35919 -0.28056,-117.08753 0.12214,-122.67239 0.40456,-5.61077 0.87908,-7.11889 2.33836,-7.43173 4.80836,-1.03083 41.06885,-1.76186 73.48671,-1.48153 33.63273,0.29084 49.92492,0.91572 50.96389,1.95469 0.19063,0.19063 0.4773,1.5801 0.63704,3.08773 0.49852,4.70487 0.75621,64.76454 0.47941,111.73466 l -0.26491,44.95213 h -63.76437 -63.76437 z m 65.61526,-7.25046 c 12.45618,-9.14834 24.3498,-17.879 26.43026,-19.40148 2.08047,-1.52247 3.78267,-2.87257 3.78267,-3.00022 0,-0.12765 -5.42329,-0.42991 -12.05175,-0.6717 -12.31109,-0.44907 -14.69081,-0.62868 -14.69081,-1.10879 0,-0.44507 4.01592,-5.6389 11.4419,-14.79792 3.83673,-4.73213 7.13315,-8.80975 7.32538,-9.06138 0.24445,-0.31999 0.16983,-0.63728 -0.24828,-1.05563 -0.54323,-0.54355 -1.91972,-0.59812 -15.08668,-0.59812 h -14.4889 l -5.04825,6.5097 c -9.11042,11.74786 -20.13838,26.49788 -20.13838,26.93531 0,0.72451 1.50751,0.85088 14.40191,1.20727 6.85663,0.18951 12.59614,0.47411 12.75447,0.63243 0.35717,0.35717 -1.63963,3.85384 -9.38876,16.44104 -8.20983,13.33552 -8.90018,14.60284 -7.95468,14.60284 0.17176,0 10.50371,-7.48501 22.9599,-16.63335 z M 123.50841,140.797 c 3.15799,-1.43958 5.27201,-4.07128 6.70894,-8.35182 2.6756,-7.97049 -0.28061,-17.28767 -6.5715,-20.7116 -3.64367,-1.98314 -6.91453,-1.1034 -10.76451,2.89522 -3.4575,3.59098 -4.39598,7.15032 -3.70589,14.05511 0.62256,6.22917 2.66335,9.95467 6.50052,11.86681 2.25872,1.12557 5.66837,1.23278 7.83244,0.24628 z m 47.95395,-0.56327 c 1.02203,-0.55803 3.09875,-2.30675 4.61493,-3.88604 3.33935,-3.47834 3.95932,-4.98518 3.97411,-9.659 0.0171,-5.40199 -0.97401,-8.35578 -3.72766,-11.10942 -3.36924,-3.36924 -7.54429,-4.90792 -12.66436,-4.66734 -4.0839,0.1919 -5.48886,0.88826 -9.04277,4.48202 -4.26846,4.3163 -5.80699,8.436 -4.92741,13.19409 1.10111,5.95642 5.50545,10.60353 11.68538,12.3295 1.218,0.34017 3.02804,0.49395 5.06268,0.43013 2.71658,-0.0852 3.4311,-0.24361 5.0251,-1.11394 z m 42.49395,0.25 c 1.70504,-0.87416 4.05561,-3.34295 5.06306,-5.31771 2.40415,-4.71253 2.39783,-12.6332 -0.0139,-17.36051 -1.06132,-2.08034 -3.86812,-4.92023 -6.02887,-6.09992 -2.34207,-1.27869 -4.69072,-1.34711 -6.90037,-0.20102 -5.10553,2.64812 -7.74169,8.16796 -7.32922,15.34666 0.38346,6.67398 2.92181,11.6418 7.00855,13.71651 1.61089,0.8178 2.17078,0.92068 4.31426,0.79274 1.55118,-0.0926 2.9901,-0.4172 3.88645,-0.87675 z"
     id="path8"
     transform="scale(0.75)" />
</svg>
