<?xml version="1.0" standalone="no"?>
<!DOCTYPE svg PUBLIC "-//W3C//DTD SVG 20010904//EN"
 "http://www.w3.org/TR/2001/REC-SVG-20010904/DTD/svg10.dtd">
<svg version="1.0" xmlns="http://www.w3.org/2000/svg"
 width="970.000000pt" height="497.000000pt" viewBox="0 0 970.000000 497.000000"
 preserveAspectRatio="xMidYMid meet">

<g transform="translate(0.000000,497.000000) scale(0.100000,-0.100000)"
fill="#000000" stroke="none">
<path d="M0 4800 l0 -170 415 0 415 0 -2 -2177 -3 -2178 -21 -3 c-11 -2 -40
-22 -63 -46 -36 -36 -42 -49 -39 -77 l3 -34 302 -3 303 -2 0 43 c0 37 -6 48
-38 80 -21 20 -46 37 -55 37 -16 0 -17 131 -17 2180 l0 2180 323 0 323 0 11
-42 c15 -60 6 -118 -18 -118 -10 0 -19 -7 -19 -15 0 -8 9 -15 20 -15 26 0 26
-16 0 -23 -11 -3 -20 -10 -20 -17 0 -7 9 -14 20 -17 26 -7 26 -19 0 -26 -27
-7 -25 -25 3 -37 l22 -9 -22 -7 c-28 -8 -30 -34 -3 -34 26 0 26 -16 0 -23 -11
-3 -20 -10 -20 -17 0 -7 9 -14 20 -17 26 -7 26 -23 0 -23 -11 0 -20 -7 -20
-15 0 -8 9 -15 20 -15 11 0 20 -4 20 -9 0 -5 -9 -11 -20 -14 -11 -3 -20 -10
-20 -17 0 -7 9 -14 20 -17 11 -3 20 -9 20 -14 0 -5 -9 -9 -20 -9 -11 0 -20 -7
-20 -15 0 -8 9 -15 20 -15 26 0 26 -16 0 -23 -26 -7 -26 -27 0 -34 26 -7 26
-19 0 -26 -27 -7 -25 -25 3 -37 l22 -9 -22 -7 c-28 -8 -30 -34 -3 -34 26 0 26
-16 0 -23 -26 -7 -26 -27 0 -34 26 -7 26 -23 0 -23 -11 0 -20 -7 -20 -15 0 -8
9 -15 20 -15 26 0 26 -16 0 -23 -26 -7 -26 -27 0 -34 11 -3 20 -9 20 -14 0 -5
-9 -9 -20 -9 -27 0 -25 -26 3 -34 l22 -7 -23 -9 c-27 -11 -25 -32 4 -40 11 -3
20 -16 22 -30 2 -14 10 -36 19 -48 14 -22 16 -23 33 -7 10 9 21 32 24 51 5 25
12 34 26 34 27 0 25 29 -2 39 l-23 8 23 7 c27 9 29 36 2 36 -11 0 -20 5 -20
10 0 6 9 10 20 10 27 0 25 28 -2 40 l-23 9 23 7 c27 8 29 34 2 34 -26 0 -26
16 0 23 26 7 26 37 0 37 -11 0 -20 5 -20 10 0 6 9 10 20 10 27 0 25 26 -2 34
l-23 7 23 9 c27 12 29 40 2 40 -11 0 -20 5 -20 10 0 6 9 10 20 10 27 0 25 28
-2 40 l-23 9 23 7 c27 8 29 34 2 34 -11 0 -20 4 -20 9 0 5 9 11 20 14 27 7 25
25 -2 37 l-23 9 23 7 c27 8 29 34 2 34 -11 0 -20 4 -20 9 0 5 9 11 20 14 26 7
26 37 0 37 -11 0 -20 5 -20 10 0 6 9 10 20 10 27 0 25 26 -2 34 l-23 7 23 9
c27 12 29 40 2 40 -11 0 -20 5 -20 10 0 6 9 10 20 10 27 0 25 28 -2 40 l-23 9
23 7 c27 8 29 34 3 34 -24 0 -31 52 -16 118 l10 42 277 0 277 0 11 -40 c16
-59 8 -112 -18 -121 -29 -11 -28 -17 6 -31 26 -11 26 -12 5 -15 -13 -3 -23 -9
-23 -14 0 -5 0 -12 -1 -16 0 -5 10 -11 23 -14 23 -6 23 -6 -6 -18 -23 -9 -26
-14 -16 -26 7 -8 20 -15 29 -15 10 -1 6 -6 -12 -16 -28 -15 -29 -34 -1 -34 22
0 17 -17 -7 -23 -27 -7 -20 -30 12 -38 l24 -6 -27 -11 c-16 -6 -28 -14 -28
-17 0 -3 12 -11 28 -17 l27 -11 -25 -6 c-14 -4 -25 -13 -25 -21 0 -8 11 -17
25 -21 l25 -6 -28 -12 c-28 -11 -29 -31 -1 -31 20 0 18 -9 -8 -30 -24 -19 -24
-19 22 -33 10 -3 6 -8 -13 -16 -30 -12 -28 -27 7 -41 20 -8 20 -8 -7 -19 -34
-13 -34 -19 1 -33 l27 -11 -25 -6 c-14 -4 -25 -13 -25 -21 0 -8 11 -17 25 -21
l25 -6 -27 -11 c-16 -6 -28 -14 -28 -17 0 -3 12 -11 28 -17 l27 -11 -25 -6
c-14 -4 -25 -13 -25 -21 0 -8 11 -17 25 -21 l25 -6 -27 -11 c-35 -14 -35 -20
-1 -33 l27 -10 -23 -12 c-31 -15 -32 -31 -3 -35 14 -2 22 -10 22 -23 0 -25 27
-79 40 -79 13 0 40 54 40 79 0 13 8 21 23 23 30 4 28 30 -3 39 -14 4 -20 7
-14 8 5 1 19 7 30 15 18 14 18 15 -11 27 l-30 12 25 6 c14 4 25 13 25 21 0 8
-11 17 -25 21 l-25 6 28 11 c15 6 27 14 27 17 0 3 -12 11 -27 17 l-28 11 25 6
c14 4 25 13 25 21 0 8 -11 17 -25 21 l-25 6 28 11 c34 14 34 20 0 33 l-27 10
23 12 c31 15 32 31 4 35 -13 2 -23 7 -23 12 0 5 10 10 23 12 28 4 27 20 -4 35
l-23 12 27 10 c34 13 34 19 0 33 l-28 11 25 6 c14 4 25 13 25 21 0 8 -11 17
-25 21 l-25 6 28 11 c15 6 27 14 27 17 0 3 -12 11 -27 17 l-28 11 25 6 c31 9
33 35 3 39 -28 4 -31 22 -4 22 31 0 35 19 7 32 -26 11 -26 11 -5 22 29 15 29
30 2 34 -13 2 -23 7 -23 12 0 5 10 10 23 12 30 4 28 30 -3 39 l-25 6 28 11
c33 14 34 20 5 31 -26 9 -34 62 -18 121 l11 40 277 0 277 0 10 -42 c15 -66 8
-118 -16 -118 -26 0 -24 -26 4 -34 l22 -7 -22 -9 c-28 -12 -30 -40 -3 -40 11
0 20 -4 20 -10 0 -5 -9 -10 -20 -10 -27 0 -25 -28 3 -40 l22 -9 -22 -7 c-28
-8 -30 -34 -3 -34 11 0 20 -4 20 -10 0 -5 -9 -10 -20 -10 -27 0 -25 -28 3 -40
l22 -9 -22 -7 c-28 -8 -30 -34 -3 -34 11 0 20 -4 20 -9 0 -5 -9 -11 -20 -14
-11 -3 -20 -10 -20 -17 0 -7 9 -14 20 -17 11 -3 20 -9 20 -14 0 -5 -9 -9 -20
-9 -27 0 -25 -26 3 -34 l22 -7 -22 -9 c-28 -12 -30 -40 -3 -40 11 0 20 -4 20
-10 0 -5 -9 -10 -20 -10 -27 0 -25 -28 3 -40 l22 -9 -22 -7 c-28 -8 -30 -34
-3 -34 11 0 20 -4 20 -10 0 -5 -9 -10 -20 -10 -27 0 -25 -28 3 -40 l22 -9 -22
-7 c-13 -3 -23 -12 -23 -19 0 -7 10 -16 23 -19 l22 -7 -22 -9 c-28 -12 -30
-40 -3 -40 11 0 20 -4 20 -10 0 -5 -9 -10 -20 -10 -27 0 -25 -27 2 -36 l23 -7
-23 -8 c-27 -10 -29 -39 -4 -39 13 0 22 -12 30 -39 17 -55 36 -68 56 -39 9 12
16 33 16 45 0 16 8 27 25 33 31 12 32 28 3 40 l-23 9 23 7 c27 8 29 34 2 34
-11 0 -20 4 -20 9 0 5 9 11 20 14 11 3 20 10 20 17 0 7 -9 14 -20 17 -11 3
-20 9 -20 14 0 5 9 9 20 9 11 0 20 7 20 15 0 8 -9 15 -20 15 -26 0 -26 16 0
23 26 7 26 27 0 34 -11 3 -20 9 -20 14 0 5 9 9 20 9 27 0 25 26 -2 34 l-23 7
23 9 c27 12 29 30 2 37 -26 7 -26 19 0 26 11 3 20 10 20 17 0 7 -9 14 -20 17
-11 3 -20 9 -20 14 0 5 9 9 20 9 11 0 20 7 20 15 0 8 -9 15 -20 15 -11 0 -20
4 -20 9 0 5 9 11 20 14 11 3 20 10 20 17 0 7 -9 14 -20 17 -11 3 -20 9 -20 14
0 5 9 9 20 9 11 0 20 7 20 15 0 8 -9 15 -20 15 -26 0 -26 16 0 23 26 7 26 27
0 34 -11 3 -20 9 -20 14 0 5 9 9 20 9 27 0 25 26 -2 34 l-23 7 23 9 c27 12 29
30 2 37 -26 7 -26 19 0 26 26 7 26 27 0 34 -11 3 -20 9 -20 14 0 5 9 9 20 9
11 0 20 7 20 15 0 8 -9 15 -19 15 -24 0 -33 58 -18 118 l11 42 1787 0 1787 0
5 -29 c7 -33 -1 -73 -17 -83 -8 -6 -6 -11 4 -18 10 -6 11 -10 3 -10 -7 0 -13
-7 -13 -15 0 -8 6 -15 13 -15 8 0 8 -3 -2 -9 -12 -8 -12 -12 -2 -24 9 -12 9
-16 -1 -20 -10 -4 -10 -8 2 -16 13 -10 13 -12 0 -21 -13 -9 -13 -11 0 -20 10
-6 11 -10 3 -10 -7 0 -13 -7 -13 -15 0 -8 6 -15 13 -15 8 0 7 -4 -3 -10 -13
-9 -13 -11 0 -20 13 -9 13 -11 0 -20 -13 -9 -13 -11 0 -20 13 -9 13 -11 0 -20
-13 -9 -13 -11 0 -20 10 -6 11 -10 3 -10 -7 0 -13 -7 -13 -15 0 -8 6 -15 13
-15 8 0 7 -4 -3 -10 -13 -9 -13 -11 0 -20 13 -9 13 -11 0 -20 -13 -9 -13 -11
0 -20 10 -6 11 -10 3 -10 -7 0 -13 -7 -13 -15 0 -8 6 -15 13 -15 8 0 8 -3 -2
-9 -12 -8 -12 -12 -2 -24 9 -12 9 -16 -1 -20 -10 -4 -10 -8 2 -17 11 -9 12
-13 3 -17 -17 -6 -16 -23 1 -23 7 0 16 -13 20 -30 3 -18 12 -30 21 -30 9 0 18
12 22 30 3 17 12 30 19 30 17 0 18 16 2 24 -10 5 -10 7 0 12 18 8 15 24 -5 24
-17 1 -17 1 0 11 22 13 22 26 0 32 -17 4 -17 5 0 6 22 1 22 17 0 30 -17 10
-17 10 0 11 20 0 23 16 5 24 -10 5 -10 7 0 12 18 8 15 24 -5 24 -17 1 -17 1 0
11 22 13 22 26 -1 32 -16 4 -16 5 1 6 20 1 23 17 5 24 -10 4 -9 8 2 16 13 10
13 12 0 22 -11 8 -12 12 -2 16 17 7 15 21 -5 26 -17 4 -17 5 0 6 22 1 22 28
-1 34 -16 4 -16 5 1 6 22 1 22 10 0 27 -17 13 -17 13 0 14 9 0 17 5 17 10 0 6
-8 10 -17 10 -17 1 -17 1 0 11 9 5 17 14 17 19 0 5 -8 11 -17 13 -17 4 -17 5
0 6 22 1 22 17 -1 30 -16 10 -16 10 1 11 20 0 23 16 4 23 -13 5 -14 22 -9 87
2 19 9 20 191 20 l189 0 6 -34 c7 -35 0 -65 -18 -79 -8 -6 -7 -10 2 -14 10 -4
10 -8 1 -20 -10 -11 -10 -16 0 -23 11 -6 11 -8 0 -12 -12 -4 -12 -8 -1 -20 10
-13 10 -17 0 -21 -10 -4 -10 -8 2 -17 11 -9 12 -13 3 -17 -18 -7 -16 -21 5
-26 16 -4 16 -5 0 -6 -20 -1 -25 -31 -5 -31 8 0 7 -4 -3 -10 -13 -9 -13 -11 0
-20 13 -9 13 -11 0 -20 -13 -9 -13 -11 0 -21 11 -8 12 -12 3 -16 -18 -7 -16
-21 5 -26 16 -4 16 -5 0 -6 -20 -1 -25 -31 -5 -31 8 0 7 -4 -3 -10 -13 -9 -13
-11 0 -20 13 -9 13 -11 0 -21 -12 -8 -12 -12 -2 -16 10 -4 10 -8 1 -20 -10
-11 -10 -16 0 -23 11 -6 11 -8 0 -12 -12 -4 -12 -8 -1 -20 10 -13 10 -17 0
-21 -10 -4 -10 -8 2 -17 11 -9 12 -13 3 -17 -17 -6 -16 -23 1 -23 7 0 16 -13
19 -30 8 -40 36 -40 44 0 3 17 12 30 19 30 17 0 18 17 2 23 -10 4 -9 8 2 16
12 9 13 12 1 20 -9 6 -10 11 -2 15 16 10 13 24 -6 29 -17 4 -17 5 0 6 22 1 22
17 0 30 -17 10 -17 10 0 11 20 0 23 16 5 24 -10 5 -10 7 0 12 17 8 15 22 -5
27 -17 4 -17 5 0 6 22 1 22 28 -1 34 -16 4 -16 5 1 6 20 1 23 17 4 24 -9 4 -8
8 3 16 13 10 13 12 0 22 -11 8 -12 12 -2 16 17 7 15 21 -5 26 -17 4 -17 5 0 6
22 1 22 28 -1 34 -16 4 -16 5 1 6 20 1 23 17 5 24 -10 4 -9 8 2 16 12 9 13 12
1 20 -9 6 -10 11 -2 15 16 10 13 24 -7 29 -16 4 -16 5 1 6 9 0 17 5 17 11 0 5
-8 14 -17 19 -17 10 -17 10 0 11 20 0 23 16 4 23 -13 5 -14 22 -9 87 2 19 9
20 192 20 183 0 190 -1 192 -20 5 -65 4 -82 -8 -87 -20 -7 -17 -23 4 -23 16
-1 16 -1 0 -11 -10 -5 -18 -14 -18 -19 0 -5 8 -11 18 -13 16 -4 16 -5 0 -6
-20 -1 -24 -16 -7 -27 8 -4 7 -9 -2 -15 -12 -8 -11 -11 1 -20 11 -8 12 -12 3
-16 -18 -7 -16 -21 5 -26 16 -4 16 -5 0 -6 -23 -1 -23 -28 -1 -34 17 -4 17 -5
1 -6 -21 -1 -24 -17 -5 -24 9 -4 8 -8 -3 -16 -13 -10 -13 -12 0 -22 11 -8 12
-12 3 -16 -18 -7 -16 -21 5 -26 16 -4 16 -5 0 -6 -20 -1 -24 -16 -7 -27 8 -4
7 -9 -2 -15 -12 -8 -11 -11 1 -20 11 -8 12 -12 3 -16 -19 -7 -16 -23 5 -23 16
-1 16 -1 0 -11 -10 -5 -18 -14 -18 -19 0 -5 8 -11 18 -13 16 -4 16 -5 0 -6
-20 -1 -24 -16 -7 -27 8 -4 7 -9 -2 -15 -12 -8 -11 -11 1 -20 11 -8 12 -12 3
-16 -17 -6 -16 -23 1 -23 7 0 16 -13 19 -30 4 -18 13 -30 22 -30 9 0 18 12 21
30 4 17 13 30 20 30 17 0 18 17 2 23 -10 4 -9 8 2 16 12 9 13 12 1 20 -9 6
-10 11 -2 15 16 10 13 24 -6 29 -17 4 -17 5 0 6 19 1 23 16 6 27 -8 4 -7 9 2
15 12 8 11 11 -1 19 -13 9 -13 11 0 20 13 9 13 11 0 20 -10 6 -11 10 -2 10 19
0 14 28 -5 33 -17 4 -17 5 0 6 20 1 23 17 5 24 -10 4 -9 8 2 16 13 10 13 12 0
22 -11 8 -12 12 -2 16 17 7 15 21 -5 26 -17 4 -17 5 0 6 9 0 17 7 17 15 0 8
-8 17 -17 19 -17 4 -17 5 0 6 20 1 23 17 5 24 -10 4 -9 8 2 17 12 9 12 13 2
17 -10 4 -10 8 -1 20 10 12 10 16 -2 24 -10 6 -10 9 -1 9 6 0 12 7 12 15 0 8
-6 15 -12 15 -9 0 -8 4 2 10 10 7 11 12 4 18 -18 12 -25 43 -18 78 l6 34 319
0 319 0 0 -2180 c0 -2089 -1 -2180 -18 -2180 -10 0 -37 -19 -60 -43 -34 -35
-42 -50 -42 -80 l0 -37 305 0 305 0 0 37 c0 30 -8 45 -42 80 -23 24 -50 43
-60 43 -17 0 -18 91 -18 2180 l0 2180 415 0 415 0 0 170 0 170 -4850 0 -4850
0 0 -170z m460 126 c0 -2 -46 -24 -103 -50 l-102 -47 -105 50 -105 50 208 0
c114 1 207 -1 207 -3z m383 -48 l-103 -51 -102 51 -103 51 205 0 205 0 -102
-51z m487 1 l-105 -50 -102 47 c-57 26 -103 48 -103 50 0 2 93 4 208 3 l207 0
-105 -50z m560 36 c-14 -8 -61 -30 -105 -50 l-80 -36 -105 50 -105 50 210 0
c186 0 207 -1 185 -14z m495 7 c-6 -4 -51 -27 -102 -52 l-92 -43 -103 51 -103
51 205 0 c112 1 200 -3 195 -7z m395 -43 l-105 -50 -102 47 c-57 26 -103 48
-103 50 0 2 93 4 208 3 l207 0 -105 -50z m560 36 c-14 -8 -61 -30 -105 -50
l-80 -36 -105 50 -105 50 210 0 c186 0 207 -1 185 -14z m495 7 c-6 -4 -51 -27
-101 -51 l-91 -44 -104 51 -104 50 205 1 c112 1 200 -3 195 -7z m395 -43
l-105 -50 -102 47 c-57 26 -103 48 -103 50 0 2 93 4 208 3 l207 -1 -105 -49z
m481 -1 l-104 -50 -91 43 c-50 23 -95 46 -100 51 -6 4 82 8 195 7 l204 -1
-104 -50z m489 1 l-104 -50 -51 21 c-27 12 -75 34 -105 50 l-55 29 210 0 210
0 -105 -50z m580 48 c0 -2 -46 -25 -103 -51 l-103 -47 -104 50 -105 49 208 1
c114 1 207 -1 207 -2z m381 -49 l-104 -51 -91 44 c-50 24 -95 47 -100 51 -6 4
82 8 195 7 l204 -1 -104 -50z m489 1 l-105 -50 -80 36 c-151 68 -155 64 80 64
l210 0 -105 -50z m580 47 c0 -2 -46 -24 -103 -50 l-102 -47 -105 50 -105 50
208 0 c114 1 207 -1 207 -3z m383 -48 l-103 -51 -102 51 -103 51 205 0 205 0
-102 -51z m487 1 l-105 -50 -102 47 c-57 26 -103 48 -103 50 0 2 93 4 208 3
l207 0 -105 -50z m560 36 c-14 -8 -61 -30 -105 -50 l-80 -36 -105 50 -105 50
210 0 c186 0 207 -1 185 -14z m495 7 c-6 -4 -52 -28 -103 -51 l-93 -44 -102
51 -102 51 205 0 c112 1 200 -3 195 -7z m395 -43 l-105 -50 -102 47 c-57 26
-103 48 -103 50 0 2 93 4 208 3 l207 0 -105 -50z m-9074 -147 c-3 -3 -47 16
-98 40 l-93 46 95 44 95 45 3 -85 c2 -46 0 -87 -2 -90z m229 86 c5 -4 -167
-88 -180 -88 -3 0 -5 40 -5 89 l0 90 90 -43 c50 -24 92 -45 95 -48z m252 -85
c-3 -2 -47 16 -98 40 l-94 43 95 45 95 45 3 -84 c2 -47 1 -86 -1 -89z m226 88
c6 -6 -156 -91 -176 -91 -4 0 -7 40 -7 90 l0 89 88 -40 c48 -22 90 -44 95 -48z
m743 -89 c-3 -3 -47 16 -98 40 l-93 46 95 44 95 45 3 -85 c2 -46 0 -87 -2 -90z
m227 88 c6 -5 -161 -90 -178 -90 -3 0 -5 40 -5 89 l0 90 88 -41 c48 -22 91
-44 95 -48z m254 -87 c-2 -2 -46 16 -98 40 l-94 43 95 45 95 45 3 -84 c2 -47
1 -86 -1 -89z m216 95 c19 -10 13 -15 -64 -54 -46 -24 -90 -43 -96 -43 -10 -1
-13 23 -13 88 l0 90 76 -35 c42 -19 86 -40 97 -46z m753 -96 c-3 -3 -47 15
-98 40 l-93 46 95 44 95 44 3 -84 c2 -47 0 -87 -2 -90z m227 88 c6 -6 -159
-90 -177 -90 -3 0 -6 40 -6 89 l0 90 88 -41 c48 -22 91 -44 95 -48z m254 -87
c-2 -2 -46 16 -97 40 l-93 43 94 45 94 46 3 -85 c2 -46 1 -86 -1 -89z m226 88
c7 -7 -153 -91 -174 -91 -5 0 -9 40 -9 90 l0 89 88 -40 c48 -22 91 -44 95 -48z
m743 -88 c-2 -3 -46 15 -98 40 l-93 44 95 45 95 44 3 -84 c2 -47 1 -87 -2 -89z
m227 88 c6 -7 -156 -91 -176 -91 -4 0 -7 40 -7 89 l0 90 88 -41 c48 -22 90
-43 95 -47z m431 27 c32 -16 56 -31 53 -34 -8 -8 -168 -84 -178 -84 -5 0 -9
40 -9 89 l0 90 38 -16 c20 -8 63 -29 96 -45z m311 -116 c-3 -4 -47 15 -98 40
l-92 46 95 45 95 44 3 -85 c2 -46 0 -87 -3 -90z m232 85 c3 -3 -119 -61 -174
-84 -10 -4 -13 17 -13 86 l0 90 92 -44 c50 -25 93 -46 95 -48z m250 -84 c-3
-2 -47 16 -98 40 l-94 44 95 45 95 44 3 -84 c2 -47 1 -86 -1 -89z m226 88 c6
-7 -156 -91 -176 -91 -4 0 -7 40 -7 89 l0 90 88 -41 c48 -22 90 -43 95 -47z
m450 18 l48 -23 -92 -43 c-51 -24 -96 -43 -100 -43 -5 0 -9 40 -9 90 l0 90 53
-24 c28 -13 73 -34 100 -47z m293 -107 c-3 -3 -47 16 -98 40 l-93 46 95 44 95
45 3 -85 c2 -46 0 -87 -2 -90z m229 86 c4 -4 -105 -58 -172 -85 -10 -4 -13 17
-13 85 l0 91 90 -43 c50 -24 92 -45 95 -48z m252 -85 c-3 -2 -47 16 -98 40
l-94 43 95 45 95 45 3 -84 c2 -47 1 -86 -1 -89z m226 88 c6 -6 -156 -91 -176
-91 -4 0 -7 40 -7 90 l0 89 88 -40 c48 -22 90 -44 95 -48z m742 -89 c-3 -4
-47 15 -98 40 l-92 46 95 44 95 44 3 -84 c2 -47 0 -87 -3 -90z m230 86 c5 -4
-167 -88 -180 -88 -3 0 -5 40 -5 89 l0 90 90 -43 c50 -24 92 -45 95 -48z m252
-85 c-2 -2 -46 16 -98 40 l-94 43 95 45 95 45 3 -84 c2 -47 1 -86 -1 -89z
m226 88 c5 -5 -25 -24 -66 -44 -126 -59 -117 -63 -117 42 l0 90 88 -40 c48
-22 91 -44 95 -48z m-9260 37 l88 -42 -92 -43 c-50 -24 -96 -43 -100 -43 -5 0
-9 38 -9 85 0 61 4 85 12 85 7 0 52 -19 101 -42z m1307 -43 c0 -47 -4 -85 -9
-85 -4 0 -49 19 -100 43 l-92 43 88 42 c48 23 93 42 100 42 10 0 13 -23 13
-85z m145 43 l85 -42 -91 -43 c-51 -24 -96 -43 -100 -43 -5 0 -9 38 -9 85 0
69 3 85 15 85 8 0 53 -19 100 -42z m1305 -43 c0 -47 -4 -85 -9 -85 -12 0 -181
80 -181 86 0 7 162 83 178 84 9 0 12 -24 12 -85z m145 43 l85 -42 -91 -43
c-51 -24 -96 -43 -100 -43 -5 0 -9 38 -9 85 0 69 3 85 15 85 8 0 53 -19 100
-42z m1305 -43 c0 -47 -4 -85 -9 -85 -10 0 -170 76 -179 85 -6 6 157 84 176
85 9 0 12 -24 12 -85z m146 43 l87 -42 -93 -43 c-51 -24 -94 -43 -96 -43 -2 0
-4 38 -4 85 0 47 4 85 9 85 5 0 48 -19 97 -42z m814 -43 c0 -47 -2 -85 -4 -85
-2 0 -45 19 -96 43 l-93 43 84 41 c46 23 90 42 97 42 9 1 12 -22 12 -84z
m1450 -1 c0 -47 -4 -84 -8 -82 -5 2 -48 21 -96 43 l-87 39 83 43 c46 23 89 42
96 42 9 1 12 -23 12 -85z m1460 1 c0 -47 -3 -85 -7 -85 -5 0 -50 19 -102 42
l-93 43 88 42 c48 24 94 43 101 43 10 0 13 -21 13 -85z m145 43 l85 -42 -91
-43 c-51 -24 -96 -43 -100 -43 -5 0 -9 38 -9 85 0 69 3 85 15 85 8 0 53 -19
100 -42z m1305 -43 c0 -47 -4 -85 -9 -85 -4 0 -49 19 -100 43 l-92 43 88 42
c48 23 93 42 100 42 10 0 13 -23 13 -85z m-9309 -60 l94 -44 -195 0 -195 0 89
45 c49 24 95 44 101 44 7 0 54 -20 106 -45z m484 0 l90 -43 -195 0 -195 0 90
43 c50 24 97 44 105 44 8 0 56 -20 105 -44z m481 1 l89 -45 -195 0 -195 0 90
44 c50 24 97 44 106 44 8 1 56 -19 105 -43z m485 0 l94 -45 -195 0 -195 0 89
45 c49 24 95 44 102 44 6 0 54 -20 105 -44z m484 -1 l90 -43 -195 0 -195 0 90
43 c50 24 97 44 105 44 8 0 56 -20 105 -44z m486 0 l93 -45 -200 1 -199 0 90
44 c50 24 98 44 107 44 9 1 58 -19 109 -44z m480 1 l94 -45 -195 0 -195 0 89
45 c49 24 95 44 102 44 6 0 54 -20 105 -44z m484 0 l90 -44 -195 0 -195 -1 90
44 c50 24 97 44 105 44 8 0 56 -19 105 -43z m486 -1 l93 -45 -200 0 -199 0 90
44 c50 25 98 45 107 45 9 1 58 -19 109 -44z m480 1 l94 -45 -195 1 -195 0 90
44 c50 24 95 44 101 44 6 0 54 -20 105 -44z m484 0 l90 -44 -195 -1 -195 0 90
44 c50 24 97 44 105 44 8 0 56 -19 105 -43z m486 -1 l94 -45 -199 0 -200 0 90
44 c49 25 96 45 105 45 9 1 59 -19 110 -44z m484 0 l90 -43 -195 0 -195 0 90
43 c50 24 97 44 105 44 8 0 56 -20 105 -44z m481 1 l89 -45 -195 0 -195 0 90
44 c50 24 97 44 106 44 8 1 56 -19 105 -43z m485 -1 l94 -44 -195 0 -195 0 89
45 c49 24 95 44 101 44 7 0 54 -20 106 -45z m484 0 l90 -43 -195 0 -195 0 90
43 c50 24 97 44 105 44 8 0 56 -20 105 -44z m485 0 l95 -45 -200 1 -200 0 90
44 c50 24 97 44 105 44 8 1 58 -19 110 -44z m481 0 l94 -44 -195 0 -195 0 89
45 c49 24 95 44 101 44 7 0 54 -20 106 -45z m484 0 l90 -43 -195 0 -195 0 90
43 c50 24 97 44 105 44 8 0 56 -20 105 -44z m485 0 l95 -45 -200 0 -200 0 90
44 c50 25 97 45 105 45 8 1 58 -19 110 -44z m-8460 -189 c-5 -13 -25 -56 -45
-96 l-36 -71 -45 91 c-24 50 -44 93 -44 96 0 2 40 4 90 4 l90 0 -10 -24z
m5840 14 c0 -5 -4 -10 -10 -10 -5 0 -10 5 -10 10 0 6 5 10 10 10 6 0 10 -4 10
-10z m455 0 c3 -5 -1 -10 -10 -10 -9 0 -13 5 -10 10 3 6 8 10 10 10 2 0 7 -4
10 -10z m450 0 c3 -5 1 -10 -4 -10 -6 0 -11 5 -11 10 0 6 2 10 4 10 3 0 8 -4
11 -10z m929 -12 c-3 -13 -24 -57 -44 -98 l-38 -75 -17 40 c-10 22 -30 66 -46
98 l-29 57 91 0 c89 0 90 0 83 -22z m-7814 -300 l-49 -103 0 205 0 205 49
-102 49 -103 -49 -102z m169 100 l0 -203 -49 102 -49 103 47 100 c26 55 48
100 50 100 1 0 2 -91 1 -202z m801 187 c0 -8 -7 -15 -15 -15 -8 0 -15 7 -15
15 0 8 7 15 15 15 8 0 15 -7 15 -15z m675 6 c7 -12 -12 -24 -25 -16 -11 7 -4
25 10 25 5 0 11 -4 15 -9z m675 -6 c0 -8 -7 -15 -15 -15 -8 0 -15 7 -15 15 0
8 7 15 15 15 8 0 15 -7 15 -15z m5360 -278 c-23 -50 -46 -96 -51 -101 -5 -6
-9 75 -8 195 l0 204 51 -103 51 -102 -43 -93z m168 -9 l-3 -103 -47 98 c-27
54 -48 102 -48 106 0 5 21 53 48 107 l47 99 3 -102 c1 -57 1 -149 0 -205z
m-29 -110 c1 -5 -37 -8 -84 -8 -47 0 -85 3 -85 7 0 4 19 48 42 97 l43 89 42
-89 c23 -49 42 -92 42 -96z m-7711 85 l41 -88 -45 -3 c-24 -2 -64 -2 -89 0
l-45 3 42 88 c23 48 45 87 48 87 4 0 25 -39 48 -87z m40 -141 c-24 -59 -84
-182 -88 -182 -5 0 -65 123 -88 182 -2 4 38 8 88 8 50 0 90 -4 88 -8z m7672
-1 c0 -21 -83 -182 -90 -175 -5 5 -26 48 -48 97 l-41 87 90 0 c49 0 89 -4 89
-9z m29 -218 l0 -208 -50 100 c-32 64 -48 108 -45 121 7 25 87 194 92 194 2 0
4 -93 3 -207z m-7833 -67 c-69 -151 -65 -156 -65 69 l1 200 48 -99 48 -99 -32
-71z m154 67 c-1 -222 3 -218 -66 -67 l-32 71 46 96 c25 54 47 97 49 97 1 0 3
-89 3 -197z m7506 100 l46 -96 -43 -94 c-23 -52 -46 -96 -51 -99 -4 -3 -8 83
-8 190 0 108 3 196 6 196 3 0 26 -43 50 -97z m-7570 -220 c21 -47 41 -90 42
-95 2 -4 -38 -8 -88 -8 -70 0 -91 3 -87 13 26 64 81 177 87 177 4 0 24 -39 46
-87z m7674 1 c22 -48 40 -91 40 -95 0 -5 -38 -9 -85 -9 -49 0 -85 4 -85 10 0
13 78 180 84 180 3 0 23 -39 46 -86z m-7633 -148 c-27 -66 -81 -176 -87 -176
-6 0 -90 173 -90 185 0 2 41 3 90 3 62 -1 90 -5 87 -12z m7673 -1 c0 -2 -19
-45 -42 -96 l-42 -91 -37 74 c-62 125 -64 118 35 118 47 0 86 -2 86 -5z
m-7781 -230 c-4 -11 -25 -58 -48 -105 l-40 -85 0 205 1 205 47 -100 c34 -71
46 -106 40 -120z m131 13 l0 -203 -50 103 -49 102 46 100 c25 55 48 100 50
100 1 0 3 -91 3 -202z m7510 95 l43 -92 -44 -93 c-23 -51 -47 -97 -51 -103 -4
-5 -8 83 -8 195 0 119 4 200 9 195 5 -6 28 -51 51 -102z m168 -195 l-3 -103
-47 99 c-27 54 -48 103 -48 108 0 4 21 52 48 106 l47 97 3 -102 c1 -57 1 -149
0 -205z m-6880 241 c-2 -6 -8 -10 -13 -10 -5 0 -11 4 -13 10 -2 6 4 11 13 11
9 0 15 -5 13 -11z m672 -4 c0 -8 -4 -15 -10 -15 -5 0 -10 7 -10 15 0 8 5 15
10 15 6 0 10 -7 10 -15z m678 4 c-2 -6 -8 -10 -13 -10 -5 0 -11 4 -13 10 -2 6
4 11 13 11 9 0 15 -5 13 -11z m-2213 -256 c22 -47 42 -90 43 -95 2 -4 -38 -8
-88 -8 -50 0 -90 4 -88 8 17 44 84 182 88 182 3 0 23 -39 45 -87z m7713 -99
c-3 -2 -43 -4 -90 -2 l-84 3 45 95 44 95 45 -93 c25 -51 43 -95 40 -98z
m-7682 -76 c-36 -84 -71 -157 -76 -158 -4 0 -71 137 -88 182 -2 4 37 8 87 8
l91 0 -14 -32z m7678 10 c-3 -13 -24 -57 -44 -98 l-38 -75 -17 40 c-10 22 -30
66 -46 98 l-29 57 91 0 c89 0 90 0 83 -22z m-7814 -300 l-49 -103 0 205 -1
205 50 -102 49 -103 -49 -102z m169 100 l-1 -203 -48 102 -49 102 47 101 c26
55 48 100 50 100 1 0 2 -91 1 -202z m7510 94 l44 -93 -43 -92 c-23 -51 -46
-96 -51 -102 -5 -5 -9 76 -9 195 0 112 4 200 8 195 4 -6 28 -52 51 -103z m169
-194 l-3 -103 -47 97 c-27 54 -48 102 -48 106 0 5 21 54 48 108 l47 99 3 -102
c1 -57 1 -149 0 -205z m-29 -110 c1 -5 -37 -8 -84 -8 -47 0 -85 3 -85 7 0 4
19 48 42 97 l43 89 42 -89 c23 -49 42 -92 42 -96z m-7711 85 l41 -88 -45 -3
c-24 -2 -64 -2 -89 0 l-45 3 42 88 c23 48 45 87 48 87 4 0 25 -39 48 -87z m40
-141 c-24 -62 -83 -182 -88 -182 -5 0 -64 120 -88 182 -2 4 38 8 88 8 50 0 90
-4 88 -8z m7672 -1 c0 -22 -83 -182 -90 -175 -5 5 -27 48 -49 97 l-40 87 89 0
c50 0 90 -4 90 -9z m-7651 -213 l-1 -203 -48 99 -48 99 23 51 c12 28 33 75 46
103 13 29 25 53 27 53 1 0 2 -91 1 -202z m7679 -105 l-3 -108 -41 86 c-62 129
-62 118 -7 231 l48 101 3 -101 c1 -55 1 -150 0 -209z m-7833 172 l33 -71 -48
-99 -48 -100 -1 200 c0 225 -4 220 64 70z m7664 22 l43 -94 -46 -96 c-24 -54
-47 -97 -50 -97 -3 0 -6 88 -6 196 0 107 4 193 8 190 5 -3 28 -47 51 -99z
m-7574 -214 c22 -48 42 -90 43 -95 2 -4 -38 -8 -88 -8 -70 0 -91 3 -87 13 25
62 81 177 86 177 4 0 25 -39 46 -87z m7675 1 c22 -48 40 -91 40 -95 0 -5 -38
-9 -85 -9 -47 0 -85 4 -85 9 0 13 78 181 84 181 3 0 23 -39 46 -86z m-7666
-221 c-20 -43 -38 -84 -41 -90 -12 -29 -21 -15 -79 115 l-24 52 90 0 89 0 -35
-77z m7706 72 c0 -2 -19 -45 -42 -96 l-42 -91 -37 74 c-62 125 -64 118 35 118
47 0 86 -2 86 -5z m-7781 -230 c-4 -11 -25 -58 -48 -105 l-40 -85 0 205 1 205
47 -100 c34 -71 46 -106 40 -120z m131 13 l0 -203 -50 102 -49 103 46 100 c26
55 48 100 50 100 2 0 3 -91 3 -202z m7511 94 l42 -93 -43 -92 c-25 -51 -48
-96 -52 -102 -4 -5 -8 83 -8 195 0 119 4 200 9 195 5 -6 28 -52 52 -103z m167
-194 l-3 -103 -47 99 c-27 54 -48 102 -48 107 0 4 21 52 48 106 l47 98 3 -102
c1 -57 1 -149 0 -205z m-7743 -15 c22 -47 42 -90 43 -95 2 -4 -38 -8 -88 -8
-50 0 -90 4 -88 9 13 35 84 180 88 181 3 0 23 -39 45 -87z m7712 -99 c-2 -3
-42 -4 -89 -2 l-84 3 45 95 45 95 44 -93 c24 -52 42 -96 39 -98z m-7669 -53
c-13 -35 -84 -180 -88 -180 -4 0 -75 145 -88 180 -2 5 38 9 88 9 50 0 90 -4
88 -9z m7671 -3 c0 -7 -20 -51 -44 -98 l-43 -85 -27 59 c-14 32 -35 76 -46 97
l-19 39 90 0 c66 0 90 -3 89 -12z m-7777 -208 c0 -8 -20 -58 -45 -110 l-46
-95 0 205 -1 205 46 -95 c25 -52 46 -102 46 -110z m127 -2 l-1 -203 -48 102
-49 102 47 100 c26 55 48 101 50 101 1 0 2 -91 1 -202z m7510 -94 c-24 -53
-47 -98 -51 -100 -4 -3 -8 86 -7 198 l1 203 50 -103 50 -103 -43 -95z m169 -6
l-3 -103 -47 97 c-27 54 -48 102 -48 106 0 5 21 54 48 108 l47 99 3 -102 c1
-57 1 -149 0 -205z m-29 -110 c1 -5 -37 -8 -84 -8 -47 0 -85 3 -85 7 0 4 19
48 42 97 l43 89 42 -89 c23 -49 42 -92 42 -96z m-7712 85 l40 -88 -43 -3 c-24
-2 -64 -2 -88 0 l-45 3 41 88 c23 48 44 87 48 87 4 0 25 -39 47 -87z m41 -141
c-24 -60 -84 -182 -89 -182 -5 0 -61 115 -86 178 -4 9 17 12 87 12 50 0 90 -4
88 -8z m7672 -1 c0 -4 -19 -50 -43 -101 l-43 -93 -42 92 c-23 51 -42 96 -42
101 0 6 38 10 85 10 47 0 85 -4 85 -9z m28 -318 l-3 -108 -47 99 c-27 54 -48
103 -48 108 0 6 21 56 48 111 l47 101 3 -101 c1 -56 1 -151 0 -210z m-7844
195 l44 -95 -48 -99 -48 -99 -1 199 c-1 110 1 197 4 195 2 -3 24 -48 49 -101z
m165 -95 l-1 -198 -48 99 -48 99 22 51 c33 72 69 146 73 146 2 0 3 -89 2 -197z
m7510 93 l43 -94 -45 -96 c-25 -53 -48 -96 -51 -96 -3 0 -6 88 -6 196 0 107 4
193 8 190 5 -3 28 -48 51 -100z m-7574 -213 c22 -48 42 -90 43 -95 2 -4 -38
-8 -88 -8 -50 0 -90 4 -88 8 23 59 83 182 88 182 3 0 24 -39 45 -87z m7675 -2
c22 -46 40 -87 40 -92 0 -5 -38 -9 -85 -9 -47 0 -85 4 -85 9 0 16 80 184 85
179 3 -3 23 -42 45 -87z m-7654 -193 c-41 -92 -60 -128 -66 -128 -6 0 -25 36
-66 128 l-24 52 90 0 90 0 -24 -52z m7694 45 c0 -5 -20 -48 -43 -97 l-43 -90
-42 88 c-23 48 -42 92 -42 97 0 5 38 9 85 9 47 0 85 -3 85 -7z m-7820 -316
l-50 -102 1 205 0 205 49 -103 49 -102 -49 -103z m170 101 l-1 -203 -49 102
-49 103 46 100 c26 55 48 100 50 100 2 0 3 -91 3 -202z m7510 95 l43 -93 -43
-92 c-24 -51 -47 -97 -52 -103 -4 -5 -8 83 -8 195 0 112 4 200 8 195 5 -6 28
-52 52 -102z m168 -195 l-3 -103 -47 99 c-27 54 -48 102 -48 106 0 4 21 52 48
106 l47 99 3 -102 c1 -57 1 -149 0 -205z m-7740 -22 c23 -51 42 -95 42 -99 0
-4 -40 -7 -90 -7 -49 0 -90 3 -90 8 0 11 84 192 90 192 3 -1 24 -42 48 -94z
m7630 -104 c-50 -1 -92 -1 -94 1 -2 2 17 48 43 103 l47 99 47 -100 47 -100
-90 -3z"/>
<path d="M4080 3394 c-251 -32 -476 -112 -633 -224 l-54 -39 -364 -4 c-264 -3
-398 -9 -488 -21 -533 -72 -807 -231 -871 -505 -30 -127 11 -321 108 -511 26
-52 48 -107 47 -122 -1 -16 4 -28 11 -28 7 0 14 -6 17 -12 8 -22 42 6 42 35 1
14 -3 23 -7 21 -5 -3 -11 2 -14 11 -4 8 -13 14 -21 13 -10 -2 -32 29 -64 92
-90 175 -129 343 -110 467 45 292 330 460 891 528 153 18 620 32 723 21 l68
-8 -48 -51 c-188 -200 -293 -454 -310 -752 -4 -70 -11 -114 -19 -120 -13 -10
-17 -27 -15 -57 1 -13 10 -18 31 -18 21 0 30 5 31 18 2 32 -3 57 -14 64 -13 8
-2 167 19 280 44 232 133 413 279 567 l70 73 105 -6 c341 -22 1146 -121 1172
-145 4 -3 -20 -49 -53 -101 -34 -52 -131 -237 -216 -410 -170 -346 -229 -453
-244 -445 -5 4 -12 -1 -15 -9 -3 -9 -11 -13 -17 -9 -6 4 -8 0 -4 -9 3 -9 1
-20 -5 -26 -7 -7 -3 -14 11 -22 17 -8 26 -8 43 5 13 8 19 15 15 15 -4 0 -3 9
3 20 7 14 8 20 0 20 -6 0 4 24 21 53 17 28 104 201 194 382 143 290 249 482
289 522 9 10 55 5 226 -27 282 -53 612 -129 771 -176 27 -8 30 -41 5 -58 -18
-13 -19 -15 -3 -15 23 -1 22 -22 -3 -28 -11 -3 -17 -10 -14 -15 3 -5 12 -7 20
-4 8 3 14 1 14 -5 0 -6 -9 -13 -20 -16 -27 -7 -25 -23 3 -23 22 0 22 0 -3 -20
l-25 -20 25 0 25 -1 -22 -18 c-31 -26 -29 -31 15 -32 20 -1 28 -4 17 -6 -11
-2 -31 -13 -45 -23 l-25 -20 29 0 c24 0 27 -2 16 -15 -7 -8 -19 -15 -26 -15
-8 0 -14 -4 -14 -10 0 -6 33 -10 80 -10 44 0 80 3 80 8 0 4 -17 15 -37 24
l-38 17 38 0 c46 1 47 11 5 31 l-33 15 28 3 c29 4 36 16 12 26 -21 8 -19 26 3
26 14 0 12 4 -8 20 -25 20 -25 20 -2 20 12 0 22 5 22 10 0 6 -6 10 -14 10 -25
0 -28 20 -5 28 l23 9 -22 5 c-26 7 -29 28 -4 28 15 1 15 2 -3 16 -14 10 -19
24 -17 45 3 29 2 30 -35 28 -21 0 -128 22 -238 50 -167 42 -323 75 -750 158
l-39 8 92 97 c51 53 115 111 143 129 l50 32 72 -28 c126 -49 407 -175 567
-255 204 -102 361 -173 441 -200 75 -26 87 -39 56 -62 -19 -15 -19 -18 -4 -18
21 0 23 -18 2 -26 -8 -4 -15 -11 -15 -16 0 -6 7 -8 15 -4 23 8 18 -10 -7 -27
l-23 -16 25 -1 25 0 -25 -20 -25 -20 23 0 c27 0 29 -20 2 -27 -29 -8 -24 -23
8 -23 l27 0 -35 -23 -35 -22 39 -5 40 -5 -37 -14 c-20 -8 -37 -18 -37 -23 0
-4 36 -8 80 -8 47 0 80 4 80 10 0 6 -6 10 -14 10 -7 0 -19 7 -26 15 -11 13 -8
15 14 15 32 0 34 15 4 25 -62 21 -63 23 -18 25 44 1 44 1 23 17 -27 19 -30 33
-5 33 14 0 12 4 -8 20 -25 20 -25 20 -2 20 12 0 22 3 22 6 0 3 -10 14 -22 25
-13 11 -18 19 -13 18 31 -4 35 2 14 21 l-24 19 25 1 24 0 -22 16 c-15 10 -22
25 -22 46 0 31 0 31 -45 25 -63 -9 -141 22 -501 196 -260 126 -473 222 -594
267 -55 21 -55 25 9 54 110 49 204 68 346 68 282 1 525 -75 698 -217 36 -30
108 -103 159 -162 147 -171 194 -210 276 -228 37 -8 41 -27 10 -49 l-22 -16
24 0 25 -1 -22 -18 c-21 -17 -21 -20 -5 -26 16 -6 16 -7 0 -19 -22 -16 -23
-26 -3 -26 22 0 18 -15 -7 -28 l-23 -11 23 0 c27 -1 29 -21 2 -28 -11 -3 -20
-9 -20 -14 0 -5 9 -9 20 -9 11 0 20 -4 20 -9 0 -5 -9 -13 -20 -16 -34 -11 -22
-25 23 -26 25 -1 32 -4 17 -6 -14 -2 -36 -13 -50 -23 l-25 -20 88 0 c48 0 87
2 87 5 0 2 -17 13 -37 24 l-38 20 33 1 c17 0 32 5 32 10 0 6 -6 10 -14 10 -7
0 -19 7 -26 15 -11 13 -8 15 14 15 31 0 35 15 6 23 -27 7 -25 27 3 27 20 1 19
2 -8 18 -28 16 -29 17 -7 20 25 4 29 17 7 26 -15 5 -22 27 -7 25 21 -4 22 3 1
21 l-24 19 25 1 24 0 -22 16 c-14 10 -22 25 -22 46 0 30 0 30 -44 24 -80 -12
-144 28 -254 159 -204 243 -344 341 -573 399 -268 68 -505 58 -698 -30 l-74
-34 -91 29 c-120 39 -269 76 -381 96 -88 16 -356 28 -425 19z m261 -14 c63 -5
164 -19 223 -30 108 -21 323 -80 371 -102 l25 -11 -48 -33 c-26 -17 -90 -76
-140 -129 l-93 -98 -242 37 c-351 53 -669 88 -992 108 l-40 3 60 41 c192 132
430 203 740 222 11 1 72 -3 136 -8z"/>
<path d="M7082 2592 c-188 -67 -243 -282 -112 -440 30 -36 30 -38 30 -154 l0
-118 -42 1 c-24 1 -33 4 -20 6 12 2 22 11 22 19 0 11 -15 14 -66 14 l-66 0 4
32 c4 23 0 37 -11 45 -14 11 -14 12 3 13 20 0 20 0 0 15 -19 14 -19 14 0 15
20 0 20 0 0 15 -10 8 -14 15 -8 15 14 0 13 32 -1 42 -6 5 -5 8 4 8 11 0 11 3
1 15 -10 12 -10 15 1 15 11 0 11 2 -1 10 -13 9 -13 10 0 10 13 0 13 1 0 10 -8
5 -15 15 -15 21 0 7 -5 14 -11 16 -13 4 -27 -31 -26 -64 1 -13 -4 -23 -11 -23
-7 0 -6 -4 3 -10 13 -9 13 -10 0 -10 -13 0 -13 -1 0 -10 13 -9 13 -11 0 -20
-12 -8 -12 -10 -1 -10 11 0 11 -3 1 -15 -10 -12 -10 -15 0 -15 10 0 10 -3 0
-15 -10 -12 -10 -15 1 -15 11 -1 11 -3 -1 -13 -9 -7 -14 -24 -12 -44 3 -32 2
-33 -32 -33 -36 0 -36 0 -36 44 0 26 5 46 13 49 6 3 -37 5 -98 5 -60 0 -104
-2 -97 -5 7 -3 12 -23 12 -49 l0 -44 -56 0 -57 0 6 34 c3 22 1 37 -6 40 -9 5
-9 8 1 12 10 5 10 9 1 20 -9 11 -8 14 2 14 11 0 11 2 -1 10 -13 9 -13 11 0 20
10 6 11 10 3 10 -7 0 -10 7 -7 15 4 9 0 15 -7 15 -9 0 -10 3 -4 8 6 4 10 14
10 22 0 8 -4 18 -10 22 -6 5 -6 8 2 8 8 0 8 6 0 25 -7 14 -16 25 -22 25 -5 0
-15 -11 -22 -25 -8 -19 -8 -25 0 -25 8 0 8 -3 2 -8 -6 -4 -10 -24 -10 -44 0
-21 -4 -38 -10 -38 -5 0 -3 -5 5 -10 13 -9 13 -11 0 -20 -12 -8 -12 -10 -1
-10 11 0 11 -3 1 -15 -10 -12 -10 -15 0 -15 10 0 10 -3 0 -15 -7 -8 -10 -28
-8 -45 4 -29 4 -30 -39 -30 l-43 0 0 38 c0 21 5 43 12 50 9 9 -11 12 -91 12
-81 0 -101 -3 -94 -12 5 -7 8 -19 7 -25 -1 -7 -2 -24 -3 -38 -1 -23 -5 -25
-50 -25 l-48 0 6 33 c5 23 3 35 -8 44 -13 10 -13 12 -2 13 11 0 11 3 1 15 -10
12 -10 15 1 15 11 0 11 2 -1 10 -13 9 -13 11 0 20 11 7 11 10 2 10 -15 0 -12
31 3 42 6 5 5 8 -4 8 -7 0 -11 6 -8 14 3 8 1 17 -6 20 -9 3 -9 5 0 5 8 1 8 7
0 26 -14 30 -37 33 -37 5 0 -11 -6 -20 -12 -20 -10 0 -9 -3 1 -9 11 -7 11 -9
0 -14 -12 -5 -12 -6 0 -6 11 -1 11 -4 1 -16 -10 -12 -10 -15 1 -15 9 0 10 -3
4 -8 -14 -10 -15 -42 -1 -42 6 0 2 -7 -8 -15 -20 -15 -20 -15 0 -15 19 -1 19
-1 0 -15 -20 -15 -20 -15 0 -15 17 -1 17 -2 3 -13 -11 -8 -15 -22 -11 -45 l4
-32 -46 0 -46 0 0 44 c0 26 5 46 13 49 6 3 -37 5 -98 5 -60 0 -104 -2 -97 -5
7 -3 12 -23 12 -49 l0 -44 -70 0 c-56 0 -70 -3 -70 -15 0 -8 9 -15 20 -15 36
0 23 -34 -20 -52 -30 -12 -41 -24 -48 -50 -6 -26 -14 -34 -35 -36 -15 -2 -27
1 -27 7 0 6 -7 11 -15 11 -8 0 -15 -4 -15 -10 0 -6 -108 -10 -304 -10 -326 0
-322 1 -309 -50 4 -17 11 -21 29 -17 l24 4 0 -558 0 -559 -25 0 c-21 0 -25 -5
-25 -30 l0 -30 305 0 c248 0 305 -3 305 -13 0 -8 7 -14 15 -14 8 0 15 4 15 8
0 4 7 10 16 13 21 8 44 -11 44 -34 0 -22 45 -60 71 -60 29 0 25 -40 -3 -41
-22 -1 -22 -1 2 -9 37 -12 240 -12 240 0 0 6 55 10 145 10 90 0 145 -4 145
-10 0 -6 72 -10 195 -10 123 0 195 4 195 10 0 6 55 10 145 10 90 0 145 -4 145
-10 0 -12 173 -12 210 0 24 8 24 8 3 9 -34 2 -32 41 2 41 31 0 75 41 75 70 0
11 3 20 8 21 4 0 49 1 101 2 67 2 98 -2 108 -11 11 -11 13 -11 13 0 0 10 3 9
10 -2 8 -13 10 -12 10 3 0 16 21 17 305 17 l305 0 0 30 c0 25 -4 30 -25 30
l-25 0 0 559 0 558 25 -4 c19 -4 25 0 30 20 4 14 4 31 0 36 -4 7 -98 11 -278
11 l-273 0 2 178 c2 170 9 222 34 237 28 18 60 110 60 176 0 182 -178 311
-348 251z m-62 -65 c0 -2 -12 -14 -27 -28 l-28 -24 24 28 c23 25 31 32 31 24z
m147 -19 c-3 -8 -6 -5 -6 6 -1 11 2 17 5 13 3 -3 4 -12 1 -19z m-37 -18 c0 -5
-4 -10 -10 -10 -5 0 -10 5 -10 10 0 6 5 10 10 10 6 0 10 -4 10 -10z m90 0 c0
-5 -4 -10 -10 -10 -5 0 -10 5 -10 10 0 6 5 10 10 10 6 0 10 -4 10 -10z m-110
-40 c0 -5 -5 -10 -11 -10 -5 0 -7 5 -4 10 3 6 8 10 11 10 2 0 4 -4 4 -10z
m125 0 c3 -5 1 -10 -4 -10 -6 0 -11 5 -11 10 0 6 2 10 4 10 3 0 8 -4 11 -10z
m-105 -50 c0 -16 -17 -20 -28 -7 -8 10 -6 13 9 14 10 1 19 -2 19 -7z m98 -7
c-5 -7 -14 -10 -19 -7 -16 10 -9 23 10 21 15 -1 17 -4 9 -14z m-301 -70 c-3
-10 -5 -2 -5 17 0 19 2 27 5 18 2 -10 2 -26 0 -35z m480 0 c-3 -10 -5 -2 -5
17 0 19 2 27 5 18 2 -10 2 -26 0 -35z m-458 -78 c0 -5 -4 -3 -9 5 -5 8 -9 22
-9 30 0 16 17 -16 18 -35z m441 8 c-11 -17 -11 -17 -6 0 3 10 6 24 7 30 0 9 2
9 5 0 3 -7 0 -20 -6 -30z m-339 -118 c15 -9 45 -19 66 -24 25 -6 30 -9 15 -10
-52 -2 -145 59 -174 114 -6 11 6 1 27 -23 20 -23 50 -49 66 -57z m320 78 c-29
-54 -122 -114 -173 -112 -13 0 -2 6 24 13 57 15 89 36 125 81 31 39 39 44 24
18z m-188 -143 c42 0 47 -2 47 -22 0 -12 -14 -37 -32 -55 l-32 -33 -53 52
c-29 29 -53 56 -53 61 0 5 17 7 38 3 20 -3 58 -6 85 -6z m97 6 c0 -3 -4 -8
-10 -11 -5 -3 -10 -1 -10 4 0 6 5 11 10 11 6 0 10 -2 10 -4z m0 -138 c0 -70
-3 -89 -12 -80 -11 11 -12 147 -2 164 12 18 14 3 14 -84z m-165 -28 c-46 -48
-55 -41 -55 42 l0 73 42 -42 42 -43 -29 -30z m115 30 c0 -33 -11 -38 -30 -15
-10 12 -10 18 0 30 19 23 30 18 30 -15z m-45 -40 c18 -20 17 -20 -20 -20 -37
0 -38 0 -20 20 10 11 19 20 20 20 1 0 10 -9 20 -20z m60 -60 c4 -6 -25 -9 -82
-8 l-88 2 70 6 c39 4 75 7 82 8 6 1 15 -2 18 -8z m-262 -7 c-13 -2 -33 -2 -45
0 -13 2 -3 4 22 4 25 0 35 -2 23 -4z m-1263 -74 l0 -39 552 0 c499 0 553 -2
570 -17 16 -14 18 -33 18 -140 0 -68 -5 -133 -10 -144 -9 -17 -22 -19 -100
-19 l-90 0 0 -45 0 -45 130 0 130 0 0 100 0 100 29 0 c21 0 66 25 152 85 122
85 139 94 139 75 0 -5 7 -10 15 -10 8 0 15 5 15 10 0 6 8 10 18 10 18 0 19
-15 20 -270 1 -170 -3 -272 -9 -276 -7 -4 -7 -10 0 -18 6 -7 9 -111 8 -276 -2
-243 -3 -265 -19 -268 -12 -2 -18 3 -19 15 0 16 -1 16 -9 -2 l-9 -20 -1 20
c-1 18 -1 19 -11 2 -9 -15 -26 -17 -122 -17 -126 0 -151 -9 -162 -60 -4 -17
-13 -30 -21 -30 -11 0 -14 16 -14 70 l0 71 -72 -3 c-65 -3 -73 -5 -73 -23 0
-17 8 -20 53 -23 44 -3 53 -6 50 -20 -3 -15 -19 -17 -111 -20 -101 -3 -107 -2
-107 17 0 17 8 20 48 23 39 3 47 6 47 23 0 20 -8 20 -522 23 l-523 2 0 -25 c0
-23 3 -25 50 -25 44 0 50 -3 50 -20 0 -20 -5 -21 -107 -18 -93 3 -108 5 -111
21 -3 14 4 17 47 17 48 0 51 2 51 25 0 26 -1 26 -72 23 l-73 -3 -3 -68 c-2
-48 -7 -67 -15 -64 -7 2 -14 12 -15 23 -7 34 -43 64 -79 64 -19 0 -36 6 -39
13 -6 18 -34 18 -34 0 0 -7 -7 -13 -15 -13 -13 0 -15 70 -15 555 0 485 2 555
15 555 8 0 15 -4 15 -10 0 -5 7 -10 15 -10 8 0 15 5 15 10 0 6 15 10 34 10 42
0 84 32 88 67 2 15 9 28 16 31 9 3 12 -23 12 -107 0 -67 -4 -111 -10 -111 -5
0 -10 11 -10 25 0 25 -1 26 -62 23 l-63 -3 0 -255 c0 -197 3 -255 13 -256 6
-1 21 -2 32 -3 15 -1 20 -8 20 -31 0 -31 22 -50 59 -50 17 0 21 -6 21 -35 l0
-35 690 0 690 0 0 80 c0 79 0 80 25 80 46 0 65 32 65 107 0 48 -5 72 -17 85
-17 19 -73 25 -73 8 0 -5 9 -10 19 -10 33 0 51 -28 51 -76 0 -58 -14 -84 -45
-84 -24 0 -25 2 -25 80 l0 80 -130 0 -130 0 0 -120 c0 -115 -1 -122 -25 -145
-18 -19 -35 -25 -70 -25 -38 0 -45 -3 -45 -20 0 -20 -7 -20 -270 -20 -263 0
-270 0 -270 20 0 19 -7 20 -110 20 -172 0 -180 10 -180 246 l0 154 -30 0 c-43
0 -50 23 -50 161 0 133 9 159 57 159 20 0 23 5 23 38 0 21 3 42 6 45 14 13 24
-6 24 -44z m1515 1 c-4 -6 -54 -10 -116 -10 -109 0 -111 0 -140 -29 -16 -16
-29 -39 -29 -51 0 -12 -4 -18 -10 -15 -5 3 -10 31 -10 61 l0 54 156 0 c101 0
153 -3 149 -10z m-2388 -202 c-2 -29 -3 -6 -3 52 0 58 1 81 3 53 2 -29 2 -77
0 -105z m50 55 c-2 -21 -4 -6 -4 32 0 39 2 55 4 38 2 -18 2 -50 0 -70z m130
45 c-2 -13 -4 -5 -4 17 -1 22 1 32 4 23 2 -10 2 -28 0 -40z m50 0 c-2 -13 -4
-5 -4 17 -1 22 1 32 4 23 2 -10 2 -28 0 -40z m130 -30 c-2 -18 -4 -6 -4 27 0
33 2 48 4 33 2 -15 2 -42 0 -60z m50 -40 c-2 -24 -4 -5 -4 42 0 47 2 66 4 43
2 -24 2 -62 0 -85z m2070 -95 c-1 -43 -3 -10 -3 72 0 83 2 118 3 78 2 -40 2
-107 0 -150z m50 95 c-2 -24 -4 -5 -4 42 0 47 2 66 4 43 2 -24 2 -62 0 -85z
m130 70 c-2 -13 -4 -5 -4 17 -1 22 1 32 4 23 2 -10 2 -28 0 -40z m50 0 c-2
-13 -4 -5 -4 17 -1 22 1 32 4 23 2 -10 2 -28 0 -40z m130 -15 c-2 -16 -4 -5
-4 22 0 28 2 40 4 28 2 -13 2 -35 0 -50z m-2870 -375 c-1 -79 -3 -15 -3 142 0
157 2 221 3 143 2 -79 2 -207 0 -285z m130 370 c-2 -13 -4 -5 -4 17 -1 22 1
32 4 23 2 -10 2 -28 0 -40z m30 5 c-3 -10 -5 -2 -5 17 0 19 2 27 5 18 2 -10 2
-26 0 -35z m20 10 c-3 -10 -5 -4 -5 12 0 17 2 24 5 18 2 -7 2 -21 0 -30z m113
10 c0 -19 -3 -24 -10 -17 -6 6 -8 18 -4 27 9 24 14 21 14 -10z m17 -10 c-3
-10 -5 -4 -5 12 0 17 2 24 5 18 2 -7 2 -21 0 -30z m30 -10 c-3 -10 -5 -2 -5
17 0 19 2 27 5 18 2 -10 2 -26 0 -35z m150 -150 c-2 -38 -3 -7 -3 67 0 74 1
105 3 68 2 -38 2 -98 0 -135z m2120 130 c-2 -16 -4 -5 -4 22 0 28 2 40 4 28 2
-13 2 -35 0 -50z m30 15 c-2 -13 -4 -5 -4 17 -1 22 1 32 4 23 2 -10 2 -28 0
-40z m20 5 c-3 -10 -5 -2 -5 17 0 19 2 27 5 18 2 -10 2 -26 0 -35z m130 10
c-3 -10 -5 -4 -5 12 0 17 2 24 5 18 2 -7 2 -21 0 -30z m30 0 c-3 -10 -5 -4 -5
12 0 17 2 24 5 18 2 -7 2 -21 0 -30z m83 -14 c0 -24 -4 -38 -10 -34 -5 3 -10
24 -10 46 0 24 4 38 10 34 6 -3 10 -24 10 -46z m17 -31 c-2 -18 -4 -6 -4 27 0
33 2 48 4 33 2 -15 2 -42 0 -60z m33 10 c0 -40 -4 -67 -8 -61 -5 7 -7 39 -6
70 2 65 2 63 9 63 3 0 5 -33 5 -72z m17 -65 c-2 -27 -3 -5 -3 47 0 52 1 74 3
48 2 -27 2 -69 0 -95z m30 -285 c-1 -79 -3 -15 -3 142 0 157 2 221 3 143 2
-79 2 -207 0 -285z m-2937 353 c0 -33 -4 -63 -10 -66 -6 -4 -10 18 -10 59 0
37 4 66 10 66 6 0 10 -26 10 -59z m50 17 c0 -23 -3 -38 -7 -34 -11 11 -13 76
-2 76 5 0 9 -19 9 -42z m130 27 c0 -8 -4 -15 -10 -15 -5 0 -10 7 -10 15 0 8 5
15 10 15 6 0 10 -7 10 -15z m117 -32 c-3 -10 -5 -2 -5 17 0 19 2 27 5 18 2
-10 2 -26 0 -35z m63 -3 c0 -27 -4 -50 -10 -50 -5 0 -10 23 -10 50 0 28 5 50
10 50 6 0 10 -22 10 -50z m50 -37 c0 -56 -4 -83 -9 -74 -11 18 -10 161 1 161
4 0 8 -39 8 -87z m1815 78 c-22 -19 -159 -111 -167 -111 -20 0 -5 17 25 28 31
11 47 30 61 75 4 13 16 17 48 17 24 0 38 -4 33 -9z m255 -70 c0 -44 -4 -83
-10 -86 -6 -4 -10 25 -10 79 0 51 4 86 10 86 6 0 10 -33 10 -79z m50 29 c0
-27 -4 -50 -8 -50 -4 0 -8 23 -8 50 -1 28 3 50 7 50 5 0 9 -22 9 -50z m130 36
c0 -8 -4 -18 -10 -21 -5 -3 -10 3 -10 14 0 12 5 21 10 21 6 0 10 -6 10 -14z
m50 -1 c0 -8 -2 -15 -4 -15 -2 0 -6 7 -10 15 -3 8 -1 15 4 15 6 0 10 -7 10
-15z m67 -22 c-3 -10 -5 -4 -5 12 0 17 2 24 5 18 2 -7 2 -21 0 -30z m-2630
-100 c-2 -16 -4 -3 -4 27 0 30 2 43 4 28 2 -16 2 -40 0 -55z m33 27 c0 -27 -4
-50 -10 -50 -5 0 -10 23 -10 50 0 28 5 50 10 50 6 0 10 -22 10 -50z m17 -27
c-2 -16 -4 -3 -4 27 0 30 2 43 4 28 2 -16 2 -40 0 -55z m-80 30 c-3 -10 -5 -4
-5 12 0 17 2 24 5 18 2 -7 2 -21 0 -30z m2510 -45 c-2 -18 -4 -6 -4 27 0 33 2
48 4 33 2 -15 2 -42 0 -60z m-2530 50 c-3 -8 -6 -5 -6 6 -1 11 2 17 5 13 3 -3
4 -12 1 -19z m200 -95 c-2 -21 -4 -4 -4 37 0 41 2 58 4 38 2 -21 2 -55 0 -75z
m2280 70 c-3 -10 -5 -4 -5 12 0 17 2 24 5 18 2 -7 2 -21 0 -30z m230 -30 c-2
-16 -4 -5 -4 22 0 28 2 40 4 28 2 -13 2 -35 0 -50z m-50 -5 c-2 -13 -4 -3 -4
22 0 25 2 35 4 23 2 -13 2 -33 0 -45z m-2430 -30 c-2 -18 -4 -6 -4 27 0 33 2
48 4 33 2 -15 2 -42 0 -60z m-310 -40 c-2 -18 -4 -4 -4 32 0 36 2 50 4 33 2
-18 2 -48 0 -65z m343 51 c0 -16 -4 -29 -10 -29 -5 0 -10 16 -10 36 0 21 4 33
10 29 6 -3 10 -19 10 -36z m300 -149 c0 -107 -4 -170 -10 -170 -6 0 -10 63
-10 170 0 107 4 170 10 170 6 0 10 -63 10 -170z m-660 110 c0 -27 -4 -50 -10
-50 -11 0 -14 83 -3 93 12 12 13 8 13 -43z m50 10 c0 -22 -5 -40 -11 -40 -9 0
-9 13 1 78 0 1 2 2 5 2 3 0 5 -18 5 -40z m227 18 c-3 -8 -6 -5 -6 6 -1 11 2
17 5 13 3 -3 4 -12 1 -19z m100 -10 c-3 -7 -5 -2 -5 12 0 14 2 19 5 13 2 -7 2
-19 0 -25z m-126 -7 c49 -49 38 -125 -23 -157 -66 -34 -143 12 -143 88 0 33 6
45 33 69 44 40 93 40 133 0z m2246 -68 c-2 -21 -4 -6 -4 32 0 39 2 55 4 38 2
-18 2 -50 0 -70z m236 86 c63 -29 72 -116 16 -163 -95 -80 -217 57 -130 145
32 31 71 38 114 18z m-2666 -46 c-3 -10 -5 -2 -5 17 0 19 2 27 5 18 2 -10 2
-26 0 -35z m2480 -45 c-2 -13 -4 -5 -4 17 -1 22 1 32 4 23 2 -10 2 -28 0 -40z
m-2580 -15 c-3 -10 -5 -2 -5 17 0 19 2 27 5 18 2 -10 2 -26 0 -35z m2510 0
c-3 -10 -5 -2 -5 17 0 19 2 27 5 18 2 -10 2 -26 0 -35z m380 -30 c-2 -16 -4
-3 -4 27 0 30 2 43 4 28 2 -16 2 -40 0 -55z m50 30 c-3 -10 -5 -2 -5 17 0 19
2 27 5 18 2 -10 2 -26 0 -35z m-2530 -60 c-2 -16 -4 -5 -4 22 0 28 2 40 4 28
2 -13 2 -35 0 -50z m-50 -10 c-2 -16 -4 -5 -4 22 0 28 2 40 4 28 2 -13 2 -35
0 -50z m33 13 c0 -30 -4 -58 -10 -61 -6 -4 -10 17 -10 54 0 34 4 61 10 61 6 0
10 -24 10 -54z m2087 -133 c-2 -37 -3 -9 -3 62 0 72 1 102 3 68 2 -34 2 -93 0
-130z m-2150 130 c-3 -10 -5 -2 -5 17 0 19 2 27 5 18 2 -10 2 -26 0 -35z m130
-135 c-2 -35 -3 -7 -3 62 0 69 1 97 3 63 2 -35 2 -91 0 -125z m-360 65 c-2
-21 -4 -6 -4 32 0 39 2 55 4 38 2 -18 2 -50 0 -70z m-50 25 c-2 -13 -4 -3 -4
22 0 25 2 35 4 23 2 -13 2 -33 0 -45z m33 6 c0 -32 -4 -53 -10 -49 -7 4 -8 89
-1 103 7 13 11 -8 11 -54z m-50 25 c0 -6 -4 -7 -10 -4 -5 3 -10 11 -10 16 0 6
5 7 10 4 6 -3 10 -11 10 -16z m2577 -76 c-2 -16 -4 -5 -4 22 0 28 2 40 4 28 2
-13 2 -35 0 -50z m50 15 c-2 -13 -4 -5 -4 17 -1 22 1 32 4 23 2 -10 2 -28 0
-40z m130 -30 c-2 -18 -4 -6 -4 27 0 33 2 48 4 33 2 -15 2 -42 0 -60z m-2790
-50 c-2 -24 -4 -5 -4 42 0 47 2 66 4 43 2 -24 2 -62 0 -85z m443 41 c0 -44 -4
-78 -9 -75 -9 6 -13 135 -4 149 10 17 13 2 13 -74z m2070 0 c0 -39 -4 -69 -10
-69 -6 0 -10 32 -10 76 0 47 4 73 10 69 6 -3 10 -37 10 -76z m67 34 c-3 -10
-5 -2 -5 17 0 19 2 27 5 18 2 -10 2 -26 0 -35z m180 -30 c-2 -16 -4 -3 -4 27
0 30 2 43 4 28 2 -16 2 -40 0 -55z m180 -45 c-2 -24 -4 -5 -4 42 0 47 2 66 4
43 2 -24 2 -62 0 -85z m-2727 61 c0 -31 -4 -48 -10 -44 -11 7 -13 54 -4 79 10
27 14 18 14 -35z m17 -26 c-2 -16 -4 -3 -4 27 0 30 2 43 4 28 2 -16 2 -40 0
-55z m33 26 c0 -54 -15 -49 -16 6 -1 25 2 42 7 39 5 -3 9 -23 9 -45z m2577 -1
c-3 -7 -5 -2 -5 12 0 14 2 19 5 13 2 -7 2 -19 0 -25z m-2807 -39 c0 -27 -4
-49 -10 -49 -5 0 -10 25 -10 56 0 34 4 53 10 49 6 -3 10 -28 10 -56z m247 14
c-3 -10 -5 -2 -5 17 0 19 2 27 5 18 2 -10 2 -26 0 -35z m130 -45 c-2 -18 -4
-4 -4 32 0 36 2 50 4 33 2 -18 2 -48 0 -65z m2120 0 c-2 -18 -4 -4 -4 32 0 36
2 50 4 33 2 -18 2 -48 0 -65z m393 31 c0 -33 -4 -58 -8 -55 -4 2 -7 26 -6 53
2 58 3 63 9 63 3 0 5 -27 5 -61z m-2613 19 c-3 -8 -6 -5 -6 6 -1 11 2 17 5 13
3 -3 4 -12 1 -19z m-260 -55 c-2 -16 -4 -5 -4 22 0 28 2 40 4 28 2 -13 2 -35
0 -50z m343 27 c0 -22 -4 -40 -10 -40 -5 0 -10 18 -10 40 0 22 5 40 10 40 6 0
10 -18 10 -40z m2170 -7 c0 -25 -3 -43 -7 -39 -11 10 -12 86 -1 86 4 0 8 -21
8 -47z m327 -20 c-2 -16 -4 -5 -4 22 0 28 2 40 4 28 2 -13 2 -35 0 -50z
m-2807 10 c0 -28 -3 -34 -10 -23 -13 20 -13 60 0 60 6 0 10 -17 10 -37z m277
-15 c-2 -13 -4 -5 -4 17 -1 22 1 32 4 23 2 -10 2 -28 0 -40z m2220 0 c-2 -13
-4 -5 -4 17 -1 22 1 32 4 23 2 -10 2 -28 0 -40z m293 22 c0 -16 -4 -30 -10
-30 -5 0 -10 14 -10 30 0 17 5 30 10 30 6 0 10 -13 10 -30z m-2773 -27 c-3
-10 -5 -2 -5 17 0 19 2 27 5 18 2 -10 2 -26 0 -35z m2740 0 c-3 -10 -5 -2 -5
17 0 19 2 27 5 18 2 -10 2 -26 0 -35z m-2510 0 c-3 -10 -5 -4 -5 12 0 17 2 24
5 18 2 -7 2 -21 0 -30z m2280 0 c-3 -10 -5 -4 -5 12 0 17 2 24 5 18 2 -7 2
-21 0 -30z m-2480 -5 c-3 -7 -5 -2 -5 12 0 14 2 19 5 13 2 -7 2 -19 0 -25z
m180 0 c-3 -7 -5 -2 -5 12 0 14 2 19 5 13 2 -7 2 -19 0 -25z m2320 0 c-3 -7
-5 -2 -5 12 0 14 2 19 5 13 2 -7 2 -19 0 -25z m30 0 c-3 -7 -5 -2 -5 12 0 14
2 19 5 13 2 -7 2 -19 0 -25z m130 0 c-3 -7 -5 -2 -5 12 0 14 2 19 5 13 2 -7 2
-19 0 -25z m20 0 c-3 -7 -5 -2 -5 12 0 14 2 19 5 13 2 -7 2 -19 0 -25z m-2660
0 c-3 -8 -6 -5 -6 6 -1 11 2 17 5 13 3 -3 4 -12 1 -19z m30 0 c-3 -8 -6 -5 -6
6 -1 11 2 17 5 13 3 -3 4 -12 1 -19z m50 0 c-3 -8 -6 -5 -6 6 -1 11 2 17 5 13
3 -3 4 -12 1 -19z m33 6 c0 -8 -5 -12 -10 -9 -6 4 -8 11 -5 16 9 14 15 11 15
-7z m17 -6 c-3 -8 -6 -5 -6 6 -1 11 2 17 5 13 3 -3 4 -12 1 -19z m2413 12 c0
-5 -4 -10 -10 -10 -5 0 -10 5 -10 10 0 6 5 10 10 10 6 0 10 -4 10 -10z m17
-12 c-3 -8 -6 -5 -6 6 -1 11 2 17 5 13 3 -3 4 -12 1 -19z m33 6 c0 -8 -5 -12
-10 -9 -6 4 -8 11 -5 16 9 14 15 11 15 -7z m17 -6 c-3 -8 -6 -5 -6 6 -1 11 2
17 5 13 3 -3 4 -12 1 -19z m-2067 -48 c0 -53 -2 -60 -19 -60 -23 0 -51 25 -51
46 0 8 10 14 25 14 21 0 25 5 25 30 0 17 5 30 10 30 6 0 10 -27 10 -60z m-723
-382 c-1 -79 -3 -17 -3 137 0 154 2 218 3 143 2 -75 2 -201 0 -280z m30 300
c-2 -24 -4 -7 -4 37 0 44 2 63 4 43 2 -21 2 -57 0 -80z m33 63 c0 -28 -4 -53
-10 -56 -6 -4 -10 15 -10 49 0 31 5 56 10 56 6 0 10 -22 10 -49z m17 -13 c-2
-13 -4 -3 -4 22 0 25 2 35 4 23 2 -13 2 -33 0 -45z m33 32 c0 -16 -4 -30 -10
-30 -5 0 -10 14 -10 30 0 17 5 30 10 30 6 0 10 -13 10 -30z m17 -7 c-3 -10 -5
-4 -5 12 0 17 2 24 5 18 2 -7 2 -21 0 -30z m30 15 c-3 -8 -6 -5 -6 6 -1 11 2
17 5 13 3 -3 4 -12 1 -19z m20 0 c-3 -8 -6 -5 -6 6 -1 11 2 17 5 13 3 -3 4
-12 1 -19z m113 12 c0 -5 -2 -10 -4 -10 -3 0 -8 5 -11 10 -3 6 -1 10 4 10 6 0
11 -4 11 -10z m47 -12 c-3 -8 -6 -5 -6 6 -1 11 2 17 5 13 3 -3 4 -12 1 -19z
m20 -10 c-3 -7 -5 -2 -5 12 0 14 2 19 5 13 2 -7 2 -19 0 -25z m30 -15 c-3 -10
-5 -2 -5 17 0 19 2 27 5 18 2 -10 2 -26 0 -35z m33 7 c0 -22 -4 -40 -10 -40
-5 0 -10 18 -10 40 0 22 5 40 10 40 6 0 10 -18 10 -40z m17 -42 c-2 -18 -4 -6
-4 27 0 33 2 48 4 33 2 -15 2 -42 0 -60z m33 6 c0 -42 -4 -73 -9 -70 -11 7
-10 146 1 146 4 0 8 -34 8 -76z m17 -96 c-2 -35 -3 -9 -3 57 0 66 1 94 3 63 2
-32 2 -86 0 -120z m2020 -10 c-2 -35 -3 -7 -3 62 0 69 1 97 3 63 2 -35 2 -91
0 -125z m33 113 c0 -39 -4 -73 -10 -76 -6 -4 -10 22 -10 69 0 44 4 76 10 76 6
0 10 -30 10 -69z m17 -13 c-2 -18 -4 -6 -4 27 0 33 2 48 4 33 2 -15 2 -42 0
-60z m33 42 c0 -52 -14 -52 -18 0 -1 22 2 40 8 40 5 0 10 -18 10 -40z m17 -7
c-3 -10 -5 -2 -5 17 0 19 2 27 5 18 2 -10 2 -26 0 -35z m30 10 c-3 -10 -5 -4
-5 12 0 17 2 24 5 18 2 -7 2 -21 0 -30z m20 15 c-3 -8 -6 -5 -6 6 -1 11 2 17
5 13 3 -3 4 -12 1 -19z m30 0 c-3 -8 -6 -5 -6 6 -1 11 2 17 5 13 3 -3 4 -12 1
-19z m33 12 c0 -5 -4 -10 -10 -10 -5 0 -10 5 -10 10 0 6 5 10 10 10 6 0 10 -4
10 -10z m97 -12 c-3 -8 -6 -5 -6 6 -1 11 2 17 5 13 3 -3 4 -12 1 -19z m20 0
c-3 -8 -6 -5 -6 6 -1 11 2 17 5 13 3 -3 4 -12 1 -19z m30 -15 c-3 -10 -5 -4
-5 12 0 17 2 24 5 18 2 -7 2 -21 0 -30z m33 7 c0 -16 -4 -30 -10 -30 -5 0 -10
14 -10 30 0 17 5 30 10 30 6 0 10 -13 10 -30z m17 -32 c-2 -13 -4 -3 -4 22 0
25 2 35 4 23 2 -13 2 -33 0 -45z m33 5 c0 -31 -2 -54 -5 -52 -7 7 -13 82 -8
96 10 25 13 13 13 -44z m17 -55 c-2 -24 -4 -7 -4 37 0 44 2 63 4 43 2 -21 2
-57 0 -80z m30 -300 c-1 -79 -3 -17 -3 137 0 154 2 218 3 143 2 -75 2 -201 0
-280z m-2740 305 c-2 -16 -4 -5 -4 22 0 28 2 40 4 28 2 -13 2 -35 0 -50z
m2480 -10 c-2 -16 -4 -3 -4 27 0 30 2 43 4 28 2 -16 2 -40 0 -55z m-2497 57
c0 -5 -2 -10 -4 -10 -3 0 -8 5 -11 10 -3 6 -1 10 4 10 6 0 11 -4 11 -10z m50
-42 c0 -28 -3 -48 -7 -44 -12 11 -14 96 -3 96 5 0 10 -23 10 -52z m17 -25 c-2
-16 -4 -3 -4 27 0 30 2 43 4 28 2 -16 2 -40 0 -55z m2480 45 c-3 -7 -5 -2 -5
12 0 14 2 19 5 13 2 -7 2 -19 0 -25z m-2450 -15 c-3 -10 -5 -4 -5 12 0 17 2
24 5 18 2 -7 2 -21 0 -30z m-210 -60 c-2 -16 -4 -3 -4 27 0 30 2 43 4 28 2
-16 2 -40 0 -55z m-17 20 c0 -25 -2 -44 -5 -41 -9 9 -16 60 -11 75 10 25 16
13 16 -34z m47 -25 c-2 -13 -4 -3 -4 22 0 25 2 35 4 23 2 -13 2 -33 0 -45z
m2450 -35 c-2 -21 -4 -6 -4 32 0 39 2 55 4 38 2 -18 2 -50 0 -70z m-2530 30
c-3 -10 -5 -2 -5 17 0 19 2 27 5 18 2 -10 2 -26 0 -35z m343 -28 c0 -35 -5
-67 -11 -70 -7 -5 -10 17 -8 68 4 91 19 92 19 2z m2497 8 c-2 -16 -4 -5 -4 22
0 28 2 40 4 28 2 -13 2 -35 0 -50z m-50 -5 c-2 -13 -4 -3 -4 22 0 25 2 35 4
23 2 -13 2 -33 0 -45z m-2584 21 c63 -32 77 -111 28 -160 -40 -40 -89 -40
-133 0 -27 24 -33 36 -33 69 0 74 75 123 138 91z m154 -71 c-2 -18 -4 -6 -4
27 0 33 2 48 4 33 2 -15 2 -42 0 -60z m2120 35 c-3 -10 -5 -2 -5 17 0 19 2 27
5 18 2 -10 2 -26 0 -35z m259 16 c47 -44 38 -126 -17 -154 -93 -49 -185 43
-135 134 30 54 106 64 152 20z m131 9 c-3 -8 -6 -5 -6 6 -1 11 2 17 5 13 3 -3
4 -12 1 -19z m-310 -35 c-3 -10 -5 -2 -5 17 0 19 2 27 5 18 2 -10 2 -26 0 -35z
m-2250 -25 c-2 -13 -4 -3 -4 22 0 25 2 35 4 23 2 -13 2 -33 0 -45z m2150 -35
c-3 -10 -5 -2 -5 17 0 19 2 27 5 18 2 -10 2 -26 0 -35z m430 -5 c-2 -13 -4 -5
-4 17 -1 22 1 32 4 23 2 -10 2 -28 0 -40z m-2940 5 c-3 -10 -5 -4 -5 12 0 17
2 24 5 18 2 -7 2 -21 0 -30z m33 -39 c0 -34 -4 -53 -10 -49 -5 3 -10 28 -10
56 0 27 5 49 10 49 6 0 10 -25 10 -56z m17 -51 c-2 -21 -4 -4 -4 37 0 41 2 58
4 38 2 -21 2 -55 0 -75z m33 66 c0 -22 -4 -38 -9 -34 -5 3 -8 20 -6 38 4 38 4
37 10 37 3 0 5 -18 5 -41z m17 -1 c-3 -8 -6 -5 -6 6 -1 11 2 17 5 13 3 -3 4
-12 1 -19z m2380 -195 c-1 -43 -3 -10 -3 72 0 83 2 118 3 78 2 -40 2 -107 0
-150z m-2020 10 c-2 -38 -3 -7 -3 67 0 74 1 105 3 68 2 -38 2 -98 0 -135z
m2380 145 c-2 -13 -4 -5 -4 17 -1 22 1 32 4 23 2 -10 2 -28 0 -40z m50 -35
c-2 -16 -4 -3 -4 27 0 30 2 43 4 28 2 -16 2 -40 0 -55z m-360 30 c-3 -10 -5
-4 -5 12 0 17 2 24 5 18 2 -7 2 -21 0 -30z m50 -55 c-2 -18 -4 -4 -4 32 0 36
2 50 4 33 2 -18 2 -48 0 -65z m30 30 c-2 -13 -4 -5 -4 17 -1 22 1 32 4 23 2
-10 2 -28 0 -40z m-2300 -35 c-2 -16 -4 -5 -4 22 0 28 2 40 4 28 2 -13 2 -35
0 -50z m20 -15 c-2 -18 -4 -6 -4 27 0 33 2 48 4 33 2 -15 2 -42 0 -60z m30 15
c-2 -16 -4 -5 -4 22 0 28 2 40 4 28 2 -13 2 -35 0 -50z m50 45 c-3 -8 -6 -5
-6 6 -1 11 2 17 5 13 3 -3 4 -12 1 -19z m2504 -1 c-10 -9 -11 -8 -5 6 3 10 9
15 12 12 3 -3 0 -11 -7 -18z m-2521 -12 c0 -14 -4 -25 -10 -25 -5 0 -10 11
-10 25 0 14 5 25 10 25 6 0 10 -11 10 -25z m-393 -147 c-2 -29 -3 -6 -3 52 0
58 1 81 3 53 2 -29 2 -77 0 -105z m180 70 c-2 -18 -4 -6 -4 27 0 33 2 48 4 33
2 -15 2 -42 0 -60z m263 -10 c-1 -70 -3 -89 -11 -75 -6 11 -9 48 -6 90 6 82 5
77 12 77 3 0 5 -42 5 -92z m2070 -4 c0 -49 -4 -84 -10 -84 -6 0 -10 37 -10 91
0 57 4 88 10 84 6 -3 10 -44 10 -91z m427 -41 c-2 -27 -3 -5 -3 47 0 52 1 74
3 48 2 -27 2 -69 0 -95z m-2790 60 c-2 -16 -4 -5 -4 22 0 28 2 40 4 28 2 -13
2 -35 0 -50z m63 0 c0 -18 -4 -33 -10 -33 -5 0 -10 21 -10 48 0 34 3 43 10 32
5 -8 10 -30 10 -47z m2497 -10 c-2 -16 -4 -5 -4 22 0 28 2 40 4 28 2 -13 2
-35 0 -50z m50 0 c-2 -16 -4 -5 -4 22 0 28 2 40 4 28 2 -13 2 -35 0 -50z
m-2630 10 c-3 -10 -5 -2 -5 17 0 19 2 27 5 18 2 -10 2 -26 0 -35z m-97 -39 c0
-36 -4 -64 -10 -64 -6 0 -10 30 -10 71 0 44 4 68 10 64 6 -3 10 -35 10 -71z
m377 -46 c-2 -24 -4 -5 -4 42 0 47 2 66 4 43 2 -24 2 -62 0 -85z m2120 0 c-2
-24 -4 -5 -4 42 0 47 2 66 4 43 2 -24 2 -62 0 -85z m393 50 c0 -39 -3 -69 -6
-65 -4 3 -6 31 -6 62 1 73 1 75 7 75 3 0 5 -32 5 -72z m-2873 -55 c-2 -21 -4
-6 -4 32 0 39 2 55 4 38 2 -18 2 -50 0 -70z m343 42 c0 -30 -4 -55 -10 -55 -5
0 -10 25 -10 55 0 30 5 55 10 55 6 0 10 -25 10 -55z m2170 -1 c0 -32 -4 -53
-10 -49 -7 4 -8 89 -1 103 7 13 11 -8 11 -54z m327 -26 c-2 -18 -4 -6 -4 27 0
33 2 48 4 33 2 -15 2 -42 0 -60z m-2660 50 c-3 -8 -6 -5 -6 6 -1 11 2 17 5 13
3 -3 4 -12 1 -19z m-147 -35 c0 -25 -3 -44 -6 -41 -10 10 -13 88 -4 88 6 0 10
-21 10 -47z m277 -35 c-2 -18 -4 -6 -4 27 0 33 2 48 4 33 2 -15 2 -42 0 -60z
m2220 15 c-2 -16 -4 -5 -4 22 0 28 2 40 4 28 2 -13 2 -35 0 -50z m293 22 c0
-25 -4 -45 -10 -45 -11 0 -14 73 -3 83 11 12 13 8 13 -38z m-2773 -27 c-2 -13
-4 -5 -4 17 -1 22 1 32 4 23 2 -10 2 -28 0 -40z m230 0 c-2 -13 -4 -5 -4 17
-1 22 1 32 4 23 2 -10 2 -28 0 -40z m2280 0 c-2 -13 -4 -5 -4 17 -1 22 1 32 4
23 2 -10 2 -28 0 -40z m230 -15 c-2 -16 -4 -5 -4 22 0 28 2 40 4 28 2 -13 2
-35 0 -50z m-2710 10 c-3 -10 -5 -2 -5 17 0 19 2 27 5 18 2 -10 2 -26 0 -35z
m180 0 c-3 -10 -5 -2 -5 17 0 19 2 27 5 18 2 -10 2 -26 0 -35z m2320 0 c-3
-10 -5 -2 -5 17 0 19 2 27 5 18 2 -10 2 -26 0 -35z m180 0 c-3 -10 -5 -2 -5
17 0 19 2 27 5 18 2 -10 2 -26 0 -35z m-2660 0 c-3 -10 -5 -4 -5 12 0 17 2 24
5 18 2 -7 2 -21 0 -30z m30 -15 c-2 -13 -4 -5 -4 17 -1 22 1 32 4 23 2 -10 2
-28 0 -40z m83 25 c-1 -24 -2 -26 -11 -10 -5 9 -7 22 -4 27 10 17 15 11 15
-17z m17 -10 c-3 -10 -5 -4 -5 12 0 17 2 24 5 18 2 -7 2 -21 0 -30z m2380 -15
c-2 -13 -4 -5 -4 17 -1 22 1 32 4 23 2 -10 2 -28 0 -40z m33 21 c0 -10 -4 -19
-10 -19 -5 0 -10 12 -10 26 0 14 4 23 10 19 6 -3 10 -15 10 -26z m67 -6 c-3
-10 -5 -4 -5 12 0 17 2 24 5 18 2 -7 2 -21 0 -30z m30 0 c-3 -10 -5 -4 -5 12
0 17 2 24 5 18 2 -7 2 -21 0 -30z m-2577 7 c0 -11 -4 -20 -10 -20 -5 0 -10 9
-10 20 0 11 5 20 10 20 6 0 10 -9 10 -20z m17 -27 c-3 -10 -5 -2 -5 17 0 19 2
27 5 18 2 -10 2 -26 0 -35z m2480 0 c-3 -10 -5 -2 -5 17 0 19 2 27 5 18 2 -10
2 -26 0 -35z m33 27 c0 -11 -2 -20 -4 -20 -2 0 -6 9 -9 20 -3 11 -1 20 4 20 5
0 9 -9 9 -20z m-333 -62 c-3 -8 -6 -5 -6 6 -1 11 2 17 5 13 3 -3 4 -12 1 -19z
m-995 -45 c-18 -4 -21 -7 -12 -18 14 -17 7 -31 -20 -38 -16 -4 -20 0 -20 19 0
13 6 25 13 25 6 1 -1 5 -18 9 -24 6 -20 8 25 7 30 0 45 -2 32 -4z m-12 -83 c0
-21 -24 -28 -35 -10 -8 14 3 30 21 30 8 0 14 -9 14 -20z"/>
<path d="M5632 1698 c-8 -8 -12 -54 -12 -139 0 -134 2 -140 48 -147 22 -3 22
-3 22 148 0 150 0 150 -23 150 -13 0 -28 -5 -35 -12z"/>
<path d="M5720 1563 l0 -148 43 0 42 1 3 72 c2 40 7 72 12 72 5 0 10 -33 12
-72 3 -62 6 -73 21 -72 9 1 139 2 287 3 l270 1 0 75 c0 43 4 75 10 75 6 0 10
-32 10 -75 l0 -75 105 0 105 0 0 70 c0 40 4 70 10 70 6 0 10 -31 10 -72 l0
-73 89 0 c49 -1 87 3 85 7 -3 4 0 8 5 8 16 0 15 252 -1 268 -9 9 -148 12 -565
12 l-553 0 0 -147z"/>
<path d="M5720 1235 c0 -163 0 -166 25 -190 23 -23 31 -25 130 -25 96 0 105 2
105 19 0 16 -10 19 -66 23 -100 6 -104 14 -104 194 l0 144 -45 0 -45 0 0 -165z"/>
<path d="M5830 1262 c0 -166 3 -172 93 -172 l57 0 0 55 0 55 95 0 95 0 0 38
c0 62 19 72 138 72 l102 0 0 45 0 45 -290 0 -290 0 0 -138z"/>
<path d="M6430 1355 l0 -46 103 3 102 3 0 40 0 40 -102 3 -103 3 0 -46z"/>
<path d="M6200 1271 c-5 -11 -10 -31 -10 -45 l0 -26 110 0 110 0 0 45 0 45
-100 0 c-88 0 -100 -2 -110 -19z"/>
<path d="M6430 1245 l0 -45 45 0 45 0 0 -90 0 -90 38 0 c69 0 82 25 82 164 l0
106 -105 0 -105 0 0 -45z"/>
<path d="M5990 1080 l0 -110 260 0 260 0 0 110 0 110 -260 0 -260 0 0 -110z"/>
<path d="M5480 780 l0 -150 750 0 750 0 0 150 0 150 -750 0 -750 0 0 -150z"/>
<path d="M5017 1479 c-11 -6 -25 -26 -33 -44 -39 -94 83 -168 146 -88 57 73
-33 178 -113 132z"/>
<path d="M7509 1461 c-35 -35 -38 -77 -9 -114 39 -50 117 -42 146 15 46 89
-66 170 -137 99z"/>
<path d="M5018 935 c-77 -43 -43 -165 47 -165 37 0 85 50 85 89 0 63 -76 107
-132 76z"/>
<path d="M7534 940 c-58 -23 -70 -95 -25 -141 35 -35 77 -38 114 -9 49 39 42
116 -14 145 -31 17 -44 18 -75 5z"/>
<path d="M5673 2366 c-29 -14 -30 -36 -2 -36 18 0 19 -2 9 -15 -7 -8 -19 -15
-26 -15 -8 0 -14 -4 -14 -10 0 -6 37 -10 90 -10 53 0 90 4 90 10 0 6 -6 10
-14 10 -7 0 -19 7 -26 15 -10 13 -9 15 8 15 34 0 34 17 1 34 -36 18 -83 19
-116 2z"/>
<path d="M6103 2363 c-28 -19 -29 -33 -3 -33 11 0 20 -4 20 -10 0 -5 -4 -10
-8 -10 -5 0 -17 -7 -28 -15 -17 -13 -10 -14 74 -15 55 0 92 4 92 10 0 6 -6 10
-14 10 -7 0 -19 7 -26 15 -10 13 -9 15 8 15 34 0 34 17 1 34 -40 20 -87 20
-116 -1z"/>
<path d="M6532 2362 c-25 -19 -20 -32 11 -32 16 0 17 -3 7 -15 -7 -8 -19 -15
-26 -15 -8 0 -14 -4 -14 -10 0 -6 35 -10 85 -10 50 0 85 4 85 10 0 6 -6 10
-14 10 -7 0 -19 7 -26 15 -10 13 -9 15 8 15 29 0 39 20 13 27 -12 3 -21 9 -21
14 0 16 -84 9 -108 -9z"/>
<path d="M5668 2252 c-16 -10 -28 -20 -28 -24 0 -5 41 -8 90 -8 50 0 90 3 90
8 0 14 -62 42 -93 41 -18 0 -44 -8 -59 -17z"/>
<path d="M6098 2252 c-16 -10 -28 -20 -28 -24 0 -5 41 -8 90 -8 50 0 90 3 90
6 0 3 -10 14 -22 25 -29 23 -93 23 -130 1z"/>
<path d="M6528 2252 c-16 -10 -28 -20 -28 -24 0 -12 178 -9 185 2 3 6 0 10 -8
10 -8 0 -20 7 -27 15 -17 20 -87 18 -122 -3z"/>
<path d="M5663 2191 c-13 -11 -23 -22 -23 -25 0 -10 179 -6 185 4 3 6 0 10 -8
10 -8 0 -20 7 -27 15 -18 22 -99 19 -127 -4z"/>
<path d="M6098 2192 c-16 -10 -28 -20 -28 -24 0 -5 43 -8 95 -8 52 0 95 3 95
8 0 4 -14 15 -31 25 -38 21 -95 21 -131 -1z"/>
<path d="M6528 2192 c-16 -10 -28 -20 -28 -24 0 -5 43 -8 95 -8 52 0 95 3 95
8 0 4 -14 15 -31 25 -38 21 -95 21 -131 -1z"/>
<path d="M5670 2135 c-7 -8 -19 -15 -26 -15 -8 0 -14 -4 -14 -10 0 -6 40 -10
100 -10 60 0 100 4 100 10 0 6 -6 10 -14 10 -7 0 -19 7 -26 15 -8 9 -30 15
-60 15 -30 0 -52 -6 -60 -15z"/>
<path d="M6093 2131 c-18 -9 -33 -19 -33 -23 0 -5 45 -8 100 -8 60 0 100 4
100 10 0 6 -6 10 -14 10 -7 0 -19 7 -26 15 -16 20 -85 17 -127 -4z"/>
<path d="M6527 2131 c-15 -10 -30 -21 -34 -24 -3 -4 39 -7 95 -7 61 0 102 4
102 10 0 6 -6 10 -14 10 -7 0 -19 7 -26 15 -17 20 -88 18 -123 -4z"/>
<path d="M2963 2085 c-20 -22 -16 -25 37 -25 51 0 60 6 38 28 -16 16 -60 15
-75 -3z"/>
<path d="M5680 2080 c0 -5 -11 -12 -25 -16 -14 -3 -25 -12 -25 -20 0 -11 21
-14 100 -14 79 0 100 3 100 14 0 8 -11 17 -25 20 -14 4 -25 11 -25 16 0 6 -22
10 -50 10 -27 0 -50 -4 -50 -10z"/>
<path d="M6093 2071 c-60 -30 -42 -41 66 -41 100 0 134 12 88 29 -14 6 -28 15
-32 20 -9 16 -85 11 -122 -8z"/>
<path d="M6545 2079 c-4 -5 -18 -14 -31 -19 -51 -20 -23 -30 81 -30 104 0 132
10 81 30 -13 5 -27 14 -31 19 -3 6 -26 11 -50 11 -24 0 -47 -5 -50 -11z"/>
<path d="M2962 2038 c-21 -21 -13 -28 36 -28 56 0 69 8 44 26 -22 17 -64 18
-80 2z"/>
<path d="M2963 1993 c-30 -12 -9 -23 43 -23 49 0 55 2 44 15 -12 14 -61 19
-87 8z"/>
<path d="M2955 1940 c-18 -20 -17 -20 43 -20 65 0 73 4 45 26 -26 20 -67 17
-88 -6z"/>
<path d="M1879 1917 c-19 -15 -31 -45 -20 -51 10 -7 93 49 84 57 -10 11 -47 7
-64 -6z"/>
<path d="M4060 1921 c0 -10 65 -51 81 -51 15 0 10 19 -11 40 -20 20 -70 28
-70 11z"/>
<path d="M2958 1896 c-29 -21 -21 -26 42 -26 33 0 60 4 60 8 0 31 -70 43 -102
18z"/>
<path d="M1900 1870 c-27 -27 -27 -55 0 -40 18 10 19 9 10 -16 -6 -15 -9 -29
-6 -31 6 -6 96 51 96 61 0 4 -17 6 -37 4 -35 -4 -35 -4 -15 10 12 8 22 18 22
23 0 17 -50 9 -70 -11z"/>
<path d="M4040 1881 c0 -11 76 -61 83 -54 8 8 -4 36 -21 51 -18 14 -62 16 -62
3z"/>
<path d="M2958 1846 c-29 -21 -21 -26 40 -26 66 0 80 7 54 26 -22 17 -72 17
-94 0z"/>
<path d="M4015 1830 c5 -16 2 -20 -14 -20 -25 0 -27 -9 -5 -24 13 -10 11 -12
-12 -14 -15 -1 -29 -4 -32 -7 -5 -5 88 -65 101 -65 12 0 -3 43 -22 59 -9 7 -4
6 11 -3 34 -20 38 -20 38 -1 0 9 -12 28 -27 42 l-28 27 36 -22 c38 -23 52 -21
41 6 -9 26 -34 41 -65 42 -24 0 -27 -3 -22 -20z"/>
<path d="M1945 1785 c-24 -23 -33 -45 -18 -45 14 0 93 51 93 60 0 20 -52 9
-75 -15z"/>
<path d="M2952 1798 c-7 -7 -12 -16 -12 -20 0 -11 118 -10 125 1 15 26 -89 43
-113 19z"/>
<path d="M1979 1757 c-17 -12 -35 -57 -24 -57 13 0 95 52 95 61 0 13 -52 10
-71 -4z"/>
<path d="M2947 1749 c-9 -6 -15 -14 -12 -20 8 -12 135 -12 135 1 0 26 -87 40
-123 19z"/>
<path d="M1995 1705 c-26 -25 -32 -45 -15 -45 14 0 100 54 100 62 0 19 -62 7
-85 -17z"/>
<path d="M3930 1721 c0 -10 83 -61 100 -61 14 0 -6 40 -29 57 -19 14 -71 17
-71 4z"/>
<path d="M2947 1699 c-30 -18 -8 -29 59 -29 48 0 64 3 64 14 0 25 -88 35 -123
15z"/>
<path d="M2035 1679 c-21 -10 -48 -56 -36 -63 8 -5 111 56 111 66 0 11 -51 9
-75 -3z"/>
<path d="M3902 1679 c2 -5 27 -24 56 -40 42 -25 52 -28 52 -14 0 27 -46 65
-80 65 -18 0 -30 -5 -28 -11z"/>
<path d="M2948 1649 c-10 -5 -18 -14 -18 -19 0 -13 137 -13 145 -1 15 26 -90
42 -127 20z"/>
<path d="M2059 1635 c-24 -13 -45 -52 -34 -63 6 -7 98 52 103 66 5 16 -37 15
-69 -3z"/>
<path d="M3870 1640 c0 -5 3 -10 8 -10 4 0 18 -10 32 -21 21 -17 22 -19 3 -10
-27 13 -73 14 -73 2 0 -5 24 -23 54 -40 56 -33 86 -40 69 -18 -6 6 -13 20 -16
30 -6 15 -4 16 14 6 11 -6 22 -9 24 -7 11 11 -10 47 -35 61 -31 19 -80 23 -80
7z"/>
<path d="M2088 1594 c-38 -20 -62 -64 -35 -64 18 0 107 58 107 70 0 15 -41 11
-72 -6z"/>
<path d="M2948 1599 c-35 -20 -17 -29 57 -29 41 0 75 3 75 6 0 29 -95 45 -132
23z"/>
<path d="M2118 1554 c-22 -12 -58 -54 -58 -69 0 -12 25 -3 75 30 30 19 55 39
55 44 0 13 -43 10 -72 -5z"/>
<path d="M3816 1561 c-6 -8 113 -85 120 -78 9 9 -11 48 -34 63 -30 19 -78 28
-86 15z"/>
<path d="M2943 1548 c-41 -20 -24 -28 57 -28 44 0 80 3 80 6 0 29 -92 44 -137
22z"/>
<path d="M2134 1503 c-28 -20 -53 -58 -42 -68 6 -6 128 70 128 81 0 19 -50 11
-86 -13z"/>
<path d="M3784 1519 c-5 -8 107 -79 125 -79 6 0 11 4 11 9 0 10 -57 70 -68 72
-38 4 -64 3 -68 -2z"/>
<path d="M2938 1496 c-10 -7 -18 -16 -18 -20 0 -3 39 -6 88 -6 l87 0 -25 20
c-29 23 -106 26 -132 6z"/>
<path d="M3754 1478 c-3 -4 6 -14 18 -21 120 -76 131 -79 110 -33 -18 39 -113
79 -128 54z"/>
<path d="M2145 1445 c-34 -35 -44 -55 -26 -55 14 0 131 74 131 83 0 4 -16 7
-35 7 -26 0 -43 -8 -70 -35z"/>
<path d="M2950 1451 c0 -5 -10 -11 -22 -14 -33 -9 -15 -19 34 -19 24 0 36 -2
28 -5 -43 -14 -80 -35 -75 -44 7 -10 175 -13 175 -2 0 4 -12 18 -27 30 -16 13
-23 23 -18 22 22 -3 45 1 45 9 0 4 -12 13 -27 20 -31 14 -113 16 -113 3z"/>
<path d="M2195 1421 c-34 -20 -69 -67 -57 -75 11 -6 142 72 142 85 0 16 -53
10 -85 -10z"/>
<path d="M3732 1429 c6 -18 126 -90 133 -79 8 13 -17 49 -52 71 -30 20 -87 26
-81 8z"/>
<path d="M2225 1379 c-47 -29 -81 -79 -52 -79 16 0 137 78 137 89 0 14 -55 8
-85 -10z"/>
<path d="M3695 1390 c-5 -8 126 -90 143 -90 20 0 -17 55 -50 75 -34 20 -85 28
-93 15z"/>
<path d="M3665 1349 c-6 -9 4 -16 83 -63 35 -21 65 -36 68 -34 9 10 -25 61
-53 78 -32 19 -91 31 -98 19z"/>
<path d="M2248 1332 c-37 -25 -71 -69 -58 -77 11 -7 150 74 150 87 0 15 -65 8
-92 -10z"/>
<path d="M2933 1338 c-43 -21 -23 -28 72 -28 52 0 95 3 95 8 0 27 -122 42
-167 20z"/>
<path d="M2483 1289 c-45 -26 -54 -28 -59 -15 -10 26 -31 19 -121 -36 -89 -54
-103 -69 -84 -91 8 -10 -1 -20 -39 -43 -75 -44 -75 -61 6 -182 1 -2 23 10 50
26 l47 30 25 -36 c43 -65 70 -93 75 -79 3 7 6 5 6 -5 1 -9 12 -30 26 -46 20
-23 21 -29 9 -28 -22 1 -29 -19 -11 -35 7 -7 11 -23 9 -36 -3 -18 -11 -23 -33
-23 -24 0 -29 -4 -29 -25 0 -22 4 -25 35 -25 l35 0 0 -210 0 -210 -79 0 -79 0
-36 -40 c-68 -76 -128 -70 764 -70 l800 0 0 23 c0 13 -14 37 -33 55 -31 30
-37 32 -110 32 l-77 0 0 210 0 210 35 0 c31 0 35 3 35 25 0 21 -5 25 -29 25
-23 0 -30 5 -33 25 -3 14 -1 28 3 31 11 6 12 44 2 44 -19 -1 -38 -21 -38 -41
0 -12 -6 -24 -12 -26 -7 -3 -13 2 -13 11 0 9 6 16 13 17 6 1 1 5 -13 9 -23 7
-23 8 -4 9 27 1 81 54 161 157 l40 52 46 -29 46 -28 20 32 c60 98 59 110 -15
153 -32 19 -42 30 -35 37 22 22 9 37 -86 96 -74 46 -101 57 -111 49 -7 -6 -10
-18 -7 -26 4 -11 0 -11 -21 3 -66 43 -95 56 -111 51 -17 -5 -90 -113 -81 -120
1 -2 26 -17 53 -35 28 -17 45 -31 39 -31 -10 0 -30 -35 -61 -110 -14 -33 -14
-34 4 -20 14 11 13 8 -3 -10 -50 -59 -57 -108 -21 -161 12 -19 36 -41 52 -49
33 -16 39 -29 23 -47 -14 -18 -28 -16 -28 3 0 11 6 14 18 10 9 -3 4 5 -13 19
-16 14 -34 25 -38 25 -15 0 -20 -33 -6 -44 8 -6 13 -21 11 -33 -3 -23 -6 -23
-152 -23 l-148 0 -4 25 c-3 14 -1 28 3 31 16 9 10 47 -5 41 -9 -4 -5 8 10 30
13 20 24 50 24 67 0 17 4 47 10 66 5 19 11 59 12 87 l3 53 58 0 57 0 0 63 c0
82 -15 97 -93 97 -54 0 -57 1 -57 25 l0 26 -117 -3 c-114 -3 -118 -4 -121 -25
-3 -20 -9 -23 -53 -23 -80 0 -89 -9 -89 -90 l0 -70 53 0 53 0 13 -112 c7 -62
19 -125 27 -140 16 -30 60 -68 81 -68 9 0 11 -5 6 -12 -4 -7 -8 -17 -8 -22 0
-5 -6 -11 -12 -13 -7 -3 -13 2 -13 10 0 9 5 17 11 19 7 2 -1 12 -16 22 -34 22
-57 8 -37 -24 6 -11 12 -29 12 -40 0 -19 -6 -20 -149 -20 l-149 0 -4 25 c-3
14 -1 28 3 31 5 3 9 14 9 26 0 14 -5 18 -16 14 -10 -4 -6 5 10 25 35 41 38 98
8 154 -9 17 -17 38 -19 48 -2 10 -14 40 -28 68 -14 27 -23 54 -20 59 3 5 23
19 45 31 l40 23 -26 45 c-25 44 -59 81 -73 81 -3 0 -30 -14 -58 -31z m14 -265
c-3 -3 -12 -4 -19 -1 -8 3 -5 6 6 6 11 1 17 -2 13 -5z m46 -1 c-7 -2 -19 -2
-25 0 -7 3 -2 5 12 5 14 0 19 -2 13 -5z m504 1 c-3 -3 -12 -4 -19 -1 -8 3 -5
6 6 6 11 1 17 -2 13 -5z m490 0 c-3 -3 -12 -4 -19 -1 -8 3 -5 6 6 6 11 1 17
-2 13 -5z m-1097 -17 c0 -2 -10 -12 -22 -23 l-23 -19 19 23 c18 21 26 27 26
19z m473 -19 c-11 -13 -25 -32 -31 -43 -6 -11 -12 -15 -12 -8 0 12 48 73 58
73 3 0 -4 -10 -15 -22z m90 5 c-14 -3 -20 -9 -16 -19 3 -8 1 -14 -5 -14 -15 0
-23 28 -9 34 7 2 21 4 32 4 17 -1 17 -1 -2 -5z m522 -3 c18 -8 18 -9 2 -9 -11
-1 -15 -6 -11 -13 4 -7 3 -8 -5 -4 -6 4 -9 11 -6 16 3 5 -5 11 -17 13 -19 4
-20 4 -3 5 11 0 29 -3 40 -8z m-1027 -18 c6 -18 -15 -14 -22 4 -4 10 -1 14 6
12 6 -2 14 -10 16 -16z m68 6 c4 -7 4 -10 -1 -6 -4 4 -14 3 -21 -3 -8 -7 -14
-6 -20 2 -4 8 -3 9 4 5 7 -4 12 -2 12 3 0 15 17 14 26 -1z m904 2 c8 -5 11
-12 7 -17 -5 -4 -12 -1 -16 6 -9 14 -31 7 -31 -10 0 -6 5 -7 12 -3 7 4 8 3 4
-4 -4 -6 -13 -9 -21 -5 -18 6 -20 -8 -2 -26 10 -10 9 -12 -2 -9 -8 2 -17 -5
-19 -15 -2 -10 0 -16 5 -15 4 2 9 0 11 -4 1 -5 0 -8 -3 -8 -3 0 -9 0 -15 0 -5
0 -10 11 -10 25 0 14 5 25 11 25 5 0 7 5 4 11 -4 6 3 21 16 35 25 27 28 28 49
14z m-1014 -9 c-4 -5 0 -11 6 -14 8 -2 9 -8 4 -13 -5 -5 -11 -4 -13 4 -3 6
-10 9 -16 5 -7 -4 -6 1 2 10 14 18 26 23 17 8z m491 -12 c1 -14 -3 -19 -13
-15 -11 4 -13 -1 -10 -19 3 -16 1 -23 -6 -19 -6 4 -8 -1 -6 -12 2 -11 11 -17
19 -16 8 2 10 0 6 -4 -19 -20 -37 -11 -37 17 0 16 5 29 11 29 5 0 7 5 4 11 -4
5 1 19 11 30 21 23 19 23 21 -2z m83 11 c0 -5 -4 -10 -10 -10 -5 0 -10 5 -10
10 0 6 5 10 10 10 6 0 10 -4 10 -10z m44 1 c3 -5 -2 -15 -12 -22 -15 -12 -16
-12 -5 2 7 9 10 19 6 22 -3 4 -4 7 0 7 3 0 8 -4 11 -9z m-490 -16 c-7 -16 -24
-21 -24 -6 0 8 7 13 27 20 1 1 0 -6 -3 -14z m544 -10 c-3 -3 -9 2 -12 12 -6
14 -5 15 5 6 7 -7 10 -15 7 -18z m436 10 c-7 -16 -24 -21 -24 -6 0 8 7 13 27
20 1 1 0 -6 -3 -14z m54 -10 c-3 -3 -9 2 -12 12 -6 14 -5 15 5 6 7 -7 10 -15
7 -18z m-1012 -30 c-3 -9 -11 -13 -16 -10 -8 5 -8 11 -1 19 6 7 9 15 7 18 -1
3 2 2 7 -3 5 -4 7 -15 3 -24z m486 3 c-6 -6 -15 -8 -19 -3 -5 4 -2 10 5 12 6
3 9 10 6 16 -5 8 -2 8 7 0 10 -10 10 -16 1 -25z m494 3 c-4 -6 -12 -11 -18
-11 -7 0 -7 4 1 13 6 8 9 16 7 19 -1 3 1 2 7 -2 5 -5 6 -13 3 -19z m-1142 -12
c-3 -5 -10 -6 -16 -3 -6 4 -8 -1 -6 -12 2 -11 10 -18 18 -16 11 3 11 0 0 -13
-11 -14 -10 -19 8 -37 18 -19 23 -20 39 -8 17 13 17 13 1 -5 -17 -18 -18 -18
-43 5 -14 13 -23 30 -21 37 3 7 1 13 -4 13 -6 0 -10 11 -10 25 0 14 5 25 11
25 5 0 7 6 3 13 -5 8 -3 8 9 -2 9 -7 14 -17 11 -22z m1183 -31 c-2 -13 -4 -5
-4 17 -1 22 1 32 4 23 2 -10 2 -28 0 -40z m-1097 17 c0 -8 -7 -15 -15 -15 -8
0 -15 7 -15 15 0 8 7 15 15 15 8 0 15 -7 15 -15z m490 0 c0 -8 -6 -15 -14 -15
-17 0 -28 14 -19 24 12 12 33 6 33 -9z m490 0 c0 -8 -6 -15 -14 -15 -17 0 -28
14 -19 24 12 12 33 6 33 -9z m-410 -30 c0 -8 -4 -17 -10 -20 -6 -3 -7 1 -4 9
3 9 1 16 -6 16 -6 0 -8 5 -5 10 8 13 25 3 25 -15z m-492 -3 c2 -7 -2 -10 -12
-6 -9 3 -16 11 -16 16 0 13 23 5 28 -10z m978 7 c3 -6 1 -16 -5 -22 -9 -9 -10
-7 -5 7 5 13 4 17 -4 12 -7 -4 -12 -2 -12 3 0 14 17 14 26 0z m-1006 -30 c0
-5 5 -7 10 -4 16 10 11 -1 -7 -16 -11 -10 -14 -10 -9 -1 4 6 2 12 -3 12 -6 0
-11 5 -11 10 0 6 5 10 10 10 6 0 10 -5 10 -11z m355 -9 c10 -11 16 -20 13 -20
-3 0 -13 9 -23 20 -10 11 -16 20 -13 20 3 0 13 -9 23 -20z m138 5 c4 -8 1 -17
-5 -21 -7 -4 -8 -3 -4 4 4 7 2 12 -3 12 -6 0 -11 5 -11 10 0 15 17 12 23 -5z
m374 0 c5 -4 2 -4 -6 0 -11 6 -13 4 -8 -8 8 -22 4 -21 -16 1 -16 18 -16 19 3
17 11 -1 23 -5 27 -10z m116 0 c4 -8 1 -17 -5 -21 -7 -4 -8 -3 -4 4 4 7 2 12
-3 12 -6 0 -11 5 -11 10 0 15 17 12 23 -5z m-1012 -22 c10 -11 10 -14 2 -9 -7
4 -13 2 -13 -3 0 -6 -12 -11 -27 -10 l-28 1 25 8 c14 4 21 8 17 9 -5 1 -5 6
-2 11 8 13 10 13 26 -7z m439 13 c0 -2 -8 -10 -17 -17 -16 -13 -17 -12 -4 4
13 16 21 21 21 13z m54 -25 c-4 -3 -9 0 -11 7 -3 6 -10 9 -15 6 -7 -4 -8 -2
-4 5 6 9 11 9 22 0 8 -6 12 -15 8 -18z m436 20 c0 -5 -7 -11 -14 -14 -10 -4
-13 -1 -9 9 6 15 23 19 23 5z m36 -8 c-2 -11 -13 -19 -27 -20 l-24 -2 25 8
c14 5 21 9 17 10 -5 1 -5 6 -2 11 9 15 14 12 11 -7z m-503 -20 c-7 -2 -19 -2
-25 0 -7 3 -2 5 12 5 14 0 19 -2 13 -5z m-532 -31 c-7 -2 -18 1 -23 6 -8 8 -4
9 13 5 13 -4 18 -8 10 -11z m94 8 c-3 -5 -14 -10 -23 -9 -14 0 -13 2 3 9 27
11 27 11 20 0z m472 -6 c-3 -3 -12 -4 -19 -1 -8 3 -5 6 6 6 11 1 17 -2 13 -5z
m22 -30 c-6 -8 -15 -14 -20 -14 -14 0 -11 28 4 33 20 7 29 -4 16 -19z m-591 4
c-6 -18 -28 -21 -28 -4 0 9 7 16 16 16 9 0 14 -5 12 -12z m100 -5 c-14 -17
-28 -16 -28 1 0 8 9 14 19 13 15 -1 17 -4 9 -14z m912 -97 c0 -2 -110 -48
-244 -102 l-244 -97 -249 101 -248 101 493 1 c270 0 492 -2 492 -4z m-527
-205 c5 -5 -346 -154 -465 -197 -17 -6 -18 8 -18 194 l0 200 238 -95 c130 -52
240 -98 245 -102z m563 -199 c-3 -2 -116 41 -251 95 l-246 100 113 47 c62 25
174 71 248 100 l135 54 3 -195 c1 -108 0 -198 -2 -201z m-242 73 l199 -80
-236 -3 c-129 -1 -345 -1 -479 0 l-243 3 240 96 240 97 40 -17 c22 -9 130 -52
239 -96z"/>
<path d="M2275 1285 c-34 -21 -72 -72 -61 -83 7 -6 149 81 153 95 7 20 -52 12
-92 -12z"/>
<path d="M3630 1303 c0 -12 153 -103 162 -96 5 3 2 13 -6 22 -9 10 -16 22 -16
27 0 16 -78 54 -109 54 -17 0 -31 -3 -31 -7z"/>
<path d="M5767 340 c-5 -19 -14 -20 -179 -20 l-174 0 -37 -38 c-20 -21 -37
-41 -37 -45 0 -4 403 -7 895 -7 492 0 895 4 895 8 0 4 -17 25 -38 45 l-38 37
-163 0 c-154 0 -163 1 -168 20 -5 19 -14 20 -139 20 -127 0 -134 -1 -134 -20
0 -19 -7 -20 -205 -20 -198 0 -205 1 -205 20 0 19 -7 20 -134 20 -125 0 -134
-1 -139 -20z"/>
<path d="M5330 165 l0 -55 905 0 905 0 0 55 0 55 -905 0 -905 0 0 -55z"/>
<path d="M124 58 c-23 -27 -24 -29 -3 -10 35 31 47 28 18 -5 l-24 -28 28 25
c23 20 40 25 83 26 l55 1 -28 -31 -28 -31 35 33 c33 29 42 32 100 32 46 0 69
-5 84 -17 20 -17 20 -17 7 -1 -24 31 6 19 33 -13 14 -17 26 -27 26 -23 0 4 -9
18 -21 30 l-20 22 115 -1 115 -1 -22 -26 c-20 -23 -19 -22 9 3 26 24 38 27 95
27 38 0 71 -5 78 -13 11 -9 13 -9 7 0 -14 25 13 12 38 -18 14 -17 26 -27 26
-23 0 4 -9 18 -21 30 l-20 22 115 -1 115 -1 -22 -26 c-17 -20 -15 -19 10 4 29
27 38 29 95 27 34 -1 69 -8 77 -14 12 -9 13 -9 7 0 -14 25 13 13 37 -16 l25
-30 23 27 c13 14 17 21 8 14 -12 -9 -19 -9 -29 1 -12 10 -12 9 -1 -6 18 -23
-1 -22 -23 2 -17 18 -14 19 98 18 115 -1 115 -1 98 -22 -14 -16 -12 -16 9 3
22 19 37 22 106 22 78 0 82 -1 106 -29 l25 -30 23 27 c13 14 17 21 8 14 -12
-9 -19 -9 -29 1 -12 10 -12 9 -1 -6 18 -23 -1 -22 -23 2 -17 18 -14 19 98 18
l115 -1 -22 -26 c-20 -23 -19 -22 9 2 26 25 38 28 95 28 38 0 71 -5 78 -12 11
-10 13 -10 7 -1 -14 25 12 13 37 -16 l25 -30 23 27 c13 14 17 21 8 14 -12 -9
-19 -9 -29 1 -12 10 -12 9 -1 -5 18 -24 -1 -23 -23 1 -17 18 -14 19 98 18
l115 -1 -22 -26 c-18 -20 -16 -20 10 4 28 26 39 28 94 27 34 -1 69 -7 77 -14
13 -9 14 -9 8 0 -12 20 5 15 33 -9 21 -19 23 -19 9 -3 l-17 21 201 2 c196 2
203 1 227 -21 25 -21 25 -21 8 0 l-18 21 113 0 c62 1 153 1 203 1 78 0 92 -2
115 -22 22 -19 23 -20 7 -1 l-17 20 100 0 100 0 -27 -30 c-28 -31 -28 -31 7 2
35 31 38 32 130 32 83 0 97 -3 119 -23 22 -19 23 -19 8 -1 l-17 20 100 0 100
0 -27 -30 c-26 -29 -26 -29 8 2 38 35 52 37 209 30 8 0 26 -10 40 -22 l25 -21
-19 22 -19 22 101 -2 101 -1 -22 -26 c-20 -22 -19 -22 9 3 28 25 35 27 126 27
96 0 97 0 120 -30 l24 -31 24 28 c14 15 18 22 9 15 -12 -9 -19 -9 -29 1 -12
10 -12 9 -2 -5 7 -9 9 -18 5 -21 -4 -3 -16 5 -25 18 l-17 22 99 0 100 -1 -23
-25 c-20 -23 -19 -23 9 2 30 27 35 28 128 26 94 -1 97 -2 119 -30 l23 -30 24
28 c14 15 18 22 9 15 -12 -9 -19 -9 -29 1 -12 10 -12 9 -2 -5 7 -9 9 -18 5
-21 -4 -3 -16 5 -25 18 l-17 22 99 0 100 -1 -23 -25 c-20 -23 -19 -23 9 2 30
27 35 28 128 26 94 -1 97 -2 119 -30 l23 -30 24 28 c14 15 18 22 9 15 -12 -9
-19 -9 -29 1 -12 10 -12 9 -2 -5 7 -9 9 -18 5 -21 -4 -3 -16 5 -25 18 l-17 22
99 0 100 -1 -23 -25 c-22 -26 -22 -26 8 1 28 25 36 26 127 26 96 1 98 0 121
-29 l23 -30 24 28 c14 15 18 22 9 15 -12 -9 -19 -9 -29 1 -12 10 -12 9 -2 -5
7 -9 9 -18 5 -21 -4 -3 -16 5 -25 18 l-17 22 99 0 100 -1 -23 -25 -22 -26 30
26 c28 25 38 27 126 28 l97 2 24 -31 24 -31 24 28 c14 15 18 22 9 15 -12 -9
-19 -9 -29 1 -12 10 -12 9 -2 -5 7 -9 9 -18 5 -21 -4 -3 -16 5 -25 18 l-17 22
99 0 100 -1 -23 -25 -22 -26 30 26 c27 25 38 27 124 29 77 1 97 -2 114 -17 19
-16 20 -16 8 0 -19 24 2 22 24 -3 16 -18 14 -25 -8 -21 -5 1 -5 -3 -2 -10 5
-7 15 -3 31 12 26 24 33 39 10 20 -10 -8 -16 -8 -25 3 -10 12 1 14 73 13 l86
-1 -28 -31 -27 -30 35 31 c34 31 38 32 131 33 l97 2 24 -31 24 -31 24 28 c14
15 18 22 9 15 -12 -9 -19 -9 -29 1 -12 10 -12 9 -2 -5 7 -9 9 -18 5 -21 -4 -3
-16 5 -25 18 l-17 22 99 0 100 -1 -23 -25 -22 -26 30 26 c27 25 38 27 124 29
77 1 97 -2 114 -17 14 -12 18 -13 10 -2 -11 14 -2 15 87 15 89 0 98 -1 87 -15
-10 -14 -9 -13 8 0 31 26 199 27 228 2 14 -12 18 -13 10 -2 -11 14 -2 15 87
15 l100 0 -18 -20 c-16 -20 -16 -20 8 0 21 19 39 22 119 23 77 2 97 -1 114
-16 15 -12 18 -13 9 -2 -10 14 -2 16 86 15 53 -1 102 -4 109 -9 6 -4 14 -3 18
3 3 5 45 10 92 10 68 0 91 -4 107 -17 15 -13 17 -14 9 -2 -11 14 -3 15 72 15
l85 0 -27 -30 c-25 -28 -24 -28 9 3 29 27 40 32 51 23 10 -8 16 -9 25 0 18 18
172 10 197 -10 15 -13 17 -13 8 -1 -11 14 -2 15 87 15 89 0 98 -1 87 -15 -11
-14 -10 -14 6 -2 9 7 17 10 17 5 0 -4 5 -3 12 4 8 8 45 12 100 12 52 0 88 4
88 10 0 7 -1598 10 -4773 10 l-4773 0 -30 -32z"/>
<path d="M169 43 c-13 -16 -12 -17 4 -4 9 7 17 15 17 17 0 8 -8 3 -21 -13z"/>
<path d="M189 33 l-24 -28 28 24 c15 14 27 26 27 28 0 8 -8 1 -31 -24z"/>
<path d="M219 33 l-24 -28 28 24 c15 14 27 26 27 28 0 8 -8 1 -31 -24z"/>
<path d="M500 58 c0 -3 6 -11 14 -17 10 -9 17 -7 27 6 12 16 12 17 -2 6 -12
-10 -18 -10 -27 -1 -7 7 -12 9 -12 6z"/>
<path d="M554 38 l-19 -23 23 19 c21 18 27 26 19 26 -2 0 -12 -10 -23 -22z"/>
<path d="M579 33 l-24 -28 28 24 c15 14 27 26 27 28 0 8 -8 1 -31 -24z"/>
<path d="M609 33 l-24 -28 28 24 c15 14 27 26 27 28 0 8 -8 1 -31 -24z"/>
<path d="M639 33 l-24 -28 28 24 c25 23 32 31 24 31 -2 0 -14 -12 -28 -27z"/>
<path d="M920 58 c0 -3 6 -11 14 -17 10 -9 17 -7 27 6 12 16 12 17 -2 6 -12
-10 -18 -10 -27 -1 -7 7 -12 9 -12 6z"/>
<path d="M974 38 l-19 -23 23 19 c21 18 27 26 19 26 -2 0 -12 -10 -23 -22z"/>
<path d="M1004 38 l-19 -23 23 19 c21 18 27 26 19 26 -2 0 -12 -10 -23 -22z"/>
<path d="M1029 33 l-24 -28 28 24 c25 23 32 31 24 31 -2 0 -14 -12 -28 -27z"/>
<path d="M1064 38 l-19 -23 23 19 c21 18 27 26 19 26 -2 0 -12 -10 -23 -22z"/>
<path d="M1394 38 l-19 -23 23 19 c12 11 22 21 22 23 0 8 -8 2 -26 -19z"/>
<path d="M1419 33 l-24 -28 28 24 c15 14 27 26 27 28 0 8 -8 1 -31 -24z"/>
<path d="M1449 33 l-24 -28 28 24 c15 14 27 26 27 28 0 8 -8 1 -31 -24z"/>
<path d="M1479 33 l-24 -28 28 24 c15 14 27 26 27 28 0 8 -8 1 -31 -24z"/>
<path d="M1814 38 l-19 -23 23 19 c12 11 22 21 22 23 0 8 -8 2 -26 -19z"/>
<path d="M1839 33 l-24 -28 28 24 c15 14 27 26 27 28 0 8 -8 1 -31 -24z"/>
<path d="M1869 33 l-24 -28 28 24 c15 14 27 26 27 28 0 8 -8 1 -31 -24z"/>
<path d="M1894 28 l-29 -33 33 29 c30 28 37 36 29 36 -2 0 -16 -15 -33 -32z"/>
<path d="M2234 38 l-19 -23 23 19 c12 11 22 21 22 23 0 8 -8 2 -26 -19z"/>
<path d="M2264 38 l-19 -23 23 19 c12 11 22 21 22 23 0 8 -8 2 -26 -19z"/>
<path d="M2294 38 l-19 -23 23 19 c12 11 22 21 22 23 0 8 -8 2 -26 -19z"/>
<path d="M2324 38 l-19 -23 23 19 c12 11 22 21 22 23 0 8 -8 2 -26 -19z"/>
<path d="M2610 48 c6 -8 5 -17 -2 -27 -7 -9 0 -5 15 8 27 24 39 43 14 22 -9
-7 -18 -7 -25 -1 -9 7 -9 7 -2 -2z"/>
<path d="M2654 38 l-19 -23 23 19 c12 11 22 21 22 23 0 8 -8 2 -26 -19z"/>
<path d="M2684 38 l-19 -23 23 19 c12 11 22 21 22 23 0 8 -8 2 -26 -19z"/>
<path d="M2709 33 l-24 -28 28 24 c15 14 27 26 27 28 0 8 -8 1 -31 -24z"/>
<path d="M2739 33 l-24 -28 28 24 c15 14 27 26 27 28 0 8 -8 1 -31 -24z"/>
<path d="M2779 43 c-13 -16 -12 -17 4 -4 16 13 21 21 13 21 -2 0 -10 -8 -17
-17z"/>
<path d="M3030 48 c6 -8 5 -17 -2 -27 -7 -9 0 -5 15 8 27 24 39 43 14 22 -9
-7 -18 -7 -25 -1 -9 7 -9 7 -2 -2z"/>
<path d="M3069 33 l-24 -28 28 24 c25 23 32 31 24 31 -2 0 -14 -12 -28 -27z"/>
<path d="M3099 33 l-24 -28 28 24 c15 14 27 26 27 28 0 8 -8 1 -31 -24z"/>
<path d="M3129 33 l-24 -28 28 24 c25 23 32 31 24 31 -2 0 -14 -12 -28 -27z"/>
<path d="M3159 33 l-24 -28 28 24 c15 14 27 26 27 28 0 8 -8 1 -31 -24z"/>
<path d="M3450 48 c6 -8 5 -17 -2 -27 -7 -9 0 -5 15 8 27 24 39 43 14 22 -9
-7 -18 -7 -25 -1 -9 7 -9 7 -2 -2z"/>
<path d="M3494 38 l-19 -23 23 19 c12 11 22 21 22 23 0 8 -8 2 -26 -19z"/>
<path d="M3519 33 l-24 -28 28 24 c15 14 27 26 27 28 0 8 -8 1 -31 -24z"/>
<path d="M3554 38 l-19 -23 23 19 c12 11 22 21 22 23 0 8 -8 2 -26 -19z"/>
<path d="M3870 48 c6 -8 5 -17 -2 -27 -7 -9 0 -5 15 8 27 24 39 43 14 22 -9
-7 -18 -7 -25 -1 -9 7 -9 7 -2 -2z"/>
<path d="M3914 38 l-19 -23 23 19 c12 11 22 21 22 23 0 8 -8 2 -26 -19z"/>
<path d="M3939 33 l-24 -28 28 24 c25 23 32 31 24 31 -2 0 -14 -12 -28 -27z"/>
<path d="M3969 33 l-24 -28 28 24 c25 23 32 31 24 31 -2 0 -14 -12 -28 -27z"/>
<path d="M4290 48 c6 -8 5 -17 -2 -27 -7 -9 0 -5 15 8 27 24 39 43 14 22 -9
-7 -18 -7 -25 -1 -9 7 -9 7 -2 -2z"/>
<path d="M4334 38 l-19 -23 23 19 c12 11 22 21 22 23 0 8 -8 2 -26 -19z"/>
<path d="M4364 38 l-19 -23 23 19 c12 11 22 21 22 23 0 8 -8 2 -26 -19z"/>
<path d="M4384 28 l-29 -33 33 29 c17 17 32 31 32 33 0 8 -8 1 -36 -29z"/>
<path d="M4749 33 l-24 -28 28 24 c25 23 32 31 24 31 -2 0 -14 -12 -28 -27z"/>
<path d="M4779 33 l-24 -28 28 24 c25 23 32 31 24 31 -2 0 -14 -12 -28 -27z"/>
<path d="M4809 33 l-24 -28 28 24 c15 14 27 26 27 28 0 8 -8 1 -31 -24z"/>
<path d="M5174 38 l-19 -23 23 19 c12 11 22 21 22 23 0 8 -8 2 -26 -19z"/>
<path d="M5199 33 l-24 -28 28 24 c25 23 32 31 24 31 -2 0 -14 -12 -28 -27z"/>
<path d="M5229 33 l-24 -28 28 24 c25 23 32 31 24 31 -2 0 -14 -12 -28 -27z"/>
<path d="M5594 38 l-19 -23 23 19 c12 11 22 21 22 23 0 8 -8 2 -26 -19z"/>
<path d="M5619 33 l-24 -28 28 24 c25 23 32 31 24 31 -2 0 -14 -12 -28 -27z"/>
<path d="M5649 33 l-24 -28 28 24 c25 23 32 31 24 31 -2 0 -14 -12 -28 -27z"/>
<path d="M6009 33 l-24 -28 28 24 c25 23 32 31 24 31 -2 0 -14 -12 -28 -27z"/>
<path d="M6039 33 l-24 -28 28 24 c25 23 32 31 24 31 -2 0 -14 -12 -28 -27z"/>
<path d="M6074 38 l-19 -23 23 19 c12 11 22 21 22 23 0 8 -8 2 -26 -19z"/>
<path d="M6429 33 l-24 -28 28 24 c25 23 32 31 24 31 -2 0 -14 -12 -28 -27z"/>
<path d="M6459 33 l-24 -28 28 24 c25 23 32 31 24 31 -2 0 -14 -12 -28 -27z"/>
<path d="M6489 33 l-24 -28 28 24 c25 23 32 31 24 31 -2 0 -14 -12 -28 -27z"/>
<path d="M6849 33 l-24 -28 28 24 c25 23 32 31 24 31 -2 0 -14 -12 -28 -27z"/>
<path d="M6874 28 l-29 -33 33 29 c17 17 32 31 32 33 0 8 -8 1 -36 -29z"/>
<path d="M6909 33 l-24 -28 28 24 c25 23 32 31 24 31 -2 0 -14 -12 -28 -27z"/>
<path d="M7269 33 l-24 -28 28 24 c25 23 32 31 24 31 -2 0 -14 -12 -28 -27z"/>
<path d="M7299 33 l-24 -28 28 24 c25 23 32 31 24 31 -2 0 -14 -12 -28 -27z"/>
<path d="M7329 33 l-24 -28 28 24 c25 23 32 31 24 31 -2 0 -14 -12 -28 -27z"/>
<path d="M7649 48 c12 -17 8 -23 -12 -19 -5 1 -5 -3 -2 -10 5 -7 15 -3 31 12
25 24 33 39 11 20 -10 -8 -17 -7 -27 2 -12 10 -12 9 -1 -5z"/>
<path d="M7689 33 l-24 -28 28 24 c25 23 32 31 24 31 -2 0 -14 -12 -28 -27z"/>
<path d="M7724 38 l-19 -23 23 19 c12 11 22 21 22 23 0 8 -8 2 -26 -19z"/>
<path d="M7754 38 l-19 -23 23 19 c12 11 22 21 22 23 0 8 -8 2 -26 -19z"/>
<path d="M8069 48 c12 -17 8 -23 -12 -19 -5 1 -5 -3 -2 -10 5 -7 15 -3 31 12
25 24 33 39 11 20 -10 -8 -17 -7 -27 2 -12 10 -12 9 -1 -5z"/>
<path d="M8109 33 l-24 -28 28 24 c25 23 32 31 24 31 -2 0 -14 -12 -28 -27z"/>
<path d="M8144 38 l-19 -23 23 19 c12 11 22 21 22 23 0 8 -8 2 -26 -19z"/>
<path d="M8169 33 l-24 -28 28 24 c25 23 32 31 24 31 -2 0 -14 -12 -28 -27z"/>
<path d="M8489 48 c12 -17 8 -23 -12 -19 -5 1 -5 -3 -2 -10 5 -7 15 -3 31 12
25 24 33 39 11 20 -10 -8 -17 -7 -27 2 -12 10 -12 9 -1 -5z"/>
<path d="M8529 33 l-24 -28 28 24 c25 23 32 31 24 31 -2 0 -14 -12 -28 -27z"/>
<path d="M8564 38 l-19 -23 23 19 c12 11 22 21 22 23 0 8 -8 2 -26 -19z"/>
<path d="M8589 33 l-24 -28 28 24 c25 23 32 31 24 31 -2 0 -14 -12 -28 -27z"/>
<path d="M8629 43 c-13 -16 -12 -17 4 -4 9 7 17 15 17 17 0 8 -8 3 -21 -13z"/>
<path d="M8909 48 c12 -17 9 -23 -12 -19 -5 1 -5 -3 -2 -10 5 -7 15 -3 31 12
13 12 21 25 18 28 -4 3 -9 0 -11 -7 -4 -10 -8 -10 -21 0 -15 12 -16 11 -3 -4z"/>
<path d="M8949 33 l-24 -28 28 24 c25 23 32 31 24 31 -2 0 -14 -12 -28 -27z"/>
<path d="M8979 33 l-24 -28 28 24 c25 23 32 31 24 31 -2 0 -14 -12 -28 -27z"/>
<path d="M9329 48 c12 -17 8 -23 -12 -19 -5 1 -5 -3 -2 -10 5 -7 15 -3 31 12
25 24 33 39 11 20 -10 -8 -17 -7 -27 2 -12 10 -12 9 -1 -5z"/>
<path d="M9369 33 l-24 -28 28 24 c25 23 32 31 24 31 -2 0 -14 -12 -28 -27z"/>
<path d="M9399 33 l-24 -28 28 24 c25 23 32 31 24 31 -2 0 -14 -12 -28 -27z"/>
<path d="M9434 38 l-19 -23 23 19 c12 11 22 21 22 23 0 8 -8 2 -26 -19z"/>
<path d="M7150 25 c13 -14 26 -25 28 -25 3 0 -5 11 -18 25 -13 14 -26 25 -28
25 -3 0 5 -11 18 -25z"/>
<path d="M7570 25 c13 -14 26 -25 28 -25 3 0 -5 11 -18 25 -13 14 -26 25 -28
25 -3 0 5 -11 18 -25z"/>
<path d="M7990 25 c13 -14 26 -25 28 -25 3 0 -5 11 -18 25 -13 14 -26 25 -28
25 -3 0 5 -11 18 -25z"/>
<path d="M8405 30 c10 -11 20 -20 23 -20 3 0 -3 9 -13 20 -10 11 -20 20 -23
20 -3 0 3 -9 13 -20z"/>
<path d="M8825 30 c10 -11 20 -20 23 -20 3 0 -3 9 -13 20 -10 11 -20 20 -23
20 -3 0 3 -9 13 -20z"/>
<path d="M9245 30 c10 -11 20 -20 23 -20 3 0 -3 9 -13 20 -10 11 -20 20 -23
20 -3 0 3 -9 13 -20z"/>
<path d="M9665 30 c10 -11 20 -20 23 -20 3 0 -3 9 -13 20 -10 11 -20 20 -23
20 -3 0 3 -9 13 -20z"/>
<path d="M855 20 c10 -11 20 -20 23 -20 3 0 -3 9 -13 20 -10 11 -20 20 -23 20
-3 0 3 -9 13 -20z"/>
<path d="M1275 20 c10 -11 20 -20 23 -20 3 0 -3 9 -13 20 -10 11 -20 20 -23
20 -3 0 3 -9 13 -20z"/>
<path d="M1695 20 c10 -11 20 -20 23 -20 3 0 -3 9 -13 20 -10 11 -20 20 -23
20 -3 0 3 -9 13 -20z"/>
<path d="M2115 20 c10 -11 20 -20 23 -20 3 0 -3 9 -13 20 -10 11 -20 20 -23
20 -3 0 3 -9 13 -20z"/>
<path d="M2535 20 c10 -11 20 -20 23 -20 3 0 -3 9 -13 20 -10 11 -20 20 -23
20 -3 0 3 -9 13 -20z"/>
<path d="M2955 20 c10 -11 20 -20 23 -20 3 0 -3 9 -13 20 -10 11 -20 20 -23
20 -3 0 3 -9 13 -20z"/>
<path d="M3375 20 c10 -11 20 -20 23 -20 3 0 -3 9 -13 20 -10 11 -20 20 -23
20 -3 0 3 -9 13 -20z"/>
<path d="M3795 20 c10 -11 20 -20 23 -20 3 0 -3 9 -13 20 -10 11 -20 20 -23
20 -3 0 3 -9 13 -20z"/>
<path d="M4215 20 c10 -11 20 -20 23 -20 3 0 -3 9 -13 20 -10 11 -20 20 -23
20 -3 0 3 -9 13 -20z"/>
<path d="M4635 20 c10 -11 20 -20 23 -20 3 0 -3 9 -13 20 -10 11 -20 20 -23
20 -3 0 3 -9 13 -20z"/>
<path d="M5055 20 c10 -11 20 -20 23 -20 3 0 -3 9 -13 20 -10 11 -20 20 -23
20 -3 0 3 -9 13 -20z"/>
<path d="M5475 20 c10 -11 20 -20 23 -20 3 0 -3 9 -13 20 -10 11 -20 20 -23
20 -3 0 3 -9 13 -20z"/>
<path d="M5505 20 c10 -11 20 -20 23 -20 3 0 -3 9 -13 20 -10 11 -20 20 -23
20 -3 0 3 -9 13 -20z"/>
<path d="M5895 20 c10 -11 20 -20 23 -20 3 0 -3 9 -13 20 -10 11 -20 20 -23
20 -3 0 3 -9 13 -20z"/>
<path d="M5925 20 c10 -11 20 -20 23 -20 3 0 -3 9 -13 20 -10 11 -20 20 -23
20 -3 0 3 -9 13 -20z"/>
<path d="M6315 20 c10 -11 20 -20 23 -20 3 0 -3 9 -13 20 -10 11 -20 20 -23
20 -3 0 3 -9 13 -20z"/>
<path d="M6345 20 c10 -11 20 -20 23 -20 3 0 -3 9 -13 20 -10 11 -20 20 -23
20 -3 0 3 -9 13 -20z"/>
<path d="M6735 20 c10 -11 20 -20 23 -20 3 0 -3 9 -13 20 -10 11 -20 20 -23
20 -3 0 3 -9 13 -20z"/>
<path d="M6765 20 c10 -11 20 -20 23 -20 3 0 -3 9 -13 20 -10 11 -20 20 -23
20 -3 0 3 -9 13 -20z"/>
<path d="M7185 20 c10 -11 20 -20 23 -20 3 0 -3 9 -13 20 -10 11 -20 20 -23
20 -3 0 3 -9 13 -20z"/>
<path d="M7605 20 c10 -11 20 -20 23 -20 3 0 -3 9 -13 20 -10 11 -20 20 -23
20 -3 0 3 -9 13 -20z"/>
<path d="M8025 20 c10 -11 20 -20 23 -20 3 0 -3 9 -13 20 -10 11 -20 20 -23
20 -3 0 3 -9 13 -20z"/>
<path d="M8445 20 c10 -11 20 -20 23 -20 3 0 -3 9 -13 20 -10 11 -20 20 -23
20 -3 0 3 -9 13 -20z"/>
<path d="M8865 20 c10 -11 20 -20 23 -20 3 0 -3 9 -13 20 -10 11 -20 20 -23
20 -3 0 3 -9 13 -20z"/>
<path d="M9285 20 c10 -11 20 -20 23 -20 3 0 -3 9 -13 20 -10 11 -20 20 -23
20 -3 0 3 -9 13 -20z"/>
<path d="M430 26 c0 -2 8 -10 18 -17 15 -13 16 -12 3 4 -13 16 -21 21 -21 13z"/>
<path d="M460 26 c0 -2 8 -10 18 -17 15 -13 16 -12 3 4 -13 16 -21 21 -21 13z"/>
<path d="M880 26 c0 -2 8 -10 18 -17 15 -13 16 -12 3 4 -13 16 -21 21 -21 13z"/>
<path d="M1300 26 c0 -2 8 -10 18 -17 15 -13 16 -12 3 4 -13 16 -21 21 -21 13z"/>
<path d="M1720 26 c0 -2 8 -10 18 -17 15 -13 16 -12 3 4 -13 16 -21 21 -21 13z"/>
<path d="M2140 26 c0 -2 8 -10 18 -17 15 -13 16 -12 3 4 -13 16 -21 21 -21 13z"/>
<path d="M2560 26 c0 -2 8 -10 18 -17 15 -13 16 -12 3 4 -13 16 -21 21 -21 13z"/>
<path d="M2980 26 c0 -2 8 -10 18 -17 15 -13 16 -12 3 4 -13 16 -21 21 -21 13z"/>
<path d="M3400 26 c0 -2 8 -10 18 -17 15 -13 16 -12 3 4 -13 16 -21 21 -21 13z"/>
<path d="M3820 26 c0 -2 8 -10 18 -17 15 -13 16 -12 3 4 -13 16 -21 21 -21 13z"/>
<path d="M4240 26 c0 -2 8 -10 18 -17 15 -13 16 -12 3 4 -13 16 -21 21 -21 13z"/>
<path d="M4660 26 c0 -2 8 -10 18 -17 15 -13 16 -12 3 4 -13 16 -21 21 -21 13z"/>
<path d="M5080 26 c0 -2 8 -10 18 -17 15 -13 16 -12 3 4 -13 16 -21 21 -21 13z"/>
</g>
</svg>
