<?xml version="1.0" encoding="UTF-8" standalone="no"?>
<svg
   version="1.0"
   width="705.000000pt"
   height="999.000000pt"
   viewBox="0 0 705.000000 999.000000"
   preserveAspectRatio="xMidYMid meet"
   id="svg8"
   sodipodi:docname="tr.svg"
   inkscape:version="1.4 (86a8ad7, 2024-10-11)"
   xmlns:inkscape="http://www.inkscape.org/namespaces/inkscape"
   xmlns:sodipodi="http://sodipodi.sourceforge.net/DTD/sodipodi-0.dtd"
   xmlns="http://www.w3.org/2000/svg"
   xmlns:svg="http://www.w3.org/2000/svg">
  <defs
     id="defs8" />
  <sodipodi:namedview
     id="namedview8"
     pagecolor="#ffffff"
     bordercolor="#000000"
     borderopacity="0.25"
     inkscape:showpageshadow="2"
     inkscape:pageopacity="0.0"
     inkscape:pagecheckerboard="0"
     inkscape:deskcolor="#d1d1d1"
     inkscape:document-units="pt"
     inkscape:zoom="0.66449955"
     inkscape:cx="470.27873"
     inkscape:cy="252.0694"
     inkscape:window-width="1920"
     inkscape:window-height="991"
     inkscape:window-x="-9"
     inkscape:window-y="-9"
     inkscape:window-maximized="1"
     inkscape:current-layer="svg8" />
  <g
     transform="translate(0.000000,999.000000) scale(0.100000,-0.100000)"
     fill="#000000"
     stroke="none"
     id="g8">
    <path
       d="M2206 9974 c-3 -9 -6 -51 -6 -94 0 -68 -3 -81 -19 -90 -11 -5 -26 -8 -33 -5 -20 8 -86 -22 -98 -44 -5 -11 -10 -37 -10 -58 0 -49 -14 -63 -61 -63 -21 0 -41 -4 -44 -10 -3 -5 -17 -10 -31 -10 -32 0 -43 -28 -19 -46 10 -7 45 -16 77 -20 72 -8 90 -24 86 -73 l-3 -36 -60 -6 c-68 -6 -120 -27 -120 -48 0 -16 53 -37 122 -47 54 -8 63 -16 63 -59 0 -51 -12 -57 -128 -72 -43 -5 -64 -25 -46 -43 5 -5 43 -16 84 -25 79 -17 90 -24 90 -67 0 -40 -22 -54 -92 -62 -91 -11 -115 -36 -55 -60 17 -8 55 -17 82 -21 55 -8 65 -16 65 -57 0 -51 -8 -58 -71 -58 -61 0 -104 -14 -113 -36 -8 -20 14 -31 93 -47 41 -9 78 -22 82 -29 5 -7 9 -30 9 -50 0 -27 -5 -40 -20 -48 -11 -6 -25 -8 -30 -5 -13 8 -118 -14 -126 -26 -12 -21 20 -38 91 -50 77 -12 84 -19 85 -75 0 -26 -37 -44 -88 -44 -43 0 -89 -18 -97 -38 -6 -17 52 -41 135 -55 96 -16 528 -15 625 2 81 13 135 34 135 51 0 18 -59 40 -109 40 -43 0 -53 4 -67 25 -10 15 -14 34 -10 52 6 27 12 30 88 45 45 10 86 22 92 28 20 20 -18 40 -86 47 -58 5 -67 9 -82 33 -31 53 -17 79 49 91 88 16 125 30 125 44 0 21 -53 45 -99 45 -22 0 -47 3 -56 6 -21 9 -37 49 -29 79 5 19 14 24 56 29 104 14 165 58 101 72 -16 3 -39 9 -53 14 -14 5 -41 11 -61 15 -29 4 -38 11 -43 31 -9 36 2 63 27 69 12 2 48 9 79 15 56 11 85 30 74 48 -5 9 -44 18 -108 26 -16 2 -32 4 -38 5 -20 2 -42 50 -36 79 6 26 12 29 69 39 80 14 117 29 117 47 0 15 -83 46 -127 46 -35 0 -48 9 -57 37 -12 37 2 69 32 71 57 4 131 24 142 37 21 26 9 33 -95 51 -61 11 -73 22 -68 66 10 68 -28 108 -102 108 -63 0 -65 3 -65 106 l0 94 -104 0 c-85 0 -105 -3 -110 -16z"
       id="path1" />
    <path
       d="M3415 9968 c-3 -13 -6 -57 -7 -98 l-3 -75 -40 -6 c-89 -13 -115 -38 -115 -106 0 -47 -14 -63 -56 -63 -18 0 -36 -4 -39 -10 -3 -5 -17 -10 -29 -10 -26 0 -51 -24 -42 -38 7 -11 85 -32 120 -32 37 0 58 -26 54 -69 -3 -32 -6 -36 -33 -38 -96 -8 -172 -40 -149 -63 11 -11 120 -40 151 -40 25 0 37 -28 31 -76 -3 -31 -8 -33 -131 -51 -39 -5 -58 -26 -40 -44 5 -5 42 -16 82 -23 78 -15 91 -25 91 -67 0 -34 -13 -43 -85 -58 -72 -15 -90 -24 -90 -42 0 -16 52 -35 117 -44 43 -6 49 -9 56 -38 15 -54 2 -72 -54 -74 -92 -5 -152 -35 -121 -61 7 -6 45 -17 86 -25 41 -9 78 -22 83 -29 13 -20 5 -80 -12 -89 -8 -4 -44 -13 -80 -21 -53 -11 -65 -17 -65 -33 0 -16 12 -22 75 -34 80 -15 90 -22 90 -62 0 -38 -29 -59 -83 -59 -25 0 -49 -4 -52 -10 -3 -5 -14 -10 -25 -10 -10 0 -21 -7 -24 -16 -7 -20 46 -43 129 -55 110 -17 404 -22 535 -10 137 13 230 36 230 57 0 18 -63 44 -109 44 -51 1 -71 19 -71 67 l0 40 74 12 c40 7 82 19 92 27 19 14 19 14 0 28 -10 8 -44 18 -75 22 -70 8 -91 25 -91 75 0 32 4 39 23 43 12 3 36 8 52 11 75 15 105 27 105 40 0 21 -58 45 -111 45 -58 0 -77 21 -71 74 4 32 8 36 33 36 15 0 31 5 34 10 4 6 10 8 15 5 13 -8 87 13 95 26 9 13 -15 41 -30 36 -6 -3 -22 1 -36 9 -13 7 -36 13 -51 14 -49 0 -58 9 -58 55 l0 43 79 17 c43 10 84 21 90 24 20 13 1 41 -28 41 -30 1 -110 21 -128 33 -7 5 -13 27 -13 51 l0 42 63 11 c80 14 117 29 117 47 0 17 -94 49 -120 41 -34 -11 -60 15 -60 61 0 44 10 54 54 54 12 0 46 7 75 16 62 18 67 44 11 56 -137 28 -136 27 -132 87 5 61 -20 91 -72 91 -19 0 -46 4 -60 10 -25 9 -26 12 -26 105 l0 95 -110 0 c-105 0 -110 -1 -115 -22z"
       id="path2" />
    <path
       d="M4628 9896 c-1 -52 -7 -98 -11 -103 -5 -4 -22 -9 -38 -9 -16 -1 -37 -2 -48 -3 -10 0 -30 -13 -45 -27 -20 -20 -26 -37 -26 -68 0 -48 -13 -66 -49 -66 -31 0 -97 -22 -112 -37 -24 -24 -6 -31 139 -59 31 -6 49 -46 34 -79 -9 -20 -19 -25 -49 -25 -21 -1 -49 -7 -62 -14 -14 -8 -30 -12 -36 -9 -7 2 -18 -4 -26 -13 -19 -23 4 -38 84 -54 34 -6 67 -13 74 -15 18 -6 28 -72 13 -90 -11 -13 -80 -31 -140 -37 -17 -2 -26 -10 -28 -24 -3 -18 5 -23 60 -33 90 -18 105 -26 111 -58 9 -47 -14 -70 -80 -77 -80 -10 -93 -15 -93 -36 0 -20 45 -40 91 -40 69 0 105 -42 80 -96 -9 -21 -17 -24 -60 -24 -65 0 -120 -24 -121 -52 0 -10 97 -38 131 -38 33 0 59 -32 59 -71 0 -33 -19 -50 -62 -53 -58 -6 -118 -26 -118 -41 0 -14 35 -26 115 -40 45 -8 55 -18 55 -59 0 -37 -25 -55 -76 -56 -47 0 -104 -25 -104 -45 0 -71 706 -87 866 -20 62 25 11 65 -83 65 -55 0 -73 17 -73 68 l0 39 75 12 c85 14 127 39 101 60 -8 7 -44 15 -78 18 -76 7 -98 23 -98 74 l0 37 78 17 c84 19 112 30 112 46 0 16 -65 39 -112 39 -58 1 -78 18 -78 67 l0 39 73 12 c83 14 124 36 107 57 -11 13 -21 16 -110 33 -63 11 -70 18 -70 62 0 42 2 43 75 55 71 11 105 25 105 45 0 19 -25 27 -112 37 -57 6 -70 20 -66 69 l3 37 70 14 c83 17 122 38 105 57 -14 18 -94 40 -119 33 -34 -8 -61 19 -61 63 0 42 -4 40 95 56 53 9 95 31 89 47 -5 13 -78 37 -113 37 -10 0 -30 6 -43 13 -22 11 -23 16 -15 41 20 59 -31 116 -103 116 -58 0 -60 4 -60 106 l0 94 -109 0 -109 0 -4 -94z"
       id="path3" />
    <path
       d="M264 8027 c-2 -7 -3 -62 -2 -123 l3 -109 146 -3 145 -3 12 -33 c9 -23 9 -41 2 -60 -19 -52 -10 -56 136 -56 l134 0 0 75 0 75 260 0 260 0 10 -26 c6 -15 7 -48 4 -75 l-7 -49 142 0 141 0 0 75 0 75 259 0 259 0 6 -22 c3 -13 6 -47 6 -75 l0 -53 138 0 137 0 -3 75 -4 75 134 1 c201 2 392 -2 398 -8 3 -3 5 -36 4 -74 l-1 -69 139 0 138 0 0 75 0 75 259 0 259 0 10 -28 c5 -16 8 -50 5 -76 l-6 -47 139 3 139 3 3 73 3 72 117 1 c207 1 397 -2 402 -7 2 -3 6 -36 8 -75 l4 -69 134 0 134 0 0 75 0 75 259 0 259 0 10 -28 c5 -16 8 -50 5 -75 l-6 -47 142 0 141 0 0 75 0 75 259 0 c294 0 271 8 271 -91 l0 -59 135 0 135 0 0 75 0 75 155 0 155 0 0 125 0 125 -98 0 c-65 0 -103 -4 -111 -12 -11 -10 -13 -10 -7 -1 6 10 -628 13 -3149 13 -2587 0 -3157 -3 -3161 -13z"
       id="path4" />
    <path
       d="M1552 7393 l-593 -3 -7 -23 c-4 -12 -7 -1469 -7 -3237 l0 -3215 347 -3 347 -2 7 -47 c4 -25 4 -97 0 -160 l-7 -113 628 -2 c345 -2 1194 -2 1886 0 l1257 2 0 160 0 160 345 0 345 0 0 3240 0 3240 -1887 0 c-1038 0 -1927 1 -1977 3 -50 2 -358 2 -684 0z m124 -215 c36 -25 71 -88 80 -147 l6 -39 -72 -4 c-70 -4 -74 -5 -110 -45 -76 -81 -70 165 -70 -2847 0 -1948 3 -2712 11 -2741 14 -49 55 -108 91 -129 14 -9 42 -16 62 -16 44 0 45 -10 5 -44 -29 -25 -36 -26 -155 -26 l-124 0 -38 38 c-78 78 -72 -186 -72 2992 0 3178 -6 2914 72 2992 l38 38 122 0 c109 0 125 -2 154 -22z m682 -3 c33 -28 67 -92 77 -147 l7 -36 -71 -4 c-87 -5 -116 -23 -154 -98 l-27 -55 0 -2734 -1 -2735 28 -55 c33 -67 79 -101 134 -101 48 0 49 -11 6 -44 -32 -25 -41 -26 -155 -26 -115 0 -122 1 -152 26 -45 39 -70 95 -80 185 -13 114 -12 5585 1 5667 10 68 25 98 73 150 l30 32 127 0 c121 0 129 -1 157 -25z m666 6 c39 -24 66 -70 82 -137 l12 -52 -76 -4 c-74 -3 -75 -4 -113 -47 -21 -24 -44 -60 -51 -80 -10 -28 -13 -595 -16 -2746 -2 -2396 0 -2715 13 -2762 26 -88 87 -143 160 -143 33 0 35 -2 25 -20 -21 -38 -62 -50 -180 -50 -126 0 -156 10 -188 62 -55 91 -52 -105 -52 2967 0 3011 -2 2885 46 2959 41 64 58 71 188 72 100 0 123 -3 150 -19z m686 -7 c37 -32 67 -88 76 -142 l6 -40 -69 -4 c-86 -4 -120 -28 -157 -109 l-26 -57 0 -2717 c0 -2710 1 -2795 32 -2795 4 0 8 -6 8 -12 1 -37 72 -88 122 -88 46 0 48 -10 9 -43 -17 -14 -28 -26 -26 -28 2 -2 -57 -2 -131 1 -133 5 -134 5 -164 35 -16 17 -39 56 -50 88 -20 56 -20 75 -20 2907 0 2819 0 2851 20 2908 12 35 33 69 55 90 l35 32 124 0 c120 0 126 -1 156 -26z m678 1 c30 -25 64 -93 77 -152 l7 -33 -56 0 c-94 0 -140 -29 -178 -114 l-23 -51 0 -2725 0 -2725 30 -60 c35 -71 80 -105 136 -105 47 0 49 -10 8 -44 -29 -25 -36 -26 -154 -26 -119 0 -125 1 -155 26 -40 34 -65 85 -79 159 -15 83 -16 5607 0 5690 14 76 50 145 86 167 22 14 53 18 150 18 115 0 123 -1 151 -25z m667 6 c37 -22 85 -110 85 -155 l0 -33 -61 -7 c-88 -10 -127 -35 -163 -101 l-21 -40 -3 -2727 c-2 -2708 -2 -2727 18 -2780 28 -76 75 -118 138 -126 50 -7 50 -7 33 -28 -30 -38 -56 -44 -176 -44 -139 0 -158 9 -202 98 l-28 57 0 2875 0 2875 24 53 c13 29 38 64 55 77 29 23 39 25 151 25 99 0 125 -3 150 -19z m776 -2 c35 -25 67 -83 78 -144 l8 -45 -62 0 c-82 0 -120 -25 -160 -105 l-30 -60 -3 -2695 c-2 -1991 0 -2709 8 -2750 22 -102 86 -170 163 -170 46 0 45 -15 -3 -47 -29 -21 -45 -23 -146 -23 -128 0 -153 8 -188 59 -60 86 -56 -106 -56 2962 0 1856 3 2824 10 2860 14 74 46 134 83 158 28 18 48 21 150 21 105 0 122 -3 148 -21z"
       id="path5" />
    <path
       d="M6688 7102 c-260 -2 -338 -5 -338 -15 0 -6 0 -1258 0 -2782 l0 -2770 350 -2 350 -2 -2 2786 c-2 1848 -6 2787 -13 2787 -5 1 -162 0 -347 -2z"
       id="path6" />
    <path
       d="M0 4315 l0 -2784 353 2 352 2 2 2783 3 2782 -355 0 -355 0 0 -2785z"
       id="path7" />
    <path
       d="M904 461 c-2 -2 -4 -107 -4 -233 l0 -228 2625 0 2625 0 0 233 0 232 -842 -3 c-464 -1 -863 -6 -888 -10 -31 -5 -53 -3 -70 5 -38 19 -1528 19 -1592 -1 -39 -11 -50 -11 -79 1 -29 13 -161 14 -902 11 -478 -1 -871 -5 -873 -7z"
       id="path8" />
  </g>
  <rect
     style="fill:#080808;fill-opacity:1;stroke-width:2.68196;stroke-dasharray:none"
     id="rect9"
     width="18.516298"
     height="26.246042"
     x="221.47728"
     y="168.71042"
     inkscape:transform-center-x="42.832572"
     inkscape:transform-center-y="-71.146553" />
  <rect
     style="fill:#080808;fill-opacity:1;stroke-width:2.68196;stroke-dasharray:none"
     id="rect9-0"
     width="18.516298"
     height="26.246042"
     x="342.43423"
     y="169.24344"
     inkscape:transform-center-x="42.832572"
     inkscape:transform-center-y="-71.146553" />
  <rect
     style="fill:#080808;fill-opacity:1;stroke-width:2.68196;stroke-dasharray:none"
     id="rect9-9"
     width="18.516298"
     height="26.246042"
     x="463.79605"
     y="170.01317"
     inkscape:transform-center-x="42.832572"
     inkscape:transform-center-y="-71.146553" />
</svg>
